<?xml version="1.0" encoding="UTF-8"?>
<svg version="1.1" xmlns="http://www.w3.org/2000/svg" width="4096" height="3432">
<path d="M0 0 C1351.68 0 2703.36 0 4096 0 C4096 1132.56 4096 2265.12 4096 3432 C2744.32 3432 1392.64 3432 0 3432 C0 2299.44 0 1166.88 0 0 Z " fill="#FEFEFE" transform="translate(0,0)"/>
<path d="M0 0 C0.85634372 -0.00152655 1.71268745 -0.0030531 2.59498098 -0.0046259 C5.45965497 -0.00851748 8.32427596 -0.00531317 11.18895018 -0.00213462 C13.27431228 -0.00348154 15.35967413 -0.00526558 17.44503552 -0.00744686 C23.19329639 -0.01218146 28.94154144 -0.01067369 34.68980309 -0.00816908 C40.93693825 -0.00653794 47.18407 -0.01067524 53.43120408 -0.01407826 C64.38631937 -0.01923681 75.34142937 -0.02068341 86.29654562 -0.01962215 C98.05155045 -0.01849774 109.80655211 -0.01953163 121.56155646 -0.02319461 C122.30403338 -0.02342426 123.04651031 -0.02365392 123.81148654 -0.02389053 C126.83550263 -0.02483217 129.85951872 -0.02578786 132.8835348 -0.02676172 C164.4333017 -0.03690719 195.98306683 -0.03996776 227.53283517 -0.04055383 C230.92913643 -0.04061858 234.32543768 -0.04068652 237.72173893 -0.04075724 C238.56454263 -0.04077424 239.40734632 -0.04079125 240.27568952 -0.04080877 C258.95201041 -0.04121722 277.62833096 -0.04340715 296.30465167 -0.04591308 C303.99498975 -0.04694145 311.68532783 -0.04793148 319.3756659 -0.04892933 C320.22538874 -0.04903992 321.07511158 -0.04915051 321.9505836 -0.04926445 C370.64735371 -0.05558898 419.3441236 -0.05971353 468.04089415 -0.0592559 C469.86343579 -0.05924012 471.68597743 -0.05922438 473.50851907 -0.05920869 C481.7371286 -0.05913531 489.96573814 -0.05904714 498.19434767 -0.05895481 C501.86368346 -0.05891368 505.53301925 -0.05887353 509.20235503 -0.05883349 C511.03892463 -0.0588131 512.87549423 -0.05879208 514.71206384 -0.05877043 C572.77544559 -0.05809032 630.83882125 -0.06540509 688.90220129 -0.07931072 C703.52895794 -0.08281178 718.1557146 -0.08628126 732.7824713 -0.08957511 C734.13343886 -0.08987942 734.13343886 -0.08987942 735.51169869 -0.09018988 C763.27530746 -0.09640594 791.03891573 -0.10017066 818.80252516 -0.1014331 C820.11025188 -0.10149302 820.11025188 -0.10149302 821.44439733 -0.10155416 C840.58406192 -0.10240749 859.72372648 -0.10266862 878.86339109 -0.10238378 C885.71219752 -0.1022873 892.56100395 -0.10223526 899.40981038 -0.10220506 C901.11360429 -0.10219714 902.81739819 -0.10218694 904.52119209 -0.10217443 C931.65784795 -0.10199818 958.79449858 -0.1076931 985.93115293 -0.11632825 C1013.26905028 -0.1249832 1040.60694039 -0.12716517 1067.94483853 -0.12056693 C1071.72563699 -0.11965468 1075.50643546 -0.11881139 1079.28723395 -0.11800891 C1080.02834792 -0.11784882 1080.76946189 -0.11768874 1081.53303386 -0.1175238 C1093.25026745 -0.1151742 1104.9674885 -0.11952048 1116.68471973 -0.1266801 C1128.21694277 -0.1335857 1139.74914123 -0.13314288 1151.28136505 -0.12548796 C1157.4458734 -0.12160073 1163.61033742 -0.12084737 1169.77484266 -0.12894531 C1175.39053842 -0.13625764 1181.00615319 -0.13424841 1186.62184542 -0.12502145 C1188.6333721 -0.12330986 1190.64490523 -0.12489644 1192.65642532 -0.13032265 C1220.55025325 -0.20048696 1247.07300917 4.25321626 1273.83140051 12.06399983 C1274.54047553 12.2688802 1275.24955054 12.47376057 1275.98011267 12.68484944 C1285.69643676 15.51242208 1294.84857294 18.95518516 1304.08140051 23.12649983 C1305.93009424 23.93439727 1307.77903479 24.74173024 1309.62827551 25.54837483 C1325.92581174 32.79615841 1341.47266285 40.83975818 1356.08140051 51.12649983 C1356.90003577 51.69836018 1356.90003577 51.69836018 1357.73520911 52.28177327 C1380.38192973 68.11980105 1401.98389501 85.22498318 1419.08140051 107.12649983 C1419.96181537 108.22893815 1420.84338005 109.33045892 1421.72593176 110.43118733 C1431.33700857 122.46660371 1440.31543289 134.80573302 1448.08140051 148.12649983 C1448.66123694 149.11577473 1448.66123694 149.11577473 1449.25278723 150.12503499 C1479.44579737 201.99569223 1488.90095666 256.37706502 1488.71753692 315.52388284 C1488.7037955 321.7724011 1488.7194201 328.0208635 1488.73108774 334.26937658 C1488.74751712 345.19171721 1488.74576643 356.11390941 1488.7312609 367.03624791 C1488.7158059 378.73969796 1488.7114052 390.44307678 1488.72011244 402.14653462 C1488.72065783 402.88938414 1488.72120321 403.63223366 1488.72176512 404.39759378 C1488.72402344 407.42376509 1488.72636006 410.44993634 1488.72879558 413.47610751 C1488.75140278 441.57744173 1488.74970023 469.67872443 1488.73231184 497.78006047 C1488.7155783 524.85507112 1488.70752041 551.93005829 1488.71154082 579.0050742 C1488.71178118 580.70909628 1488.71202037 582.41311836 1488.7122584 584.11714043 C1488.71322727 590.96580581 1488.7142497 597.81447117 1488.7153435 604.66313653 C1488.7183714 623.80534891 1488.71969522 642.94756122 1488.71971285 662.08977383 C1488.71971412 662.9612988 1488.71971538 663.83282378 1488.71971669 664.73075859 C1488.71963664 692.48055437 1488.71209403 720.23034291 1488.69930613 747.98013562 C1488.69889244 748.87950779 1488.69847876 749.77887995 1488.69805254 750.70550582 C1488.69130987 765.30849918 1488.68415575 779.91149234 1488.6769733 794.51448549 C1488.64852063 852.41788492 1488.64254744 910.32124007 1488.65781653 968.22464436 C1488.65877596 971.88371278 1488.65973298 975.5427812 1488.66068924 979.20184962 C1488.66092571 980.10656024 1488.66116218 981.01127085 1488.66140581 981.94339693 C1488.6640189 991.96392358 1488.66655147 1001.98445024 1488.66898692 1012.00497693 C1488.66931664 1013.35304894 1488.66931664 1013.35304894 1488.66965302 1014.72835472 C1488.68123649 1062.45105751 1488.67492259 1110.17375673 1488.6618127 1157.89645868 C1488.65993454 1164.73944192 1488.65810808 1171.58242517 1488.65628716 1178.42540842 C1488.65560291 1180.97726874 1488.65490138 1183.52912905 1488.65419964 1186.08098936 C1488.64915358 1204.71251615 1488.64680998 1223.34403807 1488.6516341 1241.97556514 C1488.65185078 1242.81321552 1488.65206746 1243.65086591 1488.6522907 1244.51389965 C1488.65339939 1248.73055627 1488.65455838 1252.94721287 1488.65573911 1257.16386947 C1488.66428656 1287.70638565 1488.65999366 1318.24885318 1488.63297201 1348.79136018 C1488.63035768 1351.80879438 1488.6278042 1354.82622863 1488.62529814 1357.84366292 C1488.62436641 1358.95436816 1488.62436641 1358.95436816 1488.62341586 1360.0875119 C1488.61398162 1371.75207373 1488.61778043 1383.41659082 1488.62724099 1395.08115103 C1488.63628189 1406.58616584 1488.63042262 1418.09107624 1488.6103486 1429.5960821 C1488.60003233 1435.73524541 1488.59570938 1441.87423568 1488.60932714 1448.01339655 C1488.69518665 1490.13907657 1488.69518665 1490.13907657 1486.26017153 1510.40479153 C1486.17982076 1511.07585123 1486.09946999 1511.74691093 1486.01668434 1512.43830577 C1484.4955915 1524.68813708 1481.53388227 1536.44430314 1477.93979895 1548.23343343 C1477.12082555 1550.99362535 1476.38659469 1553.7607322 1475.68296301 1556.55228108 C1472.3681213 1569.48860153 1467.32914507 1581.25505539 1461.48520911 1593.24564046 C1460.16108806 1595.96296712 1458.86321195 1598.69138973 1457.56968176 1601.42337483 C1440.10279742 1637.84547933 1413.04226919 1673.21651868 1381.08140051 1698.12649983 C1380.46377844 1698.60989827 1379.84615637 1699.09329671 1379.20981848 1699.59134358 C1374.20935438 1703.49343282 1369.15920778 1707.32575264 1364.08140051 1711.12649983 C1363.39803626 1711.6414803 1362.714672 1712.15646077 1362.01059973 1712.68704671 C1350.35103924 1721.41697058 1338.04042064 1728.50056016 1325.08140051 1735.12649983 C1323.78975989 1735.78778889 1323.78975989 1735.78778889 1322.47202551 1736.46243733 C1302.25990267 1746.69249951 1281.1960764 1755.10929363 1259.08140051 1760.12649983 C1258.19420325 1760.33613362 1257.30700598 1760.54576741 1256.39292395 1760.76175374 C1253.52141079 1761.43959794 1250.6462495 1762.09889768 1247.76890051 1762.75149983 C1246.92947913 1762.94590657 1246.09005774 1763.14031331 1245.22519934 1763.34061116 C1227.66985494 1767.17539792 1210.21547037 1768.57260535 1192.28890479 1768.50402325 C1190.17906455 1768.50716167 1188.06922595 1768.51161205 1185.95939088 1768.51723635 C1180.20371088 1768.5288281 1174.44818355 1768.5219767 1168.69250627 1768.51190249 C1162.41472936 1768.50425074 1156.13697477 1768.51408855 1149.85920107 1768.52163249 C1138.87035247 1768.53244128 1127.88155595 1768.53225686 1116.89270651 1768.52449101 C1105.11090162 1768.51621569 1093.32912266 1768.51451347 1081.54731619 1768.52070302 C1080.80110807 1768.52109054 1080.05489994 1768.52147805 1079.28607944 1768.52187731 C1076.24651977 1768.52347726 1073.20696013 1768.5251234 1070.16740052 1768.52682814 C1041.90411993 1768.54266836 1013.64085671 1768.54378456 985.37757361 1768.53538579 C984.54130293 1768.5351374 983.70503226 1768.53488901 982.84342005 1768.5346331 C981.58699015 1768.53425992 981.58699015 1768.53425992 980.30517784 1768.5338792 C954.76198589 1768.52630248 929.21880112 1768.5243588 903.67560828 1768.52794713 C901.96353137 1768.52817957 900.25145447 1768.52841104 898.53937756 1768.52864154 C891.65883637 1768.52957298 884.77829519 1768.53052898 877.89775401 1768.53152083 C858.6651209 1768.53427153 839.43248777 1768.53598357 820.19985449 1768.53687924 C819.32412697 1768.53692018 818.44839944 1768.53696112 817.54613472 1768.53700329 C789.65166432 1768.53823069 761.75719642 1768.53485272 733.86272681 1768.5283305 C732.95831366 1768.52811976 732.05390052 1768.52790901 731.12208091 1768.52769188 C716.4360281 1768.52425724 701.74997534 1768.52059876 687.06392258 1768.51692136 C628.82136924 1768.50235293 570.57883658 1768.50302912 512.33628333 1768.51761311 C497.65754698 1768.52127684 482.97881063 1768.52491005 468.30007422 1768.5283305 C466.94424436 1768.52864752 466.94424436 1768.52864752 465.561024 1768.52897094 C437.69499785 1768.53544181 409.82897342 1768.53818188 381.96294653 1768.53687924 C381.08786628 1768.53683849 380.21278602 1768.53679774 379.31118817 1768.53675575 C360.09973743 1768.53581821 340.88828687 1768.5339171 321.6768363 1768.53114773 C314.80253474 1768.53016036 307.92823318 1768.52922111 301.05393161 1768.5282956 C299.34386538 1768.52806343 297.63379915 1768.52782724 295.92373292 1768.52758701 C270.3889459 1768.52400972 244.85416698 1768.52704879 219.31938098 1768.5346331 C218.4831103 1768.53488149 217.64683963 1768.53512987 216.78522742 1768.53538579 C215.95050702 1768.53563383 215.11578661 1768.53588188 214.25577166 1768.53613745 C186.07216532 1768.54442095 157.8885798 1768.54135034 129.70497644 1768.52554356 C126.67514593 1768.52388658 123.64531539 1768.52227646 120.61548483 1768.52070302 C119.50016607 1768.52011709 119.50016607 1768.52011709 118.36231562 1768.51951932 C106.61508184 1768.5136149 94.86787407 1768.51770824 83.12064264 1768.52601004 C71.55434168 1768.53396913 59.98809813 1768.53086688 48.42179995 1768.51696777 C42.24133718 1768.50984267 36.06097235 1768.50736801 29.88051271 1768.51818572 C24.24696768 1768.52794536 18.61360657 1768.52366134 12.98007469 1768.50864374 C10.96549583 1768.50564702 8.95090139 1768.50755438 6.93633504 1768.51526155 C-10.80376883 1768.5782601 -28.22410504 1766.75998084 -45.54359949 1762.81399983 C-46.47961999 1762.60525227 -47.4156405 1762.39650471 -48.38002527 1762.18143147 C-54.91257531 1760.68395307 -61.36729509 1758.96501906 -67.79359949 1757.06399983 C-68.5833114 1756.83092122 -69.37302331 1756.59784261 -70.18666589 1756.357701 C-74.87581788 1754.91430733 -79.27700263 1753.12654292 -83.73500574 1751.08377522 C-87.07658879 1749.61884374 -90.51904039 1748.51782435 -93.98109949 1747.37649983 C-102.72738954 1744.37240219 -110.77173254 1740.47247768 -118.91859949 1736.12649983 C-119.69074792 1735.72302327 -120.46289636 1735.31954671 -121.25844324 1734.90384358 C-139.39723657 1725.41362691 -156.1400131 1714.16078505 -171.91859949 1701.12649983 C-172.75874597 1700.44079915 -172.75874597 1700.44079915 -173.61586511 1699.74124593 C-182.310323 1692.60499637 -190.38518572 1684.86405583 -198.35609949 1676.93899983 C-199.27971277 1676.02465169 -200.20332605 1675.11030354 -201.15492761 1674.16824788 C-206.8461877 1668.45071568 -212.00597611 1662.52151904 -216.91859949 1656.12649983 C-217.78963342 1655.02776254 -218.66183249 1653.92994673 -219.53578699 1652.83353108 C-229.82694813 1639.64019128 -238.66910435 1625.67339905 -246.91859949 1611.12649983 C-247.27164148 1610.50839436 -247.62468347 1609.89028889 -247.98842371 1609.25345296 C-256.87277071 1593.58570074 -264.05266513 1576.71280838 -269.35609949 1559.50149983 C-269.67586755 1558.46944417 -269.67586755 1558.46944417 -270.00209558 1557.41653889 C-272.07607973 1550.68266345 -274.08051679 1543.92885311 -275.91859949 1537.12649983 C-276.25389025 1535.90399836 -276.25389025 1535.90399836 -276.59595457 1534.6567999 C-284.31802798 1505.34874146 -283.50378657 1474.65235676 -283.4324697 1444.59953582 C-283.42219402 1438.36761596 -283.4354128 1432.13573421 -283.44544303 1425.90381998 C-283.45980231 1415.01385239 -283.45964241 1404.12397843 -283.44925439 1393.23400944 C-283.43819334 1381.56688569 -283.43597259 1369.89980855 -283.44420373 1358.23268193 C-283.44472042 1357.49181287 -283.44523712 1356.7509438 -283.44576946 1355.98762416 C-283.44790289 1352.96947467 -283.45009777 1349.95132524 -283.45237057 1346.93317585 C-283.47345403 1318.91544224 -283.47499563 1290.89773982 -283.46378076 1262.88000172 C-283.45298281 1235.89037851 -283.44876791 1208.90077004 -283.45386255 1181.91114491 C-283.45417247 1180.21227674 -283.45448109 1178.51340857 -283.45478843 1176.8145404 C-283.45603042 1169.9866005 -283.4573051 1163.1586606 -283.45862748 1156.33072072 C-283.46229447 1137.2472015 -283.46457763 1118.16368224 -283.46577203 1099.0801627 C-283.46582662 1098.21134233 -283.4658812 1097.34252197 -283.46593744 1096.44737371 C-283.46757315 1068.78689994 -283.46307416 1041.12643066 -283.45437372 1013.4659583 C-283.45409272 1012.56956653 -283.45381173 1011.67317476 -283.45352221 1010.74961961 C-283.44894306 996.19508513 -283.44406491 981.64055074 -283.43916152 967.08601637 C-283.4197345 909.3599151 -283.42064261 851.63385094 -283.44008386 793.90774983 C-283.44496904 779.35558897 -283.44981341 764.8034281 -283.45437372 750.25126714 C-283.45465551 749.35510973 -283.4549373 748.45895232 -283.45522763 747.53563863 C-283.46385815 719.89897997 -283.4675084 692.26232438 -283.46577203 664.62566441 C-283.4657177 663.75754534 -283.46566336 662.88942626 -283.46560737 661.99500054 C-283.46435722 642.93472809 -283.4618222 623.87445596 -283.45813002 604.81418383 C-283.45681359 597.99380782 -283.45556125 591.1734318 -283.45432718 584.35305578 C-283.45401762 582.65649446 -283.4537027 580.95993315 -283.45338239 579.26337184 C-283.44830251 552.28325022 -283.45398776 525.30314478 -283.46478297 498.32302529 C-283.47583867 470.38643157 -283.4717111 442.44987515 -283.45065778 414.51328674 C-283.44844859 411.50709569 -283.44630175 408.50090461 -283.44420373 405.49471349 C-283.44342249 404.38813497 -283.44342249 404.38813497 -283.44262547 403.25920134 C-283.43476799 391.6271436 -283.44019444 379.99513264 -283.45127976 368.36307915 C-283.46191942 356.89675691 -283.45770813 345.43053749 -283.43922341 333.96422018 C-283.4297553 327.84305093 -283.4263559 321.72205694 -283.44084734 315.60089353 C-283.58295913 250.70365375 -271.87630909 185.99760258 -232.91859949 132.12649983 C-232.38863367 131.38303303 -231.85866785 130.63956624 -231.31264246 129.87357014 C-223.67104126 119.17140187 -215.67146042 108.93858379 -206.91859949 99.12649983 C-206.09359949 98.19064046 -205.26859949 97.25478108 -204.41859949 96.29056233 C-198.39559354 89.51468065 -192.19418544 83.09253825 -185.31313074 77.18509358 C-183.50506331 75.63068651 -181.71358641 74.05695228 -179.93031824 72.47415608 C-171.37238992 64.92683739 -162.3924275 58.14600132 -153.03822839 51.61673421 C-151.17142225 50.30425037 -149.32981743 48.96451055 -147.49281824 47.61087483 C-107.11889383 18.54093192 -49.6195982 -0.14467091 0 0 Z " fill="#FEFEFE" transform="translate(1481.918599486351,880.8735001683235)"/>
<path d="M0 0 C0.85634372 -0.00152655 1.71268745 -0.0030531 2.59498098 -0.0046259 C5.45965497 -0.00851748 8.32427596 -0.00531317 11.18895018 -0.00213462 C13.27431228 -0.00348154 15.35967413 -0.00526558 17.44503552 -0.00744686 C23.19329639 -0.01218146 28.94154144 -0.01067369 34.68980309 -0.00816908 C40.93693825 -0.00653794 47.18407 -0.01067524 53.43120408 -0.01407826 C64.38631937 -0.01923681 75.34142937 -0.02068341 86.29654562 -0.01962215 C98.05155045 -0.01849774 109.80655211 -0.01953163 121.56155646 -0.02319461 C122.30403338 -0.02342426 123.04651031 -0.02365392 123.81148654 -0.02389053 C126.83550263 -0.02483217 129.85951872 -0.02578786 132.8835348 -0.02676172 C164.4333017 -0.03690719 195.98306683 -0.03996776 227.53283517 -0.04055383 C230.92913643 -0.04061858 234.32543768 -0.04068652 237.72173893 -0.04075724 C238.56454263 -0.04077424 239.40734632 -0.04079125 240.27568952 -0.04080877 C258.95201041 -0.04121722 277.62833096 -0.04340715 296.30465167 -0.04591308 C303.99498975 -0.04694145 311.68532783 -0.04793148 319.3756659 -0.04892933 C320.22538874 -0.04903992 321.07511158 -0.04915051 321.9505836 -0.04926445 C370.64735371 -0.05558898 419.3441236 -0.05971353 468.04089415 -0.0592559 C469.86343579 -0.05924012 471.68597743 -0.05922438 473.50851907 -0.05920869 C481.7371286 -0.05913531 489.96573814 -0.05904714 498.19434767 -0.05895481 C501.86368346 -0.05891368 505.53301925 -0.05887353 509.20235503 -0.05883349 C511.03892463 -0.0588131 512.87549423 -0.05879208 514.71206384 -0.05877043 C572.77544559 -0.05809032 630.83882125 -0.06540509 688.90220129 -0.07931072 C703.52895794 -0.08281178 718.1557146 -0.08628126 732.7824713 -0.08957511 C734.13343886 -0.08987942 734.13343886 -0.08987942 735.51169869 -0.09018988 C763.27530746 -0.09640594 791.03891573 -0.10017066 818.80252516 -0.1014331 C820.11025188 -0.10149302 820.11025188 -0.10149302 821.44439733 -0.10155416 C840.58406192 -0.10240749 859.72372648 -0.10266862 878.86339109 -0.10238378 C885.71219752 -0.1022873 892.56100395 -0.10223526 899.40981038 -0.10220506 C901.11360429 -0.10219714 902.81739819 -0.10218694 904.52119209 -0.10217443 C931.65784795 -0.10199818 958.79449858 -0.1076931 985.93115293 -0.11632825 C1013.26905028 -0.1249832 1040.60694039 -0.12716517 1067.94483853 -0.12056693 C1071.72563699 -0.11965468 1075.50643546 -0.11881139 1079.28723395 -0.11800891 C1080.02834792 -0.11784882 1080.76946189 -0.11768874 1081.53303386 -0.1175238 C1093.25026745 -0.1151742 1104.9674885 -0.11952048 1116.68471973 -0.1266801 C1128.21694277 -0.1335857 1139.74914123 -0.13314288 1151.28136505 -0.12548796 C1157.4458734 -0.12160073 1163.61033742 -0.12084737 1169.77484266 -0.12894531 C1175.39053842 -0.13625764 1181.00615319 -0.13424841 1186.62184542 -0.12502145 C1188.6333721 -0.12330986 1190.64490523 -0.12489644 1192.65642532 -0.13032265 C1220.55025325 -0.20048696 1247.07300917 4.25321626 1273.83140051 12.06399983 C1274.54047553 12.2688802 1275.24955054 12.47376057 1275.98011267 12.68484944 C1285.69643676 15.51242208 1294.84857294 18.95518516 1304.08140051 23.12649983 C1305.93009424 23.93439727 1307.77903479 24.74173024 1309.62827551 25.54837483 C1325.92581174 32.79615841 1341.47266285 40.83975818 1356.08140051 51.12649983 C1356.90003577 51.69836018 1356.90003577 51.69836018 1357.73520911 52.28177327 C1380.38192973 68.11980105 1401.98389501 85.22498318 1419.08140051 107.12649983 C1419.96181537 108.22893815 1420.84338005 109.33045892 1421.72593176 110.43118733 C1431.33700857 122.46660371 1440.31543289 134.80573302 1448.08140051 148.12649983 C1448.66123694 149.11577473 1448.66123694 149.11577473 1449.25278723 150.12503499 C1479.44579737 201.99569223 1488.90095666 256.37706502 1488.71753692 315.52388284 C1488.7037955 321.7724011 1488.7194201 328.0208635 1488.73108774 334.26937658 C1488.74751712 345.19171721 1488.74576643 356.11390941 1488.7312609 367.03624791 C1488.7158059 378.73969796 1488.7114052 390.44307678 1488.72011244 402.14653462 C1488.72065783 402.88938414 1488.72120321 403.63223366 1488.72176512 404.39759378 C1488.72402344 407.42376509 1488.72636006 410.44993634 1488.72879558 413.47610751 C1488.75140278 441.57744173 1488.74970023 469.67872443 1488.73231184 497.78006047 C1488.7155783 524.85507112 1488.70752041 551.93005829 1488.71154082 579.0050742 C1488.71178118 580.70909628 1488.71202037 582.41311836 1488.7122584 584.11714043 C1488.71322727 590.96580581 1488.7142497 597.81447117 1488.7153435 604.66313653 C1488.7183714 623.80534891 1488.71969522 642.94756122 1488.71971285 662.08977383 C1488.71971412 662.9612988 1488.71971538 663.83282378 1488.71971669 664.73075859 C1488.71963664 692.48055437 1488.71209403 720.23034291 1488.69930613 747.98013562 C1488.69889244 748.87950779 1488.69847876 749.77887995 1488.69805254 750.70550582 C1488.69130987 765.30849918 1488.68415575 779.91149234 1488.6769733 794.51448549 C1488.64852063 852.41788492 1488.64254744 910.32124007 1488.65781653 968.22464436 C1488.65877596 971.88371278 1488.65973298 975.5427812 1488.66068924 979.20184962 C1488.66092571 980.10656024 1488.66116218 981.01127085 1488.66140581 981.94339693 C1488.6640189 991.96392358 1488.66655147 1001.98445024 1488.66898692 1012.00497693 C1488.66931664 1013.35304894 1488.66931664 1013.35304894 1488.66965302 1014.72835472 C1488.68123649 1062.45105751 1488.67492259 1110.17375673 1488.6618127 1157.89645868 C1488.65993454 1164.73944192 1488.65810808 1171.58242517 1488.65628716 1178.42540842 C1488.65560291 1180.97726874 1488.65490138 1183.52912905 1488.65419964 1186.08098936 C1488.64915358 1204.71251615 1488.64680998 1223.34403807 1488.6516341 1241.97556514 C1488.65185078 1242.81321552 1488.65206746 1243.65086591 1488.6522907 1244.51389965 C1488.65339939 1248.73055627 1488.65455838 1252.94721287 1488.65573911 1257.16386947 C1488.66428656 1287.70638565 1488.65999366 1318.24885318 1488.63297201 1348.79136018 C1488.63035768 1351.80879438 1488.6278042 1354.82622863 1488.62529814 1357.84366292 C1488.62436641 1358.95436816 1488.62436641 1358.95436816 1488.62341586 1360.0875119 C1488.61398162 1371.75207373 1488.61778043 1383.41659082 1488.62724099 1395.08115103 C1488.63628189 1406.58616584 1488.63042262 1418.09107624 1488.6103486 1429.5960821 C1488.60003233 1435.73524541 1488.59570938 1441.87423568 1488.60932714 1448.01339655 C1488.69518665 1490.13907657 1488.69518665 1490.13907657 1486.26017153 1510.40479153 C1486.17982076 1511.07585123 1486.09946999 1511.74691093 1486.01668434 1512.43830577 C1484.4955915 1524.68813708 1481.53388227 1536.44430314 1477.93979895 1548.23343343 C1477.12082555 1550.99362535 1476.38659469 1553.7607322 1475.68296301 1556.55228108 C1472.3681213 1569.48860153 1467.32914507 1581.25505539 1461.48520911 1593.24564046 C1460.16108806 1595.96296712 1458.86321195 1598.69138973 1457.56968176 1601.42337483 C1440.10279742 1637.84547933 1413.04226919 1673.21651868 1381.08140051 1698.12649983 C1380.46377844 1698.60989827 1379.84615637 1699.09329671 1379.20981848 1699.59134358 C1374.20935438 1703.49343282 1369.15920778 1707.32575264 1364.08140051 1711.12649983 C1363.39803626 1711.6414803 1362.714672 1712.15646077 1362.01059973 1712.68704671 C1350.35103924 1721.41697058 1338.04042064 1728.50056016 1325.08140051 1735.12649983 C1323.78975989 1735.78778889 1323.78975989 1735.78778889 1322.47202551 1736.46243733 C1302.25990267 1746.69249951 1281.1960764 1755.10929363 1259.08140051 1760.12649983 C1258.19420325 1760.33613362 1257.30700598 1760.54576741 1256.39292395 1760.76175374 C1253.52141079 1761.43959794 1250.6462495 1762.09889768 1247.76890051 1762.75149983 C1246.92947913 1762.94590657 1246.09005774 1763.14031331 1245.22519934 1763.34061116 C1227.66985494 1767.17539792 1210.21547037 1768.57260535 1192.28890479 1768.50402325 C1190.17906455 1768.50716167 1188.06922595 1768.51161205 1185.95939088 1768.51723635 C1180.20371088 1768.5288281 1174.44818355 1768.5219767 1168.69250627 1768.51190249 C1162.41472936 1768.50425074 1156.13697477 1768.51408855 1149.85920107 1768.52163249 C1138.87035247 1768.53244128 1127.88155595 1768.53225686 1116.89270651 1768.52449101 C1105.11090162 1768.51621569 1093.32912266 1768.51451347 1081.54731619 1768.52070302 C1080.80110807 1768.52109054 1080.05489994 1768.52147805 1079.28607944 1768.52187731 C1076.24651977 1768.52347726 1073.20696013 1768.5251234 1070.16740052 1768.52682814 C1041.90411993 1768.54266836 1013.64085671 1768.54378456 985.37757361 1768.53538579 C984.54130293 1768.5351374 983.70503226 1768.53488901 982.84342005 1768.5346331 C981.58699015 1768.53425992 981.58699015 1768.53425992 980.30517784 1768.5338792 C954.76198589 1768.52630248 929.21880112 1768.5243588 903.67560828 1768.52794713 C901.96353137 1768.52817957 900.25145447 1768.52841104 898.53937756 1768.52864154 C891.65883637 1768.52957298 884.77829519 1768.53052898 877.89775401 1768.53152083 C858.6651209 1768.53427153 839.43248777 1768.53598357 820.19985449 1768.53687924 C819.32412697 1768.53692018 818.44839944 1768.53696112 817.54613472 1768.53700329 C789.65166432 1768.53823069 761.75719642 1768.53485272 733.86272681 1768.5283305 C732.95831366 1768.52811976 732.05390052 1768.52790901 731.12208091 1768.52769188 C716.4360281 1768.52425724 701.74997534 1768.52059876 687.06392258 1768.51692136 C628.82136924 1768.50235293 570.57883658 1768.50302912 512.33628333 1768.51761311 C497.65754698 1768.52127684 482.97881063 1768.52491005 468.30007422 1768.5283305 C466.94424436 1768.52864752 466.94424436 1768.52864752 465.561024 1768.52897094 C437.69499785 1768.53544181 409.82897342 1768.53818188 381.96294653 1768.53687924 C381.08786628 1768.53683849 380.21278602 1768.53679774 379.31118817 1768.53675575 C360.09973743 1768.53581821 340.88828687 1768.5339171 321.6768363 1768.53114773 C314.80253474 1768.53016036 307.92823318 1768.52922111 301.05393161 1768.5282956 C299.34386538 1768.52806343 297.63379915 1768.52782724 295.92373292 1768.52758701 C270.3889459 1768.52400972 244.85416698 1768.52704879 219.31938098 1768.5346331 C218.4831103 1768.53488149 217.64683963 1768.53512987 216.78522742 1768.53538579 C215.95050702 1768.53563383 215.11578661 1768.53588188 214.25577166 1768.53613745 C186.07216532 1768.54442095 157.8885798 1768.54135034 129.70497644 1768.52554356 C126.67514593 1768.52388658 123.64531539 1768.52227646 120.61548483 1768.52070302 C119.50016607 1768.52011709 119.50016607 1768.52011709 118.36231562 1768.51951932 C106.61508184 1768.5136149 94.86787407 1768.51770824 83.12064264 1768.52601004 C71.55434168 1768.53396913 59.98809813 1768.53086688 48.42179995 1768.51696777 C42.24133718 1768.50984267 36.06097235 1768.50736801 29.88051271 1768.51818572 C24.24696768 1768.52794536 18.61360657 1768.52366134 12.98007469 1768.50864374 C10.96549583 1768.50564702 8.95090139 1768.50755438 6.93633504 1768.51526155 C-10.80376883 1768.5782601 -28.22410504 1766.75998084 -45.54359949 1762.81399983 C-46.47961999 1762.60525227 -47.4156405 1762.39650471 -48.38002527 1762.18143147 C-54.91257531 1760.68395307 -61.36729509 1758.96501906 -67.79359949 1757.06399983 C-68.5833114 1756.83092122 -69.37302331 1756.59784261 -70.18666589 1756.357701 C-74.87581788 1754.91430733 -79.27700263 1753.12654292 -83.73500574 1751.08377522 C-87.07658879 1749.61884374 -90.51904039 1748.51782435 -93.98109949 1747.37649983 C-102.72738954 1744.37240219 -110.77173254 1740.47247768 -118.91859949 1736.12649983 C-119.69074792 1735.72302327 -120.46289636 1735.31954671 -121.25844324 1734.90384358 C-139.39723657 1725.41362691 -156.1400131 1714.16078505 -171.91859949 1701.12649983 C-172.75874597 1700.44079915 -172.75874597 1700.44079915 -173.61586511 1699.74124593 C-182.310323 1692.60499637 -190.38518572 1684.86405583 -198.35609949 1676.93899983 C-199.27971277 1676.02465169 -200.20332605 1675.11030354 -201.15492761 1674.16824788 C-206.8461877 1668.45071568 -212.00597611 1662.52151904 -216.91859949 1656.12649983 C-217.78963342 1655.02776254 -218.66183249 1653.92994673 -219.53578699 1652.83353108 C-229.82694813 1639.64019128 -238.66910435 1625.67339905 -246.91859949 1611.12649983 C-247.27164148 1610.50839436 -247.62468347 1609.89028889 -247.98842371 1609.25345296 C-256.87277071 1593.58570074 -264.05266513 1576.71280838 -269.35609949 1559.50149983 C-269.67586755 1558.46944417 -269.67586755 1558.46944417 -270.00209558 1557.41653889 C-272.07607973 1550.68266345 -274.08051679 1543.92885311 -275.91859949 1537.12649983 C-276.25389025 1535.90399836 -276.25389025 1535.90399836 -276.59595457 1534.6567999 C-284.31802798 1505.34874146 -283.50378657 1474.65235676 -283.4324697 1444.59953582 C-283.42219402 1438.36761596 -283.4354128 1432.13573421 -283.44544303 1425.90381998 C-283.45980231 1415.01385239 -283.45964241 1404.12397843 -283.44925439 1393.23400944 C-283.43819334 1381.56688569 -283.43597259 1369.89980855 -283.44420373 1358.23268193 C-283.44472042 1357.49181287 -283.44523712 1356.7509438 -283.44576946 1355.98762416 C-283.44790289 1352.96947467 -283.45009777 1349.95132524 -283.45237057 1346.93317585 C-283.47345403 1318.91544224 -283.47499563 1290.89773982 -283.46378076 1262.88000172 C-283.45298281 1235.89037851 -283.44876791 1208.90077004 -283.45386255 1181.91114491 C-283.45417247 1180.21227674 -283.45448109 1178.51340857 -283.45478843 1176.8145404 C-283.45603042 1169.9866005 -283.4573051 1163.1586606 -283.45862748 1156.33072072 C-283.46229447 1137.2472015 -283.46457763 1118.16368224 -283.46577203 1099.0801627 C-283.46582662 1098.21134233 -283.4658812 1097.34252197 -283.46593744 1096.44737371 C-283.46757315 1068.78689994 -283.46307416 1041.12643066 -283.45437372 1013.4659583 C-283.45409272 1012.56956653 -283.45381173 1011.67317476 -283.45352221 1010.74961961 C-283.44894306 996.19508513 -283.44406491 981.64055074 -283.43916152 967.08601637 C-283.4197345 909.3599151 -283.42064261 851.63385094 -283.44008386 793.90774983 C-283.44496904 779.35558897 -283.44981341 764.8034281 -283.45437372 750.25126714 C-283.45465551 749.35510973 -283.4549373 748.45895232 -283.45522763 747.53563863 C-283.46385815 719.89897997 -283.4675084 692.26232438 -283.46577203 664.62566441 C-283.4657177 663.75754534 -283.46566336 662.88942626 -283.46560737 661.99500054 C-283.46435722 642.93472809 -283.4618222 623.87445596 -283.45813002 604.81418383 C-283.45681359 597.99380782 -283.45556125 591.1734318 -283.45432718 584.35305578 C-283.45401762 582.65649446 -283.4537027 580.95993315 -283.45338239 579.26337184 C-283.44830251 552.28325022 -283.45398776 525.30314478 -283.46478297 498.32302529 C-283.47583867 470.38643157 -283.4717111 442.44987515 -283.45065778 414.51328674 C-283.44844859 411.50709569 -283.44630175 408.50090461 -283.44420373 405.49471349 C-283.44342249 404.38813497 -283.44342249 404.38813497 -283.44262547 403.25920134 C-283.43476799 391.6271436 -283.44019444 379.99513264 -283.45127976 368.36307915 C-283.46191942 356.89675691 -283.45770813 345.43053749 -283.43922341 333.96422018 C-283.4297553 327.84305093 -283.4263559 321.72205694 -283.44084734 315.60089353 C-283.58295913 250.70365375 -271.87630909 185.99760258 -232.91859949 132.12649983 C-232.38863367 131.38303303 -231.85866785 130.63956624 -231.31264246 129.87357014 C-223.67104126 119.17140187 -215.67146042 108.93858379 -206.91859949 99.12649983 C-206.09359949 98.19064046 -205.26859949 97.25478108 -204.41859949 96.29056233 C-198.39559354 89.51468065 -192.19418544 83.09253825 -185.31313074 77.18509358 C-183.50506331 75.63068651 -181.71358641 74.05695228 -179.93031824 72.47415608 C-171.37238992 64.92683739 -162.3924275 58.14600132 -153.03822839 51.61673421 C-151.17142225 50.30425037 -149.32981743 48.96451055 -147.49281824 47.61087483 C-107.11889383 18.54093192 -49.6195982 -0.14467091 0 0 Z M-28.23109949 90.37649983 C-29.71718713 90.69638875 -29.71718713 90.69638875 -31.23329675 91.02274007 C-40.08330293 93.00871721 -48.50824409 95.75290784 -56.91859949 99.12649983 C-57.73586511 99.45263264 -58.55313074 99.77876546 -59.39516199 100.11478108 C-61.60622091 101.05468815 -63.75843384 102.07456249 -65.91859949 103.12649983 C-67.06070886 103.66661702 -68.20281824 104.20673421 -69.37953699 104.76321858 C-84.99455795 112.26282172 -99.47943853 121.19384905 -112.91859949 132.12649983 C-113.87250574 132.88833577 -114.82641199 133.65017171 -115.80922449 134.43509358 C-122.03996057 139.45623146 -128.05177338 144.6852466 -133.91859949 150.12649983 C-134.51027917 150.66403889 -135.10195886 151.20157796 -135.71156824 151.75540608 C-141.31576209 157.0667442 -145.89899224 163.26421354 -150.57826746 169.38040608 C-151.77541302 170.93996621 -152.98853216 172.48723472 -154.20375574 174.03274983 C-176.88776265 203.34493299 -190.21020122 236.94812886 -195.50256648 273.49981201 C-195.76943739 275.18474222 -196.07224749 276.86459531 -196.41991559 278.53472608 C-198.3635211 288.3081422 -198.19880848 298.00291972 -198.17586839 307.92098111 C-198.17856413 309.93537881 -198.18213329 311.94977549 -198.18649286 313.96417028 C-198.19593671 319.50152544 -198.19295475 325.0388147 -198.18793732 330.57617308 C-198.18466843 336.60010735 -198.19295517 342.6240276 -198.19975567 348.64795738 C-198.21006235 359.20697427 -198.21296785 369.76597559 -198.21084344 380.3249957 C-198.20859304 391.65304182 -198.21066793 402.98107481 -198.21798837 414.30911893 C-198.21844768 415.02516715 -198.21890698 415.74121537 -198.21938021 416.47896202 C-198.22126354 419.39545957 -198.22317492 422.3119571 -198.22512259 425.22845461 C-198.24540487 455.6445748 -198.2515344 486.06068763 -198.25270681 516.47681381 C-198.25283631 519.75052713 -198.25297219 523.02424046 -198.25311363 526.29795378 C-198.25314764 527.11037561 -198.25318165 527.92279744 -198.25321668 528.75983811 C-198.25403404 546.77336989 -198.25841543 564.78690027 -198.26342532 582.8004313 C-198.26548212 590.22116236 -198.26746219 597.64189344 -198.26945782 605.06262451 C-198.26978959 606.29259552 -198.26978959 606.29259552 -198.27012806 607.54741442 C-198.28277643 654.53760815 -198.29102632 701.52780097 -198.29011095 748.51799649 C-198.29007939 750.27642338 -198.29004792 752.03485028 -198.29001653 753.79327717 C-198.28986977 761.73212535 -198.28969343 769.67097353 -198.28950876 777.60982171 C-198.28942651 781.14981799 -198.28934622 784.68981427 -198.28926613 788.22981055 C-198.28922534 790.00164407 -198.2891833 791.7734776 -198.28914001 793.54531112 C-198.28778058 849.52941608 -198.30239579 905.51349572 -198.33022058 961.49759358 C-198.33722312 975.59447728 -198.34416227 989.691361 -198.35074937 1003.7882449 C-198.35115512 1004.65634674 -198.35156087 1005.52444858 -198.35197891 1006.41885653 C-198.36441954 1033.19798526 -198.37194215 1059.97711191 -198.37446535 1086.75624341 C-198.37454525 1087.59770356 -198.37462515 1088.43916371 -198.37470747 1089.30612265 C-198.37641449 1107.78347089 -198.37693626 1126.260819 -198.37636672 1144.7381673 C-198.37617377 1151.35088833 -198.37606967 1157.96360936 -198.37600926 1164.57633039 C-198.37599343 1166.22130772 -198.37597302 1167.86628505 -198.37594801 1169.51126238 C-198.3755961 1195.66772576 -198.38696195 1221.82416739 -198.40425565 1247.98062454 C-198.42160135 1274.35002663 -198.42589916 1300.71939871 -198.412733 1327.08880412 C-198.41090875 1330.74355515 -198.4092221 1334.39830624 -198.40761697 1338.05305737 C-198.4072968 1338.76940102 -198.40697662 1339.48574466 -198.40664675 1340.22379569 C-198.40196517 1351.50550133 -198.41059896 1362.78715458 -198.42495935 1374.06885038 C-198.43884169 1385.19870608 -198.43780738 1396.32849992 -198.42257507 1407.4583581 C-198.41485199 1413.39693042 -198.41314379 1419.33531941 -198.42948978 1425.27387841 C-198.58108544 1484.21495502 -192.34270768 1542.3790317 -155.91859949 1591.12649983 C-155.1825448 1592.12810139 -154.44649011 1593.12970296 -153.68813074 1594.16165608 C-148.07759068 1601.6972701 -142.01660213 1608.68931399 -135.51039636 1615.46292561 C-134.4471122 1616.57415541 -133.39110654 1617.69239452 -132.34242761 1618.8174178 C-107.53574607 1645.42311511 -73.72019951 1664.64638763 -38.78258462 1674.31666818 C-36.79839592 1674.87772515 -34.82087666 1675.46270967 -32.84929156 1676.06656548 C-4.06878554 1684.73801655 26.47574074 1683.71313078 56.22208552 1683.64037005 C62.26813597 1683.63009425 68.31414716 1683.6433132 74.36019182 1683.65334338 C84.92538948 1683.66770262 95.49051632 1683.66754276 106.05571234 1683.65715474 C117.37494505 1683.64609363 128.69412973 1683.64387298 140.01336539 1683.65210408 C140.73214741 1683.65262077 141.45092943 1683.65313746 142.19149272 1683.65366981 C145.1196687 1683.65580324 148.04784462 1683.65799812 150.97602049 1683.66027091 C178.15887286 1683.68135461 205.34169308 1683.68289582 232.52455008 1683.67168111 C258.71116693 1683.66088281 284.89776859 1683.65666842 311.08438742 1683.66176289 C312.73276582 1683.66207281 314.38114423 1683.66238144 316.02952263 1683.66268877 C322.65457251 1683.66393077 329.27962238 1683.66520545 335.90467224 1683.66652783 C354.42127337 1683.67019483 372.93787455 1683.67247798 391.454476 1683.67367238 C392.71899752 1683.67375425 392.71899752 1683.67375425 394.00906493 1683.67383778 C420.84822767 1683.67547351 447.68738579 1683.67097447 474.52654707 1683.66227406 C475.39632604 1683.66199307 476.26610501 1683.66171207 477.16224092 1683.66142256 C491.28461366 1683.65684342 505.40698629 1683.65196526 519.52935892 1683.64706186 C575.53646502 1683.62763654 631.54353286 1683.62854148 687.55063879 1683.64798421 C701.66847285 1683.65286942 715.78630691 1683.65771381 729.90414107 1683.66227406 C730.77356091 1683.66255586 731.64298075 1683.66283765 732.53874665 1683.66312798 C759.35313548 1683.67175922 786.16752113 1683.6754086 812.9819113 1683.67367238 C813.82427035 1683.67361804 814.6666294 1683.6735637 815.53451448 1683.67350772 C834.02972426 1683.67225753 852.52493371 1683.66972244 871.02014316 1683.66603037 C877.63844337 1683.66471394 884.25674359 1683.6634616 890.87504382 1683.66222752 C892.52133046 1683.66191797 894.16761709 1683.66160305 895.81390373 1683.66128274 C921.98946094 1683.65620384 948.16500147 1683.66188641 974.34055649 1683.67268332 C1001.44688115 1683.6837419 1028.55316736 1683.67960571 1055.65948655 1683.65855813 C1058.57707025 1683.65634896 1061.49465398 1683.65420211 1064.41223776 1683.65210408 C1065.12820815 1683.65158325 1065.84417854 1683.65106243 1066.581845 1683.65052582 C1077.86569346 1683.64267189 1089.14949366 1683.64809094 1100.43333774 1683.6591801 C1111.55958932 1683.66982636 1122.68577478 1683.66559714 1133.81202037 1683.64712375 C1139.75034862 1683.63766321 1145.68849636 1683.63424006 1151.62681855 1683.64874768 C1200.34157288 1683.75875184 1245.51250114 1679.35300987 1288.93296301 1655.31399983 C1290.92214345 1654.21452556 1292.92162004 1653.13702034 1294.92515051 1652.06399983 C1308.30028976 1644.79541634 1319.59450558 1635.00737084 1331.08140051 1625.12649983 C1332.20868567 1624.18677327 1332.20868567 1624.18677327 1333.35874426 1623.22806233 C1371.12083375 1591.37330962 1396.44381889 1537.76101563 1400.95596905 1489.06654557 C1401.07223262 1487.68247708 1401.07223262 1487.68247708 1401.19084495 1486.27044761 C1401.31725615 1484.77812161 1401.31725615 1484.77812161 1401.4462211 1483.2556476 C1402.24834244 1473.10551277 1402.35875531 1462.99955112 1402.33028948 1452.82333535 C1402.33207808 1450.77922729 1402.33474298 1448.73511984 1402.33819035 1446.6910139 C1402.3450854 1441.12259512 1402.33969472 1435.55424862 1402.33213426 1429.98583327 C1402.32611986 1423.90943724 1402.33180566 1417.83304972 1402.33595508 1411.75665367 C1402.34162215 1401.1232302 1402.33997388 1390.48983067 1402.33326972 1379.85640973 C1402.32611927 1368.45721447 1402.32337353 1357.05803056 1402.32590926 1345.65883321 C1402.32606712 1344.93659916 1402.32622499 1344.21436511 1402.32638764 1343.47024517 C1402.32721174 1339.78698952 1402.32810459 1336.10373388 1402.32902001 1332.42047824 C1402.33547773 1305.81509005 1402.33215448 1279.20971026 1402.32342589 1252.60432309 C1402.31479903 1226.26151703 1402.30989438 1199.91871494 1402.31009352 1173.57590741 C1402.31010145 1171.91984839 1402.31010917 1170.26378938 1402.31011669 1168.60773036 C1402.31015407 1161.95243295 1402.31022049 1155.29713554 1402.3103225 1148.64183813 C1402.31060008 1130.03990419 1402.31021153 1111.4379703 1402.30933344 1092.83603638 C1402.30927394 1091.5655826 1402.30927394 1091.5655826 1402.30921323 1090.26946308 C1402.30790591 1063.2945686 1402.30373688 1036.31967536 1402.29747546 1009.34478158 C1402.29727252 1008.47026574 1402.29706958 1007.5957499 1402.29686049 1006.69473358 C1402.29355194 992.49403954 1402.29005655 978.29334554 1402.28655177 964.09265155 C1402.2726568 907.74675565 1402.266019 851.40086425 1402.26670325 795.05496663 C1402.26672364 793.27311371 1402.26674385 791.49126078 1402.26676389 789.70940786 C1402.26680407 786.14991252 1402.26684484 782.59041717 1402.266886 779.03092183 C1402.26697742 771.04969075 1402.26706177 763.06845966 1402.26713258 755.08722858 C1402.26714835 753.31948459 1402.26716479 751.5517406 1402.26718191 749.78399662 C1402.26762716 702.5640627 1402.2631599 655.34412939 1402.25682968 608.12419593 C1402.25671951 607.29989723 1402.25660934 606.47559852 1402.25649583 605.62632106 C1402.25500042 594.43866732 1402.25500042 594.43866732 1402.25347123 583.25101358 C1402.25097598 565.1246009 1402.24903456 546.99818843 1402.24865758 528.87177557 C1402.24864005 528.05507804 1402.24862252 527.23838051 1402.24860446 526.39693457 C1402.24853526 523.10556854 1402.24847001 519.81420252 1402.24840698 516.52283649 C1402.24782105 485.99139266 1402.24405565 455.45995251 1402.23392829 424.92851023 C1402.23297071 422.00192508 1402.23202737 419.07533993 1402.23109496 416.14875478 C1402.23086442 415.43052562 1402.23063389 414.71229646 1402.23039637 413.97230279 C1402.22683206 402.59912933 1402.22659432 391.22595835 1402.22773079 379.85278449 C1402.22877483 368.67047357 1402.22615056 357.48816817 1402.21988066 346.30585853 C1402.21662538 340.32422008 1402.21494961 334.34259259 1402.21764126 328.36095361 C1402.22005429 322.91956668 1402.21787202 317.47820168 1402.21202314 312.03681754 C1402.21072296 310.08056587 1402.2110929 308.12431219 1402.21333975 306.16806138 C1402.25693034 287.98607745 1402.25693034 287.98607745 1399.67905676 270.02493733 C1399.19934262 267.69848049 1398.77826369 265.38299658 1398.38999426 263.04056233 C1398.26672766 262.30410481 1398.14346106 261.56764729 1398.01645911 260.80887288 C1397.77568944 259.35810152 1397.53998103 257.90647705 1397.31040442 256.45389241 C1396.55936883 251.9890539 1395.41554973 247.83454221 1393.92637122 243.560826 C1392.99085949 240.86565483 1392.12022788 238.15431423 1391.25718176 235.43509358 C1390.95102942 234.47151936 1390.64487708 233.50794514 1390.32944739 232.51517171 C1390.02071692 231.54128499 1389.71198645 230.56739827 1389.39390051 229.56399983 C1389.07356848 228.55530843 1388.75323645 227.54661702 1388.42319739 226.50735921 C1387.64202643 224.04725366 1386.86143863 221.58696476 1386.08140051 219.12649983 C1385.42140051 219.12649983 1384.76140051 219.12649983 1384.08140051 219.12649983 C1383.96925208 217.91413655 1383.96925208 217.91413655 1383.85483801 216.67728108 C1382.8560984 212.09215832 1380.92353652 208.42375155 1378.70640051 204.31399983 C1378.04027747 203.06755696 1378.04027747 203.06755696 1377.36069739 201.79593343 C1356.63372797 163.62497261 1326.50705832 133.87533342 1289.08140051 112.12649983 C1288.11484534 111.55971516 1288.11484534 111.55971516 1287.12876379 110.9814803 C1276.91439646 105.05064402 1266.24457542 100.92572655 1255.08140051 97.12649983 C1254.31481116 96.86361165 1253.5482218 96.60072346 1252.75840247 96.32986897 C1246.09580557 94.07185175 1239.38199021 92.24577868 1232.52442609 90.6856214 C1230.97594061 90.33122821 1229.42942369 89.9680237 1227.88584711 89.59282623 C1206.09616121 84.45805659 1183.58259211 85.56531301 1161.35639327 85.62503234 C1155.21168723 85.6370666 1149.06701479 85.62568803 1142.92230868 85.61739069 C1132.17018585 85.60605893 1121.41817049 85.60935057 1110.66605628 85.62276143 C1099.13987144 85.63706466 1087.6137315 85.64255293 1076.08753836 85.63748235 C1075.35713131 85.63716662 1074.62672426 85.63685089 1073.87418366 85.63652559 C1070.14918556 85.63487737 1066.42418753 85.63309166 1062.69918951 85.63126084 C1035.79318308 85.61834599 1008.88720988 85.62499164 981.98120749 85.64244908 C955.33499703 85.65970668 928.68880227 85.669512 902.04258597 85.66911381 C900.36705704 85.66909797 898.69152811 85.66908252 897.01599918 85.66906748 C890.28226126 85.66899273 883.54852334 85.66885987 876.81478542 85.66865585 C857.99301314 85.66810069 839.17124103 85.66887783 820.34946883 85.67063397 C819.06397923 85.67075299 819.06397923 85.67075299 817.75252015 85.67087441 C790.45781124 85.67348908 763.16310727 85.68182705 735.86840117 85.69434994 C734.9835245 85.69475582 734.09864782 85.6951617 733.1869567 85.69557988 C718.81836395 85.70219684 704.44977137 85.70918769 690.08117881 85.71619731 C633.09345607 85.74397562 576.10575113 85.75726336 519.11802161 85.75589436 C517.31652355 85.75585358 515.5150255 85.75581316 513.71352745 85.75577308 C510.11476569 85.75569272 506.51600393 85.75561118 502.91724216 85.75552887 C494.84762243 85.75534602 486.7780027 85.75517732 478.70838296 85.75503569 C476.92098881 85.75500415 475.13359467 85.75497127 473.34620052 85.75493704 C425.56906746 85.75404595 377.79193681 85.76298672 330.01480556 85.7756415 C329.18041918 85.77586184 328.3460328 85.77608219 327.48636198 85.77630921 C316.16222841 85.77929997 316.16222841 85.77929997 304.83809486 85.78235839 C286.50427001 85.78734534 268.170446 85.79123102 249.83662045 85.79198569 C249.01136306 85.79202075 248.18610567 85.79205581 247.33584048 85.79209193 C244.01017023 85.79223033 240.68449998 85.79236084 237.35882973 85.7924869 C206.47466781 85.79366013 175.59052044 85.80122063 144.70636462 85.82144429 C141.74172994 85.82335934 138.77709525 85.82524602 135.81246054 85.82711095 C135.08491673 85.82757201 134.35737291 85.82803308 133.60778232 85.82850812 C122.11473868 85.8356202 110.62170489 85.83611624 99.12865968 85.83383929 C87.81191587 85.83174457 76.49519886 85.83703924 65.17845992 85.84953954 C59.13173616 85.85602338 53.08505553 85.8594322 47.03832971 85.85401835 C41.52617679 85.84915495 36.01410975 85.85363943 30.50196765 85.86525457 C28.53132538 85.86783244 26.56067511 85.8671562 24.59003637 85.86262136 C6.92098007 85.82526944 -10.92687714 86.53302435 -28.23109949 90.37649983 Z " fill="#202020" transform="translate(1481.918599486351,880.8735001683235)"/>
<path d="M0 0 C240 0 240 0 246 5 C247.78833008 7.51000977 247.78833008 7.51000977 249.26953125 10.19140625 C250.12490479 11.71145264 250.12490479 11.71145264 250.99755859 13.26220703 C251.89595459 14.89585205 251.89595459 14.89585205 252.8125 16.5625 C254.13113449 18.90670221 255.4522566 21.24930255 256.77734375 23.58984375 C257.11840149 24.19449463 257.45945923 24.79914551 257.81085205 25.42211914 C261.67749591 32.25061534 265.77401812 38.93564239 269.875 45.625 C274.54955561 53.26511869 279.15964436 60.91892575 283.47241211 68.77026367 C287.96932008 76.87321287 292.87557377 84.7396797 297.70214844 92.64868164 C301.60586155 99.04717231 305.48024679 105.45883265 309.25 111.9375 C312.8694046 118.15353453 316.63155432 124.27156272 320.4375 130.375 C324.95203371 137.61891721 329.31420751 144.9269306 333.55004883 152.33666992 C337.77969618 159.69899684 342.19950071 166.94214373 346.625 174.1875 C351.48319235 182.14183105 356.27103998 190.11219431 360.76367188 198.28051758 C363.70921817 203.59021543 366.90240875 208.72977478 370.125 213.875 C375.00787018 221.67585737 379.68300263 229.57281154 384.25 237.5625 C391.62494237 250.45496338 399.31693761 263.13730435 407.05761719 275.81152344 C411.27850382 282.74022874 415.43711544 289.70633156 419.60253906 296.66845703 C420.99929671 298.99882662 422.40120007 301.32602194 423.8046875 303.65234375 C428.27304617 311.06579168 432.71432588 318.49313987 437.078125 325.96875 C437.43262222 326.57601929 437.78711945 327.18328857 438.15235901 327.80895996 C438.88000245 329.05565361 439.6076278 330.30235781 440.3352356 331.54907227 C446.20301168 341.6018972 452.15574058 351.58696966 458.32568359 361.45849609 C463.28911777 369.41520556 468.04826971 377.48643996 472.80078125 385.5703125 C477.36697704 393.33493037 482.01467184 401.05052577 486.65820312 408.76904297 C488.60812294 412.01110398 490.55417164 415.25548229 492.5 418.5 C494.88420858 422.47547293 497.27026157 426.44981711 499.66015625 430.421875 C505.75931903 440.56485481 511.81223947 450.73428889 517.83795166 460.92108154 C522.67200204 469.0920622 527.54060605 477.2414849 532.4375 485.375 C537.8186658 494.31498771 543.11495971 503.30105382 548.375 512.3125 C554.09908454 522.117248 559.90687495 531.8659822 565.8125 541.5625 C566.17000336 542.14951691 566.52750671 542.73653381 566.89584351 543.34133911 C568.62944316 546.18711136 570.36392839 549.03234241 572.09863281 551.87744141 C579.12220951 563.41205183 586.02474259 575.01263253 592.8125 586.6875 C603.59722289 605.23330274 614.72618851 623.57118462 625.86987305 641.90258789 C631.4269136 651.04544737 636.94433379 660.21132956 642.43847656 669.39208984 C645.45519573 674.43033158 648.4781982 679.4648057 651.5 684.5 C652.78127378 686.6354024 654.06252409 688.77081888 655.34375 690.90625 C656.271875 692.453125 656.271875 692.453125 657.21875 694.03125 C662.09375 702.15625 662.09375 702.15625 663.55834961 704.59741211 C664.51990946 706.1999033 665.48166096 707.80227952 666.44360352 709.40454102 C669.17404167 713.95315007 671.89980768 718.50450254 674.62109375 723.05859375 C680.55372649 732.97867109 686.51332611 742.87650846 692.625 752.6875 C698.16614787 761.58548371 703.51847075 770.58580899 708.83203125 779.62109375 C711.78168191 784.63630603 714.75650706 789.6358451 717.75 794.625 C718.46965942 795.82443237 718.46965942 795.82443237 719.20385742 797.0480957 C722.13279339 801.91953351 725.08044921 806.77935266 728.0390625 811.6328125 C735.41357106 823.73390728 742.71826168 835.86297023 749.82714844 848.12304688 C754.03320458 855.36855104 758.30923974 862.56933056 762.625 869.75 C763.24463623 870.78157227 763.86427246 871.81314453 764.50268555 872.87597656 C767.52825974 877.90730432 770.56430783 882.93203674 773.61328125 887.94921875 C774.17515137 888.87702148 774.73702148 889.80482422 775.31591797 890.76074219 C776.37233994 892.50458598 777.43238531 894.24624148 778.49658203 895.98535156 C778.9604834 896.75202148 779.42438477 897.51869141 779.90234375 898.30859375 C780.51323853 899.31104126 780.51323853 899.31104126 781.13647461 900.33374023 C782 902 782 902 782 904 C759.28649819 904.09343057 736.57302806 904.16397299 713.85937309 904.20724869 C703.31308444 904.2278762 692.76691516 904.25600048 682.22070312 904.30175781 C673.02890065 904.3416197 663.83718463 904.36743144 654.64529812 904.37635398 C649.77797883 904.38156981 644.91090688 904.39383293 640.04366684 904.42292023 C635.46198536 904.45007904 630.88065303 904.45844404 626.2988987 904.45243073 C624.61788981 904.45353075 622.9368692 904.46148195 621.25592995 904.4768219 C618.95859367 904.49675782 616.66257126 904.49192704 614.36520386 904.48101807 C612.43773473 904.48654882 612.43773473 904.48654882 610.47132683 904.49219131 C604.38444919 903.62914717 600.45589271 899.98383065 596.66015625 895.3046875 C588.75825084 884.33498352 582.56137557 872.0078529 575.87451172 860.26879883 C571.3899578 852.40059727 566.83283916 844.58554263 562.12353516 836.84960938 C559.88110547 833.15803021 557.66034057 829.45339552 555.4375 825.75 C554.93798828 824.91799072 554.43847656 824.08598145 553.92382812 823.22875977 C546.21513902 810.37334471 538.59787735 797.46330238 530.96630859 784.56201172 C521.88796783 769.21607767 512.76301526 753.89950071 503.57470703 738.61914062 C501.54754315 735.24744851 499.523547 731.87386343 497.5 728.5 C497.16105713 727.93531006 496.82211426 727.37062012 496.47290039 726.78881836 C494.21908833 723.03384057 491.96829722 719.27706576 489.71875 715.51953125 C483.38944261 704.95285657 477.03638444 694.40166546 470.6312561 683.88082886 C458.80247561 664.44766346 447.23089172 644.86679937 435.78955078 625.20288086 C432.45784737 619.4814991 429.09084625 613.78596365 425.66430664 608.12084961 C422.45245473 602.7927002 419.31756648 597.42024196 416.1809082 592.04760742 C409.37479937 580.38988882 402.48203133 568.79417802 395.44573975 557.27389526 C389.90547831 548.19821345 384.48328166 539.0592145 379.125 529.875 C373.74268715 520.64995342 368.30296637 511.46826956 362.6875 502.3828125 C356.04568087 491.60444507 349.62319653 480.69068981 343.17456055 469.79614258 C336.67865292 458.82560642 330.13569774 447.88655691 323.5 437 C316.09171743 424.84539106 308.81163276 412.6174892 301.55619812 400.37115479 C301.16898087 399.71757996 300.78176361 399.06400513 300.3828125 398.390625 C300.00183914 397.7475238 299.62086578 397.10442261 299.22834778 396.4418335 C294.65092555 388.71827006 290.02906065 381.02154233 285.40039062 373.32861328 C282.8675983 369.11700707 280.34048051 364.90199554 277.8125 360.6875 C276.81252364 359.02081915 275.81252424 357.35415213 274.8125 355.6875 C269.5625 346.9375 269.5625 346.9375 268.42260742 345.03759766 C267.68328261 343.80544384 266.94386223 342.57334736 266.2043457 341.34130859 C264.48165166 338.4710513 262.76072713 335.59977911 261.04296875 332.7265625 C255.93675965 324.19343296 250.78536674 315.68794797 245.625 307.1875 C245.25125244 306.57169067 244.87750488 305.95588135 244.49243164 305.32141113 C239.29282361 296.75441102 239.29282361 296.75441102 234.0546875 288.2109375 C228.89214153 279.83161641 223.8668841 271.37982526 218.90829468 262.87857056 C208.00625727 244.18871296 196.69793588 225.76805136 185.09570312 207.50341797 C181.67602264 202.1085772 178.35827823 196.66020308 175.10009766 191.16650391 C172.25959674 186.38756194 169.27429943 181.71543384 166.21484375 177.07421875 C165 175 165 175 165 173 C164.34 173 163.68 173 163 173 C163.00048576 174.15495378 163.00097152 175.30990755 163.001472 176.49985993 C163.0263377 237.88916952 163.00586655 299.27824527 162.90820312 360.66748047 C162.90701438 361.41578275 162.90582564 362.16408503 162.90460087 362.93506314 C162.87464091 381.76567294 162.84299084 400.59627978 162.81063638 419.4268856 C162.78924144 431.87895129 162.76832373 444.33101769 162.74781799 456.78308487 C162.74643165 457.62480417 162.7450453 458.46652347 162.74361694 459.33374941 C162.73657119 463.61283981 162.72953263 467.89193022 162.72249681 472.17102064 C162.67335846 502.04858539 162.62333865 531.9261486 162.57275391 561.80371094 C162.52378328 590.7291659 162.47524096 619.65462153 162.42724609 648.58007812 C162.42500501 649.9305824 162.42500501 649.9305824 162.42271865 651.3083696 C162.40770764 660.35445861 162.39270499 669.40054763 162.37770845 678.44663666 C162.34719091 696.8550597 162.31661778 715.26348263 162.28601074 733.67190552 C162.28460525 734.51727001 162.28319976 735.36263451 162.28175168 736.23361611 C162.23889205 762.01079615 162.1957981 787.78797578 162.15246582 813.56515503 C162.15124187 814.29330392 162.15001792 815.0214528 162.14875688 815.7716668 C162.09931879 845.18111145 162.04962773 874.59055567 162 904 C108.54 904 55.08 904 0 904 C0 605.68 0 307.36 0 0 Z " fill="#222222" transform="translate(1513,1309)"/>
<path d="M0 0 C22.86117422 -0.07005369 45.72233076 -0.12297034 68.58359051 -0.15543652 C79.19826023 -0.1709112 89.81286329 -0.19201226 100.42749023 -0.22631836 C109.67824641 -0.25620225 118.92895431 -0.27557062 128.17975742 -0.28226548 C133.07885482 -0.28617945 137.97781412 -0.29539036 142.87686729 -0.31719017 C147.4872322 -0.33753933 152.09740199 -0.34383697 156.70780754 -0.33932304 C158.40051585 -0.34014895 160.09323062 -0.34612396 161.78590012 -0.35761642 C164.09653578 -0.37253619 166.40643417 -0.36895584 168.71708679 -0.36076355 C170.65700013 -0.36491162 170.65700013 -0.36491162 172.63610363 -0.36914349 C176.25945314 0.02847158 178.11286947 0.82091779 181 3 C182.75415039 5.37817383 182.75415039 5.37817383 184.34765625 8.20703125 C184.94666748 9.25737549 185.54567871 10.30771973 186.1628418 11.38989258 C186.789729 12.51935303 187.41661621 13.64881348 188.0625 14.8125 C188.72799439 15.99100311 189.39442913 17.16897567 190.06176758 18.34643555 C194.68022586 26.52231258 199.18470103 34.76217481 203.65283203 43.02099609 C207.9606014 50.9765782 212.43764223 58.82832444 216.9453125 66.671875 C220.09838785 72.15988669 223.2062557 77.67289007 226.3125 83.1875 C231.61689308 92.59542718 237.00221241 101.95483287 242.41113281 111.30297852 C247.04884213 119.32707491 251.61658846 127.38842397 256.16064453 135.46582031 C259.99706183 142.2681778 263.92044877 149.0157684 267.875 155.75 C274.91066529 167.74216339 281.65000627 179.88813636 288.37109375 192.05810547 C290.50009997 195.90320813 292.65164434 199.73523005 294.8125 203.5625 C297.87381371 208.98918022 300.9130283 214.42769569 303.9375 219.875 C304.35862061 220.63321045 304.77974121 221.3914209 305.21362305 222.17260742 C307.24467286 225.83129799 309.27217803 229.49188282 311.29296875 233.15625 C321.36264328 251.3903527 331.73569209 269.45659476 342.25 287.4375 C352.30301737 304.63248389 362.10274012 321.93706964 371.60791016 339.44091797 C381.26379664 357.19135678 391.36771156 374.68703662 401.58203125 392.12109375 C407.59301565 402.38114993 413.52711599 412.67317157 419.3125 423.0625 C429.11574821 441.70958911 429.11574821 441.70958911 441 459 C441.66 459 442.32 459 443 459 C443.27561768 458.4237085 443.55123535 457.84741699 443.83520508 457.25366211 C444.67361353 455.50062625 445.51207953 453.74761791 446.35058594 451.99462891 C447.34253524 449.92028201 448.33405755 447.84573088 449.32519531 445.77099609 C451.75798308 440.67987926 454.1948298 435.590952 456.65234375 430.51171875 C462.82861796 417.72008767 468.76301845 404.827752 474.61035156 391.88330078 C475.21411866 390.54716706 475.81795902 389.21106644 476.421875 387.875 C476.71680847 387.22235672 477.01174194 386.56971344 477.31561279 385.89729309 C479.42086624 381.2498434 481.56842062 376.6233397 483.734375 372.00390625 C486.62779015 365.83220798 489.36180067 359.61168771 492.03125 353.33984375 C493.66512699 349.62935296 495.48344686 346.02409889 497.3125 342.40625 C500.9393748 335.22568899 504.24531442 327.91931761 507.5 320.5625 C508.63495642 318.01223401 509.77250372 315.46312671 510.91015625 312.9140625 C511.44527832 311.71426758 511.98040039 310.51447266 512.53173828 309.27832031 C516.12766276 301.24937552 519.83961632 293.29158154 523.8125 285.44140625 C527.10020162 278.88171424 530.09459144 272.20911297 533.0625 265.5 C537.5367641 255.43684036 542.09392424 245.41794502 546.75 235.4375 C550.51046744 227.37679849 554.24101446 219.30607889 557.875 211.1875 C562.24154235 201.43794787 566.70733311 191.74181355 571.3515625 182.12109375 C577.13905177 170.11866748 582.72217435 158.03989798 588.19973755 145.89407349 C592.95202131 135.36954286 597.87298418 124.94019359 602.9375 114.5625 C607.13051028 105.968978 611.27317807 97.37085495 615.09570312 88.60473633 C617.78394623 82.44275233 620.60418041 76.3464834 623.4375 70.25 C632.29687847 51.15308529 640.84659792 31.91200542 649.36328125 12.66015625 C654.17727277 1.82272723 654.17727277 1.82272723 656 0 C658.32767014 -0.0976134 660.62562019 -0.12997765 662.95375061 -0.12025452 C663.68964446 -0.12110894 664.42553831 -0.12196337 665.18373197 -0.12284368 C667.66816646 -0.12450067 670.15253455 -0.11897356 672.63696289 -0.11352539 C674.41048684 -0.11324354 676.18401091 -0.11340121 677.95753479 -0.1139679 C682.78791017 -0.11425595 687.61826094 -0.1083579 692.44863057 -0.10139394 C697.49085317 -0.09516176 702.53307627 -0.09455671 707.57530212 -0.09336853 C717.13050227 -0.09025481 726.68569103 -0.08204088 736.24088615 -0.07201904 C747.11615433 -0.06085916 757.99142305 -0.05534777 768.86669552 -0.05032361 C791.24447 -0.0398583 813.62223436 -0.02225807 836 0 C834.98428983 5.29941391 833.14471653 9.90719206 831.0625 14.875 C830.63573975 15.89730713 830.20897949 16.91961426 829.76928711 17.97290039 C824.69384701 29.96046581 819.17365777 41.74394732 813.68798828 53.54760742 C809.34767747 62.89006867 805.06094706 72.24673981 800.9375 81.6875 C800.50066895 82.6875708 800.06383789 83.6876416 799.61376953 84.71801758 C798.78765828 86.61146711 797.9619528 88.50509376 797.13671875 90.39892578 C790.95575288 104.54239879 784.46269796 118.54631981 778 132.5625 C777.62285858 133.38099426 777.24571716 134.19948853 776.85714722 135.04278564 C773.12962154 143.12910251 769.38672957 151.20649208 765.55477905 159.24394226 C760.98126393 168.83738547 756.62260539 178.50840501 752.375 188.25 C747.7233783 198.90245724 742.96673222 209.4904323 738 220 C737.61392578 220.81710449 737.22785156 221.63420898 736.83007812 222.47607422 C736.20280538 223.80076701 735.57493616 225.12517762 734.94628906 226.44921875 C731.1251167 234.50534789 727.45787475 242.6234539 723.859375 250.78125 C723.55273926 251.47637695 723.24610352 252.17150391 722.93017578 252.88769531 C722.30696507 254.30292341 721.68556252 255.71894905 721.06591797 257.13574219 C718.38204092 263.23731583 715.51870927 269.24555326 712.625 275.25 C706.64829727 287.65925566 700.89277085 300.15756099 695.3125 312.75 C694.79921143 313.9059668 694.28592285 315.06193359 693.75708008 316.25292969 C690.68456424 323.17868647 687.63161716 330.11280407 684.58959961 337.05200195 C680.69103466 345.94409708 676.73944896 354.79658326 672.58984375 363.57421875 C670.93155664 367.14748114 669.36605399 370.75555954 667.8125 374.375 C664.71398904 381.58426275 661.30388425 388.63045037 657.875 395.6875 C654.28527614 403.08097365 650.92204806 410.38709024 648.12890625 418.1171875 C646.33958375 422.68646087 644.04757821 426.98737961 641.8125 431.3515625 C639.93489177 435.06866511 638.26713687 438.86167551 636.625 442.6875 C634.14378137 448.45913627 631.53122827 454.14898512 628.8125 459.8125 C625.05923558 467.64415966 621.50605932 475.55484838 618 483.5 C614.67758063 491.02736448 611.3246534 498.52644543 607.75 505.9375 C603.37213294 515.04001618 599.28096522 524.26721725 595.1875 533.5 C594.84266571 534.27767731 594.49783142 535.05535461 594.14254761 535.8565979 C591.15124955 542.60550468 588.1669931 549.35751893 585.18457031 556.11035156 C584.07314673 558.62680153 582.96063393 561.14276429 581.84692383 563.65820312 C580.86014435 565.88768102 579.87543489 568.11807689 578.89331055 570.34960938 C576.42598104 575.92409597 573.82998883 581.40059789 571.07397461 586.83789062 C569.79694043 589.40879645 568.68543956 592.02045464 567.625 594.6875 C563.7327102 604.16230942 559.29519594 613.36779857 554.7890625 622.5625 C548.15104839 636.12949288 541.88169686 649.72746521 536.1796875 663.72265625 C533.36771282 670.60472398 530.19842386 677.29070984 527 684 C526.12047837 685.93545161 525.24516112 687.87282197 524.375 689.8125 C522.81195999 693.27681164 521.16648945 696.67809512 519.4375 700.0625 C517.39109853 704.10430228 515.67435917 708.20109339 514.03515625 712.421875 C512.56139589 716.0923725 510.9070966 719.6728634 509.24609375 723.26171875 C508.34145977 725.24964484 507.46716453 727.25146533 506.61157227 729.26098633 C505.12959731 732.72644988 503.56348543 736.1472259 501.96875 739.5625 C501.69156128 740.15748291 501.41437256 740.75246582 501.12878418 741.36547852 C499.95934752 743.87557725 498.78742772 746.38451424 497.61572266 748.89355469 C496.75336022 750.74113141 495.89228206 752.589303 495.03125 754.4375 C494.52142578 755.52933594 494.01160156 756.62117188 493.48632812 757.74609375 C491.93515734 761.14195516 490.46120475 764.56456487 489 768 C488.22196959 769.78859575 487.44211506 771.57639947 486.66015625 773.36328125 C486.23669922 774.33330078 485.81324219 775.30332031 485.37695312 776.30273438 C484.50557476 778.29797071 483.63319026 780.29276796 482.75976562 782.28710938 C480.05812563 788.48161322 477.46824357 794.70878864 475 801 C471.76913589 800.40597327 471.13663572 800.16375817 468.9140625 797.5 C468.1361356 796.34321928 467.37443154 795.17544216 466.625 794 C466.19928711 793.34700928 465.77357422 792.69401855 465.33496094 792.02124023 C460.05424686 783.7576921 455.39139655 775.12901716 450.6484375 766.55078125 C447.14678487 760.23038256 443.53157884 753.98176978 439.875 747.75 C435.49158565 740.27752486 431.15261445 732.78354146 426.875 725.25 C421.99612553 716.66991041 416.95522153 708.19632838 411.85546875 699.74609375 C409.26662716 695.45381685 406.71923586 691.13863898 404.1875 686.8125 C400.09410934 679.82233819 395.927576 672.87762372 391.75 665.9375 C386.13463279 656.6028636 380.60128539 647.22429329 375.12768555 637.8059082 C371.30356193 631.22695036 367.4448897 624.66971828 363.5625 618.125 C358.93903607 610.32605698 354.390394 602.48694978 349.875 594.625 C344.03949617 584.47185353 338.10854069 574.37891336 332.125 564.3125 C331.73439392 563.6552594 331.34378784 562.9980188 330.94134521 562.32086182 C326.74546436 555.2639619 322.53270423 548.21737705 318.3046875 541.1796875 C314.83808081 535.40901443 311.40936207 529.61713394 308 523.8125 C302.90623693 515.16352323 297.72114253 506.57237057 292.5 498 C285.7692427 486.94711413 279.13464531 475.84134244 272.578125 464.68408203 C266.29529027 453.99820873 260.00718279 443.31442222 253.625 432.6875 C253.28001465 432.11306152 252.9350293 431.53862305 252.57958984 430.94677734 C250.8561061 428.07993925 249.12976622 425.21485104 247.40039062 422.3515625 C238.92555287 408.31775792 230.6129543 394.20302585 222.4453125 379.98828125 C216.86106299 370.27033632 211.24640452 360.57196237 205.3125 351.0625 C200.48326945 343.29030277 195.97981425 335.32688412 191.4543457 327.37524414 C188.27191396 321.81253808 184.98592201 316.40753747 181.38085938 311.11035156 C179.04093332 307.53426939 177.07009209 303.76928523 175.0625 300 C170.14923229 290.91959811 164.90384635 282.06669078 159.56225586 273.23291016 C155.68424374 266.81655384 151.86296776 260.37392878 148.125 253.875 C144.72194141 247.96242334 141.2760754 242.08178409 137.75097656 236.24121094 C134.27166776 230.47042996 130.83948951 224.67213247 127.40869141 218.87240601 C121.74120995 209.291799 116.04826305 199.72746632 110.3125 190.1875 C104.63120178 180.7361339 98.99841015 171.25755196 93.3984375 161.7578125 C90.91135187 157.53967976 88.41512841 153.32704137 85.9140625 149.1171875 C73.93777872 128.95375409 73.93777872 128.95375409 69.9375 121.875 C65.77703908 114.52819045 61.40517088 107.31016178 57.05273438 100.07592773 C44.86717097 79.81608061 32.87242366 59.44474053 21 39 C20.49065918 38.12311523 19.98131836 37.24623047 19.45654297 36.34277344 C16.70538756 31.60412213 13.96177052 26.86121095 11.22412109 22.11474609 C10.02753501 20.04756846 8.82156266 17.9861397 7.61328125 15.92578125 C6.8879275 14.67974182 6.1626615 13.43365132 5.4375 12.1875 C4.81746094 11.12917969 4.19742187 10.07085938 3.55859375 8.98046875 C2.01745932 6.03338711 1.01359619 3.15977715 0 0 Z " fill="#232323" transform="translate(1897,1309)"/>
<path d="M0 0 C1.04618678 0.00436926 1.04618678 0.00436926 2.11350864 0.00882679 C2.84940249 0.00797237 3.58529634 0.00711794 4.34349 0.00623763 C6.82792449 0.00458063 9.31229258 0.01010775 11.79672092 0.01555592 C13.57024487 0.01583777 15.34376894 0.0156801 17.11729282 0.01511341 C21.9476682 0.01482535 26.77801897 0.02072341 31.6083886 0.02768737 C36.6506112 0.03391955 41.6928343 0.0345246 46.73506016 0.03571278 C56.2902603 0.0388265 65.84544906 0.04704043 75.40064418 0.05706227 C86.27591236 0.06822215 97.15118108 0.07373354 108.02645355 0.0787577 C130.40422803 0.08922301 152.7819924 0.10682324 175.15975803 0.12908131 C175.15975803 0.45908131 175.15975803 0.78908131 175.15975803 1.12908131 C174.25123459 1.13239146 173.34271114 1.1357016 172.40665668 1.13911206 C150.31545061 1.22027979 128.22431356 1.31235173 106.13320392 1.41660839 C95.45017537 1.46676198 84.7671546 1.51320458 74.08407444 1.55095631 C64.77432267 1.58386435 55.46463079 1.62368899 46.15494508 1.67187136 C41.22408481 1.69714815 36.29326434 1.71892597 31.3623566 1.73242527 C26.72324869 1.7452349 22.08427716 1.76727744 17.44524425 1.7964645 C15.74085376 1.80554888 14.0364413 1.81123251 12.33202785 1.81329495 C10.00798978 1.81661143 7.68433981 1.83207194 5.36038059 1.85060841 C3.40802305 1.85890455 3.40802305 1.85890455 1.41622394 1.86736828 C-1.61320037 2.11083461 -3.30659496 2.5228797 -5.84024197 4.12908131 C-5.84024197 -0.70010679 -4.35486388 0.01378492 0 0 Z " fill="#49474B" transform="translate(2557.8402419686317,1308.8709186911583)"/>
<path d="M0 0 C7.05489146 6.82731432 13.48873197 14.18186655 19.5 21.9375 C19.9333667 22.49308594 20.3667334 23.04867187 20.81323242 23.62109375 C22.69258884 26.0801915 24.01305735 28.03917204 25 31 C24.01 31 23.02 31 22 31 C20.72841339 29.53278468 19.46244416 28.058337 18.2734375 26.5234375 C16.96132035 24.82899746 16.96132035 24.82899746 14.6875 23.3125 C13.8521875 22.6628125 13.8521875 22.6628125 13 22 C13 21.01 13 20.02 13 19 C12.34 19 11.68 19 11 19 C11 18.34 11 17.68 11 17 C10.34 17 9.68 17 9 17 C9 16.34 9 15.68 9 15 C8.34 15 7.68 15 7 15 C3.5428992 11.9750368 1.22750225 9.46364456 0 5 C-0.125 2.1875 -0.125 2.1875 0 0 Z " fill="#3D3C3F" transform="translate(2888,974)"/>
<path d="M0 0 C6.41069287 5.27101414 12.18590512 11.09128152 18 17 C17.34 17.66 16.68 18.32 16 19 C12 19 12 19 10.18359375 17.20703125 C9.60738281 16.41683594 9.03117187 15.62664063 8.4375 14.8125 C7.83292969 13.99007812 7.22835938 13.16765625 6.60546875 12.3203125 C4.95640221 9.93699006 3.4378271 7.51619743 2 5 C1.01755155 3.65368175 0.02323436 2.31558703 -1 1 C-0.67 0.67 -0.34 0.34 0 0 Z " fill="#312F35" transform="translate(1341,2491)"/>
<path d="M0 0 C6.40900977 4.56507679 12.2190161 9.66917468 18 15 C17.34 15.66 16.68 16.32 16 17 C11.38328332 15.77792794 9.43217282 13.38802885 6.55859375 9.8203125 C4.29542851 7.17711701 1.73185974 5.14646122 -1 3 C-0.67 2.01 -0.34 1.02 0 0 Z " fill="#39393A" transform="translate(2862,950)"/>
<path d="M0 0 C1.11375 0.3403125 1.11375 0.3403125 2.25 0.6875 C2.25 1.6775 2.25 2.6675 2.25 3.6875 C3.24 3.3575 4.23 3.0275 5.25 2.6875 C5.8996875 3.3990625 5.8996875 3.3990625 6.5625 4.125 C8.27309613 5.92436957 8.27309613 5.92436957 11.25 6.6875 C11.25 7.3475 11.25 8.0075 11.25 8.6875 C9.703125 9.40234375 9.703125 9.40234375 7.25 9.6875 C4.71142115 8.63358774 2.40504473 7.54784426 0 6.25 C-0.6496875 5.91162109 -1.299375 5.57324219 -1.96875 5.22460938 C-3.56814494 4.38963113 -5.15985859 3.53996886 -6.75 2.6875 C-3.09375 -0.3515625 -3.09375 -0.3515625 0 0 Z " fill="#2C292A" transform="translate(1367.75,2613.3125)"/>
<path d="M0 0 C0.75 1.75 0.75 1.75 1 4 C-0.875 6.0625 -0.875 6.0625 -3 8 C-3.33 8.99 -3.66 9.98 -4 11 C-4.886875 11.433125 -5.77375 11.86625 -6.6875 12.3125 C-10.69877897 14.35598174 -12.94185145 16.72341226 -16 20 C-16.66 19.67 -17.32 19.34 -18 19 C-15.56332397 16.39506131 -13.12551596 13.79118463 -10.6875 11.1875 C-9.99720703 10.44951172 -9.30691406 9.71152344 -8.59570312 8.95117188 C-7.92861328 8.23896484 -7.26152344 7.52675781 -6.57421875 6.79296875 C-5.65515747 5.81106567 -5.65515747 5.81106567 -4.7175293 4.80932617 C-3.16996771 3.17905198 -1.59789755 1.58078486 0 0 Z " fill="#454547" transform="translate(1289,965)"/>
<path d="M0 0 C4.06143328 4.36228019 9 11.82240131 9 18 C8.01 18.33 7.02 18.66 6 19 C5 17 4 15 3 13 C2.443125 12.00806641 2.443125 12.00806641 1.875 10.99609375 C-1.05316344 5.63796134 -1.05316344 5.63796134 -0.75 2 C-0.5025 1.34 -0.255 0.68 0 0 Z " fill="#38383B" transform="translate(2936,1042)"/>
<path d="M0 0 C1 3 1 3 0.25 4.875 C-0.1625 5.57625 -0.575 6.2775 -1 7 C-1.45375 7.886875 -1.9075 8.77375 -2.375 9.6875 C-4 12 -4 12 -5.8671875 12.421875 C-8.63611899 13.17242786 -9.79395017 14.49360114 -11.75 16.5625 C-12.36359375 17.20316406 -12.9771875 17.84382813 -13.609375 18.50390625 C-14.06828125 18.99761719 -14.5271875 19.49132813 -15 20 C-15.66 19.67 -16.32 19.34 -17 19 C-16.52691406 18.55011719 -16.05382813 18.10023438 -15.56640625 17.63671875 C-9.89833878 12.12333539 -4.91427465 6.18834586 0 0 Z " fill="#424043" transform="translate(2833,2484)"/>
<path d="M0 0 C1.24546405 2.49092811 0.7767578 3.41080733 0 6 C-4.76350585 5.28547412 -9.34201396 4.20465156 -14 3 C-12.67661368 2.31379969 -11.34050052 1.65213539 -10 1 C-9.195625 0.608125 -8.39125 0.21625 -7.5625 -0.1875 C-4.5775503 -1.13394747 -2.95050487 -0.98350162 0 0 Z " fill="#332E2E" transform="translate(1422,2633)"/>
<path d="M0 0 C0.5775 0.495 1.155 0.99 1.75 1.5 C4.10400629 3.36980013 4.10400629 3.36980013 8 3 C8.99 3.66 9.98 4.32 11 5 C11 5.99 11 6.98 11 8 C9.02 8.99 9.02 8.99 7 10 C5.82438854 8.90536178 4.6597511 7.79892814 3.5 6.6875 C2.52546875 5.76517578 2.52546875 5.76517578 1.53125 4.82421875 C0 3 0 3 0 0 Z " fill="#292526" transform="translate(1274,2545)"/>
<path d="M0 0 C1.75270441 2.62905661 2.96869839 4.97979619 4.1875 7.875 C4.55230469 8.71804687 4.91710938 9.56109375 5.29296875 10.4296875 C6.09711128 13.35303439 5.81264813 15.11173467 5 18 C2.6295937 16.24131145 1.19300445 14.8276031 0.51171875 11.90625 C0.06926698 7.94399538 -0.12862493 3.98737288 0 0 Z " fill="#424245" transform="translate(1297,2416)"/>
<path d="M0 0 C0 3 0 3 -2 5.4375 C-4.41018057 7.98377704 -4.41018057 7.98377704 -4 12 C-6.5 13.75 -6.5 13.75 -9 15 C-9.83299738 12.66760733 -10.16905193 11.44835511 -9.28125 9.09375 C-7.77564022 6.63336329 -6.08139486 5.10052472 -3.875 3.25 C-3.15054687 2.63640625 -2.42609375 2.0228125 -1.6796875 1.390625 C-0.84824219 0.70226562 -0.84824219 0.70226562 0 0 Z " fill="#222124" transform="translate(1299,956)"/>
<path d="M0 0 C0.99 0.33 1.98 0.66 3 1 C-0.3810038 5.13621084 -3.66590534 8.81316569 -8 12 C-8.33 11.34 -8.66 10.68 -9 10 C-5.89677892 3.5636896 -5.89677892 3.5636896 -2.8125 1.625 C-2.214375 1.41875 -1.61625 1.2125 -1 1 C-0.67 0.67 -0.34 0.34 0 0 Z " fill="#3E3E3C" transform="translate(1350,1025)"/>
<path d="M0 0 C3.78699616 3.36621881 6.8272631 7.41641804 9 12 C8.67 12.66 8.34 13.32 8 14 C3.58199268 12.52733089 2.36183301 10.03797256 0 6 C-0.25 2.625 -0.25 2.625 0 0 Z " fill="#404042" transform="translate(2920,1015)"/>
<path d="M0 0 C2.75566251 2.75566251 2.45934233 5.21539633 3 9 C3.66 9.66 4.32 10.32 5 11 C5.51999304 15.97959436 5.29205445 21.15479581 4 26 C3.67 26 3.34 26 3 26 C2.92652344 24.87464844 2.92652344 24.87464844 2.8515625 23.7265625 C2.41484828 17.74809547 1.73727452 12.00266211 0.40234375 6.15625 C0 4 0 4 0 0 Z " fill="#464345" transform="translate(2880,1144)"/>
<path d="M0 0 C2.16099373 2.16099373 2.71563716 3.5210418 3.6875 6.375 C3.95949219 7.14585938 4.23148438 7.91671875 4.51171875 8.7109375 C5.04278009 11.20055308 4.81115526 12.61553018 4 15 C3.01 14.67 2.02 14.34 1 14 C0.63495397 12.41913952 0.28339494 10.83516093 -0.0625 9.25 C-0.25972656 8.36828125 -0.45695312 7.4865625 -0.66015625 6.578125 C-0.99825872 4.01320972 -0.81158635 2.42908361 0 0 Z " fill="#48464B" transform="translate(2952,1078)"/>
<path d="M0 0 C1.32 0 2.64 0 4 0 C4 0.99 4 1.98 4 3 C5.32 2.67 6.64 2.34 8 2 C8 2.66 8 3.32 8 4 C8.66 4 9.32 4 10 4 C10 4.99 10 5.98 10 7 C11.43750191 8.68798827 11.43750191 8.68798827 13 10 C12.34 10.66 11.68 11.32 11 12 C9.16364422 10.19047409 7.33083792 8.37759362 5.5 6.5625 C4.97535156 6.04623047 4.45070313 5.52996094 3.91015625 4.99804688 C2.58775448 3.68423213 1.29164432 2.34406495 0 1 C0 0.67 0 0.34 0 0 Z " fill="#302B2D" transform="translate(2813,1023)"/>
<path d="M0 0 C0.33 0.99 0.66 1.98 1 3 C0.02641257 4.78491028 -0.95595917 6.56741759 -2.03125 8.29296875 C-3.13386052 10.0079636 -3.13386052 10.0079636 -3.375 12.25 C-4 14 -4 14 -7.0625 15.75 C-8.031875 16.1625 -9.00125 16.575 -10 17 C-8.51364884 12.78345644 -6.38750841 9.37521395 -3.875 5.6875 C-3.15054687 4.61886719 -2.42609375 3.55023437 -1.6796875 2.44921875 C-0.84824219 1.23685547 -0.84824219 1.23685547 0 0 Z " fill="#413F41" transform="translate(1249,1013)"/>
<path d="M0 0 C0.66 0.33 1.32 0.66 2 1 C-1.625 6.75 -1.625 6.75 -5 9 C-5.99 9 -6.98 9 -8 9 C-8.33 9.66 -8.66 10.32 -9 11 C-9.99 10.34 -10.98 9.68 -12 9 C-8.04 6.03 -4.08 3.06 0 0 Z " fill="#38383A" transform="translate(1335,928)"/>
<path d="M0 0 C0.66 0 1.32 0 2 0 C1.9375 2.3125 1.9375 2.3125 1 5 C-1.31104818 6.05047644 -3.64583651 7.05007438 -6 8 C-7.4818964 10.0351761 -7.4818964 10.0351761 -8 12 C-9.32 11.34 -10.64 10.68 -12 10 C-10.82630859 9.04287109 -10.82630859 9.04287109 -9.62890625 8.06640625 C-8.61699219 7.24011719 -7.60507813 6.41382812 -6.5625 5.5625 C-5.55316406 4.73878906 -4.54382812 3.91507813 -3.50390625 3.06640625 C-1.70216039 1.58798996 -1.70216039 1.58798996 0 0 Z " fill="#414143" transform="translate(2813,2505)"/>
<path d="M0 0 C2.72426311 2.35277269 3.8141763 4.62496331 5 8 C4.01 8.33 3.02 8.66 2 9 C-1.1875 7.1875 -1.1875 7.1875 -4 5 C-4 4.34 -4 3.68 -4 3 C-3.01 2.67 -2.02 2.34 -1 2 C-0.67 1.34 -0.34 0.68 0 0 Z " fill="#2A292B" transform="translate(2285,2196)"/>
<path d="M0 0 C0.33 1.98 0.66 3.96 1 6 C-4.23880078 5.44854729 -8.97350697 4.57077907 -14 3 C-10.94736336 2.01879536 -9.05263664 2.01879536 -6 3 C-6 2.34 -6 1.68 -6 1 C-3.92446352 0.4465236 -2.15634036 0 0 0 Z " fill="#4A4746" transform="translate(1436,2637)"/>
<path d="M0 0 C2.61509191 2.61509191 2.65744789 4.51360479 3.046875 8.08984375 C3 10 3 10 1.5625 12 C1.046875 12.33 0.53125 12.66 0 13 C-1.625 10.75 -1.625 10.75 -3 8 C-2.25 5.9375 -2.25 5.9375 -1 4 C-0.63215869 2.6757713 -0.28797019 1.34386088 0 0 Z " fill="#312D2F" transform="translate(1781,1641)"/>
<path d="M0 0 C0.8125 1.6875 0.8125 1.6875 1 4 C-1.3125 6.625 -1.3125 6.625 -4 9 C-6.22189824 11.22189824 -6.92598892 13.08482708 -8 16 C-8.99 15.34 -9.98 14.68 -11 14 C-9.35504034 11.85349184 -7.70907674 9.70776711 -6.0625 7.5625 C-5.59392578 6.95083984 -5.12535156 6.33917969 -4.64257812 5.70898438 C-1.11328125 1.11328125 -1.11328125 1.11328125 0 0 Z " fill="#49484B" transform="translate(2845,2469)"/>
<path d="M0 0 C0.33 0 0.66 0 1 0 C1.36305732 5.44585987 1.36305732 5.44585987 -0.1875 7.8125 C-2.42031739 9.27538036 -4.37344067 9.64505955 -7 10 C-5.32971708 6.05205855 -2.8204435 3.18203882 0 0 Z " fill="#2F2E30" transform="translate(1269,987)"/>
<path d="M0 0 C4.83256305 0.41421969 6.82679218 2.46413986 10 6 C9.01 6.66 8.02 7.32 7 8 C5.02 6.68 3.04 5.36 1 4 C1.33 3.01 1.66 2.02 2 1 C1.34 0.67 0.68 0.34 0 0 Z " fill="#2E2D30" transform="translate(1360,2512)"/>
<path d="M0 0 C1.09375 3.734375 1.09375 3.734375 0.25 6.125 C-1 8 -1 8 -4 10 C-5.20450304 12.55183404 -5.20450304 12.55183404 -6 15 C-6.99 14.67 -7.98 14.34 -9 14 C-6.28316728 9.06945173 -3.33342102 4.53715638 0 0 Z " fill="#3D3C3F" transform="translate(1259,999)"/>
<path d="M0 0 C0.66 0.33 1.32 0.66 2 1 C2 5.33685836 -0.08014014 6.9443327 -3 10 C-3.99 10 -4.98 10 -6 10 C-4.79157144 5.56909529 -3.48331435 3.01887244 0 0 Z " fill="#313033" transform="translate(1308,948)"/>
<path d="M0 0 C2.34914492 2.34914492 2.73140357 3.95679446 3.625 7.125 C3.88539063 8.03507812 4.14578125 8.94515625 4.4140625 9.8828125 C4.70410156 10.93082031 4.70410156 10.93082031 5 12 C3.68 12 2.36 12 1 12 C-0.80619523 7.53763531 -1.11658501 4.68965706 0 0 Z " fill="#48484D" transform="translate(2947,1065)"/>
<path d="M0 0 C0 0.99 0 1.98 0 3 C-1.24176695 3.70226141 -2.49385599 4.38629109 -3.75 5.0625 C-4.79414062 5.63677734 -4.79414062 5.63677734 -5.859375 6.22265625 C-8.36140628 7.1312406 -9.5332355 6.88336837 -12 6 C-8.59780735 3.25207517 -4.51535412 0 0 0 Z " fill="#39393B" transform="translate(1362,914)"/>
<path d="M0 0 C0 2.31 0 4.62 0 7 C-2.99324263 5.9024777 -3.84610901 5.32317108 -5.25 2.375 C-5.4975 1.59125 -5.745 0.8075 -6 0 C-3 -1 -3 -1 0 0 Z " fill="#181617" transform="translate(2370,2101)"/>
<path d="M0 0 C2.61885488 2.36944013 4.41866551 4.83733102 6 8 C5.67 8.99 5.34 9.98 5 11 C3.68 10.34 2.36 9.68 1 9 C1 8.01 1 7.02 1 6 C0.68578929 3.99690671 0.3548954 1.99628664 0 0 Z " fill="#38383B" transform="translate(1811,1404)"/>
<path d="M0 0 C2 1 2 1 2.625 2.625 C3.12095645 5.7660575 3.06103811 8.82601831 3 12 C2.01 12.495 2.01 12.495 1 13 C0.63901937 11.02206479 0.28638652 9.04260427 -0.0625 7.0625 C-0.25972656 5.96035156 -0.45695312 4.85820313 -0.66015625 3.72265625 C-0.77230469 2.82417969 -0.88445313 1.92570312 -1 1 C-0.67 0.67 -0.34 0.34 0 0 Z " fill="#333032" transform="translate(2879,1131)"/>
<path d="M0 0 C0.99 0.33 1.98 0.66 3 1 C1.68 4.63 0.36 8.26 -1 12 C-1.66 11.34 -2.32 10.68 -3 10 C-2.67342446 6.24438133 -1.8830622 3.26397448 0 0 Z " fill="#2D2D2F" transform="translate(1297,1104)"/>
<path d="M0 0 C1.32 0.66 2.64 1.32 4 2 C2.02 4.64 0.04 7.28 -2 10 C-2.66 9.67 -3.32 9.34 -4 9 C-3.690625 8.4225 -3.38125 7.845 -3.0625 7.25 C-2.07330775 5.15523995 -1.54058583 3.23956987 -1 1 C-0.67 0.67 -0.34 0.34 0 0 Z " fill="#32312F" transform="translate(1333,1042)"/>
<path d="M0 0 C0 0.66 0 1.32 0 2 C1.32 2.66 2.64 3.32 4 4 C3.67 4.66 3.34 5.32 3 6 C2.34 5.67 1.68 5.34 1 5 C0.67 5.99 0.34 6.98 0 8 C-4 3.25 -4 3.25 -4 1 C-2 0 -2 0 0 0 Z " fill="#2C2729" transform="translate(1265,2529)"/>
<path d="M0 0 C0.33 0.66 0.66 1.32 1 2 C1.66 2.33 2.32 2.66 3 3 C2.01 4.1446875 2.01 4.1446875 1 5.3125 C-1.29850538 7.84277939 -1.29850538 7.84277939 -1 11 C-2.98 11.99 -2.98 11.99 -5 13 C-4.54554036 11.58208592 -4.08625056 10.16571954 -3.625 8.75 C-3.24214844 7.56664062 -3.24214844 7.56664062 -2.8515625 6.359375 C-2.04826333 4.13372042 -1.10288338 2.09068328 0 0 Z " fill="#424041" transform="translate(1227,1052)"/>
<path d="M0 0 C1 3 1 3 0.25 4.875 C-0.1625 5.57625 -0.575 6.2775 -1 7 C-1.7425 8.36125 -1.7425 8.36125 -2.5 9.75 C-3.2425 10.86375 -3.2425 10.86375 -4 12 C-4.66 12 -5.32 12 -6 12 C-5.57405412 10.55903414 -5.13373367 9.12231288 -4.6875 7.6875 C-4.44386719 6.88699219 -4.20023438 6.08648438 -3.94921875 5.26171875 C-2.95817977 2.90035427 -1.91925057 1.66120007 0 0 Z " fill="#38373A" transform="translate(2833,2484)"/>
<path d="M0 0 C2.60018816 3.90028225 2.15085514 7.47434569 2 12 C1.01 12.33 0.02 12.66 -1 13 C-1.07654536 8.48382401 -1.10228696 4.40914783 0 0 Z " fill="#423E42" transform="translate(1201,1140)"/>
<path d="M0 0 C0.33 0.66 0.66 1.32 1 2 C-1.33333333 4.33333333 -3.66666667 6.66666667 -6 9 C-6.99 8.67 -7.98 8.34 -9 8 C-6.14723863 5.06799526 -3.34920216 2.35684596 0 0 Z " fill="#3B3A3D" transform="translate(1319,940)"/>
<path d="M0 0 C1.98 0.495 1.98 0.495 4 1 C3.67 3.64 3.34 6.28 3 9 C0.9375 6.75 0.9375 6.75 -1 4 C-0.75 1.6875 -0.75 1.6875 0 0 Z " fill="#312E2F" transform="translate(1947,1926)"/>
<path d="M0 0 C2.96404505 2.80804268 5.44499019 5.18315774 7 9 C5.35 8.67 3.7 8.34 2 8 C0 2.25 0 2.25 0 0 Z " fill="#464547" transform="translate(2913,1005)"/>
<path d="M0 0 C2.24973447 -0.054138 4.49984383 -0.09285491 6.75 -0.125 C8.00296875 -0.14820313 9.2559375 -0.17140625 10.546875 -0.1953125 C13.72820492 -0.01537302 15.36521896 0.31001418 18 2 C13.77897638 3.13673517 10.47303491 2.79839993 6.1875 2.0625 C5.02605469 1.86785156 3.86460937 1.67320312 2.66796875 1.47265625 C1.34732422 1.23869141 1.34732422 1.23869141 0 1 C0 0.67 0 0.34 0 0 Z " fill="#555250" transform="translate(2688,967)"/>
<path d="M0 0 C2.9375 0.8125 2.9375 0.8125 6 2 C6.33 2.99 6.66 3.98 7 5 C5.1875 5.6875 5.1875 5.6875 3 6 C1.25 4.75 1.25 4.75 0 3 C0 2.01 0 1.02 0 0 Z " fill="#312F32" transform="translate(1414,2544)"/>
<path d="M0 0 C0.33 0.99 0.66 1.98 1 3 C-3.75 7 -3.75 7 -6 7 C-5.6875 4.625 -5.6875 4.625 -5 2 C-2 0 -2 0 0 0 Z " fill="#393839" transform="translate(2790,2525)"/>
<path d="M0 0 C2.32472205 2.85306797 3.7508258 5.54074837 5 9 C3.125 8.75 3.125 8.75 1 8 C-0.3125 6.1875 -0.3125 6.1875 -1 4 C-0.625 1.75 -0.625 1.75 0 0 Z " fill="#424144" transform="translate(2191,1512)"/>
<path d="M0 0 C2.15377564 2.62198774 3.40072174 4.64404172 4 8 C2.35 7.67 0.7 7.34 -1 7 C-1.33 5.35 -1.66 3.7 -2 2 C-1.34 2 -0.68 2 0 2 C0 1.34 0 0.68 0 0 Z " fill="#3A393A" transform="translate(2931,1032)"/>
<path d="M0 0 C2.72426311 2.35277269 3.8141763 4.62496331 5 8 C3.35 7.67 1.7 7.34 0 7 C-1.04449911 3.86650268 -0.93423645 3.01031744 0 0 Z " fill="#3A393D" transform="translate(2206,2064)"/>
<path d="M0 0 C0.6875 1.8125 0.6875 1.8125 1 4 C-0.64504011 6.46756016 -1.80299352 6.94960299 -4.6875 7.6875 C-5.8321875 7.8421875 -5.8321875 7.8421875 -7 8 C-6.02133662 6.85373678 -5.04205413 5.70800212 -4.0625 4.5625 C-3.51722656 3.92441406 -2.97195313 3.28632812 -2.41015625 2.62890625 C-1.63204305 1.73008851 -0.84063472 0.84063472 0 0 Z " fill="#4B4B4C" transform="translate(1289,965)"/>
<path d="M0 0 C1.423125 0.495 1.423125 0.495 2.875 1 C5.77062452 2.10159191 5.77062452 2.10159191 8 2 C7.67 3.32 7.34 4.64 7 6 C4.625 5.8125 4.625 5.8125 2 5 C0.6875 2.4375 0.6875 2.4375 0 0 Z " fill="#312D2E" transform="translate(1984,1992)"/>
<path d="M0 0 C1.5625 1.8125 1.5625 1.8125 3 4 C2.67 4.99 2.34 5.98 2 7 C0.68 6.34 -0.64 5.68 -2 5 C-2 3.68 -2 2.36 -2 1 C-1.34 0.67 -0.68 0.34 0 0 Z " fill="#3A3B3C" transform="translate(2151,1442)"/>
<path d="M0 0 C0 3.92823101 -1.51754449 5.06618894 -4 8 C-4.33 8.66 -4.66 9.32 -5 10 C-6.32 9.34 -7.64 8.68 -9 8 C-6.03 5.36 -3.06 2.72 0 0 Z " fill="#3F3D3F" transform="translate(1299,956)"/>
<path d="M0 0 C1.65 0 3.3 0 5 0 C4.21625 0.7425 3.4325 1.485 2.625 2.25 C0.43495469 4.54433318 -0.82731386 6.12158858 -2 9 C-3 6 -3 6 -1.5625 2.8125 C-1.046875 1.884375 -0.53125 0.95625 0 0 Z " fill="#413F40" transform="translate(2449,1533)"/>
<path d="M0 0 C4 4.75 4 4.75 4 7 C3.01 7.33 2.02 7.66 1 8 C0.01 6.02 -0.98 4.04 -2 2 C-1.34 2 -0.68 2 0 2 C0 1.34 0 0.68 0 0 Z " fill="#353537" transform="translate(1819,1417)"/>
<path d="M0 0 C0.66 0.33 1.32 0.66 2 1 C1.25 5.75 1.25 5.75 -1 8 C-1.66 7.67 -2.32 7.34 -3 7 C-1.125 1.125 -1.125 1.125 0 0 Z " fill="#3A3A3A" transform="translate(2405,2027)"/>
<path d="M0 0 C1.37562854 1.28965176 2.70766393 2.62689293 4 4 C4 4.66 4 5.32 4 6 C3.01 6.33 2.02 6.66 1 7 C0.67 6.01 0.34 5.02 0 4 C-0.66 3.67 -1.32 3.34 -2 3 C-1.34 2.01 -0.68 1.02 0 0 Z " fill="#3B3B3D" transform="translate(2087,1866)"/>
<path d="M0 0 C2 2 2 2 2 5 C1.01 5.66 0.02 6.32 -1 7 C-1.33 7.99 -1.66 8.98 -2 10 C-2.66 9.67 -3.32 9.34 -4 9 C-2.68 6.03 -1.36 3.06 0 0 Z " fill="#4A4849" transform="translate(2396,1648)"/>
<path d="M0 0 C0.99 0.99 1.98 1.98 3 3 C2.67 3.99 2.34 4.98 2 6 C-0.475 5.01 -0.475 5.01 -3 4 C-3 3.34 -3 2.68 -3 2 C-2.01 1.34 -1.02 0.68 0 0 Z " fill="#353537" transform="translate(1933,1608)"/>
<path d="M0 0 C4 4.75 4 4.75 4 7 C1.525 6.01 1.525 6.01 -1 5 C-1 1 -1 1 0 0 Z " fill="#3A393C" transform="translate(2128,1402)"/>
<path d="M0 0 C0.66 0.33 1.32 0.66 2 1 C2.625 4.0625 2.625 4.0625 3 7 C2.01 7.495 2.01 7.495 1 8 C0.34 7.34 -0.32 6.68 -1 6 C-0.67 5.67 -0.34 5.34 0 5 C-0.66 4.34 -1.32 3.68 -2 3 C-1.34 2.01 -0.68 1.02 0 0 Z " fill="#302E2F" transform="translate(2772,987)"/>
<path d="M0 0 C3.465 1.98 3.465 1.98 7 4 C6.34 4.66 5.68 5.32 5 6 C2.875 5.625 2.875 5.625 1 5 C0.67 3.35 0.34 1.7 0 0 Z " fill="#333335" transform="translate(2831,928)"/>
<path d="M0 0 C2 4 2 4 1.3125 6.125 C0 8 0 8 -3 10 C-2.01 6.7 -1.02 3.4 0 0 Z " fill="#4A4949" transform="translate(2869,2422)"/>
<path d="M0 0 C2.45823172 3.68734758 3.01242616 6.69699971 4 11 C1.28243094 9.64121547 0.2853227 7.83002969 -0.6875 5 C-1 3 -1 3 0 0 Z " fill="#5B5B5D" transform="translate(1293,2404)"/>
<path d="M0 0 C0.99 0 1.98 0 3 0 C2.67 3.96 2.34 7.92 2 12 C1.67 12 1.34 12 1 12 C0.67 8.04 0.34 4.08 0 0 Z " fill="#545153" transform="translate(1202,2394)"/>
<path d="M0 0 C2.1991413 4.39828259 2.51855059 7.18550592 3 12 C2.67 11.34 2.34 10.68 2 10 C1.34 10 0.68 10 0 10 C0 6.7 0 3.4 0 0 Z " fill="#5D5C60" transform="translate(1288,2382)"/>
<path d="M0 0 C0.97353743 3.02878312 1.24612776 5.02846457 0 8 C-2.0625 9.75 -2.0625 9.75 -4 11 C-2.7874262 7.27566618 -1.49140021 3.62197194 0 0 Z " fill="#4A4848" transform="translate(2489,1446)"/>
<path d="M0 0 C-5.2734375 3.22265625 -5.2734375 3.22265625 -7 4 C-7.66 3.67 -8.32 3.34 -9 3 C-9 2.34 -9 1.68 -9 1 C-5.57367167 -0.61798838 -3.61944899 -1.34053666 0 0 Z " fill="#2E2D2A" transform="translate(2846,2592)"/>
<path d="M0 0 C1.875 0.125 1.875 0.125 4 1 C5.25 4.0625 5.25 4.0625 6 7 C5.01 7 4.02 7 3 7 C2.01 4.69 1.02 2.38 0 0 Z " fill="#342F31" transform="translate(2126,1699)"/>
<path d="M0 0 C2 3 2 3 1.625 5.1875 C1.41875 5.785625 1.2125 6.38375 1 7 C-0.32 7.33 -1.64 7.66 -3 8 C-1.125 2.25 -1.125 2.25 0 0 Z " fill="#525051" transform="translate(2481,1464)"/>
<path d="M0 0 C0.66 0.99 1.32 1.98 2 3 C1.1875 4.9375 1.1875 4.9375 0 7 C-0.99 7.33 -1.98 7.66 -3 8 C-1.125 2.25 -1.125 2.25 0 0 Z " fill="#3F3C3D" transform="translate(2497,1430)"/>
<path d="M0 0 C4.8 2.46153846 4.8 2.46153846 5.8125 5.1875 C5.874375 5.785625 5.93625 6.38375 6 7 C5.01 7 4.02 7 3 7 C0 2.77777778 0 2.77777778 0 0 Z " fill="#302F30" transform="translate(1753,1310)"/>
<path d="M0 0 C1.65 0.99 3.3 1.98 5 3 C4.01 3.99 3.02 4.98 2 6 C0.68 5.01 -0.64 4.02 -2 3 C-1.34 2.01 -0.68 1.02 0 0 Z " fill="#3E3D40" transform="translate(2846,938)"/>
<path d="M0 0 C3.465 1.485 3.465 1.485 7 3 C6.67 3.66 6.34 4.32 6 5 C4.35 4.67 2.7 4.34 1 4 C0.67 2.68 0.34 1.36 0 0 Z " fill="#363437" transform="translate(1400,2537)"/>
<path d="M0 0 C0.33 0.66 0.66 1.32 1 2 C0.06553465 4.03144641 -0.93224776 6.03533587 -2 8 C-2.66 6.68 -3.32 5.36 -4 4 C-2.68 2.68 -1.36 1.36 0 0 Z " fill="#484848" transform="translate(2412,2016)"/>
<path d="M0 0 C0.66 0 1.32 0 2 0 C1.34 2.31 0.68 4.62 0 7 C-0.99 6.67 -1.98 6.34 -3 6 C-1.125 1.125 -1.125 1.125 0 0 Z " fill="#393939" transform="translate(2431,1971)"/>
<path d="M0 0 C4 4.75 4 4.75 4 7 C3.01 7.33 2.02 7.66 1 8 C0 7 0 7 -0.0625 3.4375 C-0.041875 2.303125 -0.02125 1.16875 0 0 Z " fill="#434345" transform="translate(2033,1775)"/>
<path d="M0 0 C1.65 1.32 3.3 2.64 5 4 C4.34 5.32 3.68 6.64 3 8 C0 3.375 0 3.375 0 0 Z " fill="#373133" transform="translate(1840,1749)"/>
<path d="M0 0 C1.32 1.65 2.64 3.3 4 5 C3.67 5.66 3.34 6.32 3 7 C2.01 7 1.02 7 0 7 C-0.66 5.35 -1.32 3.7 -2 2 C-1.34 2 -0.68 2 0 2 C0 1.34 0 0.68 0 0 Z " fill="#3E3E40" transform="translate(2307,1717)"/>
<path d="M0 0 C3 1 3 1 4.1875 3.0625 C4.455625 3.701875 4.72375 4.34125 5 5 C4.01 5.495 4.01 5.495 3 6 C1.35 4.68 -0.3 3.36 -2 2 C-1.34 2 -0.68 2 0 2 C0 1.34 0 0.68 0 0 Z " fill="#3B393B" transform="translate(2789,1001)"/>
<path d="M0 0 C0 0.66 0 1.32 0 2 C0.99 2 1.98 2 3 2 C3 2.99 3 3.98 3 5 C0.08482708 3.92598892 -1.77810176 3.22189824 -4 1 C-2 0 -2 0 0 0 Z " fill="#282627" transform="translate(1354,2608)"/>
<path d="M0 0 C0.66 0.33 1.32 0.66 2 1 C1.67 2.32 1.34 3.64 1 5 C0.01 5 -0.98 5 -2 5 C-2.33 4.01 -2.66 3.02 -3 2 C-2.01 1.34 -1.02 0.68 0 0 Z " fill="#332F30" transform="translate(1269,2535)"/>
<path d="M0 0 C1.32 0.33 2.64 0.66 4 1 C4.33 2.65 4.66 4.3 5 6 C4.01 6.495 4.01 6.495 3 7 C0 2.25 0 2.25 0 0 Z " fill="#363334" transform="translate(2172,1776)"/>
<path d="M0 0 C0.99 0 1.98 0 3 0 C4.0625 1.75 4.0625 1.75 5 4 C4.67 5.32 4.34 6.64 4 8 C2.68 5.36 1.36 2.72 0 0 Z " fill="#393536" transform="translate(1827,1729)"/>
<path d="M0 0 C2.97 1.98 2.97 1.98 6 4 C5.01 4.99 4.02 5.98 3 7 C0 3.375 0 3.375 0 0 Z " fill="#2C292A" transform="translate(2105,1661)"/>
<path d="M0 0 C3 1 3 1 4.25 2.8125 C5.11637742 5.33943414 4.88492145 6.52221994 4 9 C0 2.25 0 2.25 0 0 Z " fill="#3A3536" transform="translate(2045,1561)"/>
<path d="M0 0 C0.33 0.99 0.66 1.98 1 3 C0.01 3.495 0.01 3.495 -1 4 C-0.67 2.68 -0.34 1.36 0 0 Z M-2 4 C-1.34 4.33 -0.68 4.66 0 5 C-0.66 6.32 -1.32 7.64 -2 9 C-2.66 8.34 -3.32 7.68 -4 7 C-3.34 6.01 -2.68 5.02 -2 4 Z " fill="#30302E" transform="translate(1345,1028)"/>
<path d="M0 0 C1 3 1 3 0.3125 5.125 C-1 7 -1 7 -3.125 7.75 C-4.053125 7.87375 -4.053125 7.87375 -5 8 C-3.62845496 5.04590299 -2.01136276 2.55991624 0 0 Z " fill="#4C4B4D" transform="translate(1267,989)"/>
<path d="M0 0 C0.66 0.33 1.32 0.66 2 1 C2 1.99 2 2.98 2 4 C0.125 4.625 0.125 4.625 -2 5 C-2.66 4.34 -3.32 3.68 -4 3 C-2.68 2.01 -1.36 1.02 0 0 Z " fill="#3A393C" transform="translate(1341,924)"/>
</svg>
