<?xml version="1.0" encoding="UTF-8"?>
<svg version="1.1" xmlns="http://www.w3.org/2000/svg" width="4096" height="3432">
<path d="M0 0 C1351.68 0 2703.36 0 4096 0 C4096 1132.56 4096 2265.12 4096 3432 C2744.32 3432 1392.64 3432 0 3432 C0 2299.44 0 1166.88 0 0 Z " fill="#FEFEFE" transform="translate(0,0)"/>
<path d="M0 0 C266 0 266 0 272 5 C273.46875 6.94677734 273.46875 6.94677734 274.5 8.8359375 C275.10654419 9.91875 275.10654419 9.91875 275.7253418 11.0234375 C276.145979 11.79945312 276.56661621 12.57546875 277 13.375 C277.96230093 15.09257297 278.92726378 16.80865657 279.89453125 18.5234375 C280.39936035 19.4215918 280.90418945 20.31974609 281.42431641 21.24511719 C284.08086214 25.88975028 286.88692903 30.44127086 289.6875 35 C294.9813906 43.64953654 300.20454228 52.33881735 305.375 61.0625 C306.01655029 62.14337891 306.65810059 63.22425781 307.3190918 64.33789062 C310.58269414 69.85345861 313.80067441 75.39170102 316.96484375 80.96484375 C320.56868847 87.30406633 324.31925375 93.54684387 328.12649536 99.7663269 C334.40026041 110.01760883 340.58319558 120.31772886 346.67407227 130.67895508 C349.44162609 135.38129697 352.24363959 140.05403963 355.125 144.6875 C358.16797274 149.58901717 361.06749073 154.55890692 363.9375 159.5625 C368.61252511 167.71042474 373.47430821 175.73693191 378.375 183.75 C383.6216646 192.3289062 388.73588895 200.96042415 393.625 209.75 C398.61561303 218.71329077 403.93867392 227.42123597 409.41455078 236.09521484 C417.87685234 249.51689972 425.83730956 263.2225594 433.73779297 276.98046875 C438.70278889 285.62475916 443.66714775 294.24650156 449.01025391 302.66333008 C455.54788061 312.97389556 461.8099952 323.45869996 468.12792969 333.90478516 C469.22423746 335.71738165 470.32101884 337.52969213 471.41894531 339.34130859 C476.24266164 347.30183468 480.94542798 355.32908289 485.625 363.375 C492.38807164 375.00296287 499.29119676 386.54325119 506.23339844 398.06494141 C507.90163848 400.83658069 509.56528857 403.61089974 511.2265625 406.38671875 C515.41427395 413.38317138 519.60675437 420.37482129 523.88256836 427.31787109 C530.01296189 437.27560292 535.92954058 447.3548015 541.8112793 457.46069336 C545.83992208 464.37385028 549.95169427 471.22321616 554.16235352 478.02758789 C556.68214259 482.10337267 559.16011948 486.20333912 561.625 490.3125 C562.12660645 491.1480542 562.62821289 491.9836084 563.14501953 492.84448242 C567.10983398 499.46895043 570.9990118 506.13577684 574.875 512.8125 C580.08232268 521.77966912 585.41244054 530.66264681 590.82641602 539.50634766 C594.71503706 545.86580123 598.53626308 552.26074794 602.3125 558.6875 C607.23810056 567.06662166 612.25514924 575.38746053 617.3125 583.6875 C623.80037331 594.33641942 630.20193668 605.03310972 636.54223633 615.77050781 C639.83336366 621.34395951 643.14186479 626.90420902 646.5 632.4375 C650.40555235 638.91427011 654.13617078 645.48747572 657.87219238 652.06277466 C663.26811243 661.55849955 668.73439348 670.97422048 674.59765625 680.19140625 C677.37226398 684.56006009 680.03124429 688.99619172 682.6875 693.4375 C683.18572266 694.27007324 683.68394531 695.10264648 684.19726562 695.96044922 C685.79924018 698.6396658 687.39976853 701.31974199 689 704 C696.56850571 716.67368704 704.17461796 729.31920898 711.9375 741.875 C721.68733594 757.66039236 731.12171351 773.62986127 740.46875 789.65625 C741.22271523 790.94752285 741.97670273 792.23878269 742.73071289 793.5300293 C744.15044474 795.96155617 745.56583162 798.39553054 746.97827148 800.83129883 C750.69916536 807.2126524 754.55306121 813.47279901 758.57655334 819.66496277 C762.5046715 825.73155757 766.20419759 831.92802945 769.89440918 838.14123535 C771.68349431 841.14911867 773.48682657 844.14842228 775.2890625 847.1484375 C776.00226933 848.3369522 776.71540358 849.52551046 777.4284668 850.71411133 C777.78645355 851.31075592 778.14444031 851.90740051 778.51327515 852.52212524 C788.2901001 868.8168335 798.06692505 885.11154175 807.84375 901.40625 C808.79785767 902.99638916 808.79785767 902.99638916 809.77124023 904.61865234 C811.04168116 906.73610784 812.31202729 908.85362023 813.58227539 910.97119141 C816.4367508 915.72952508 819.29228157 920.4872094 822.15234375 925.2421875 C830.67184446 939.41133108 839.08764993 953.6408336 847.46484375 967.89453125 C854.8608977 980.50193656 854.8608977 980.50193656 862.6328125 992.87890625 C863.30957031 993.92884766 863.30957031 993.92884766 864 995 C864.55429688 995.85464844 865.10859375 996.70929687 865.6796875 997.58984375 C867 1000 867 1000 867 1003 C841.80920277 1003.0934159 816.61843147 1003.16396581 791.42749596 1003.20724869 C779.73106473 1003.2278793 768.03474108 1003.25600955 756.33837891 1003.30175781 C746.14455997 1003.34161016 735.95081894 1003.36742918 725.75692427 1003.37635398 C720.35864787 1003.38157141 714.96059438 1003.39384486 709.56238937 1003.42292023 C704.48168523 1003.45006387 699.40129589 1003.45844705 694.32052612 1003.45243073 C692.45568761 1003.45353143 690.5908386 1003.46149151 688.72606277 1003.4768219 C686.17916105 1003.49673354 683.63344672 1003.49193522 681.08651733 1003.48101807 C679.98046695 1003.49849512 679.98046695 1003.49849512 678.85207212 1003.51632524 C672.88768729 1003.44725473 669.53375041 1001.26993258 665.19921875 997.38671875 C659.4341578 990.90661148 655.29861687 983.48180673 651 976 C649.80228272 973.9243641 648.60435028 971.84885235 647.40625 969.7734375 C645.4895154 966.45228189 643.57460763 963.13018554 641.66796875 959.80322266 C637.63244377 952.77237894 633.502589 945.80506376 629.32080078 938.86083984 C626.99416218 934.99567887 624.68775598 931.11872577 622.38671875 927.23828125 C622.00461243 926.59401184 621.6225061 925.94974243 621.2288208 925.28594971 C620.44820688 923.96947851 619.66769013 922.65294969 618.88726807 921.33636475 C613.15618001 911.66870697 607.41865461 902.00534145 601.625 892.375 C593.95869723 879.62506092 586.39305166 866.81577463 578.890625 853.96875 C570.66987329 839.89557778 562.34996884 825.89559017 553.83496094 811.99755859 C550.42141885 806.42125874 547.02123844 800.83684964 543.625 795.25 C543.26944031 794.66525909 542.91388062 794.08051819 542.54754639 793.47805786 C536.49021124 783.51078855 530.52863907 773.48901575 524.6003418 763.44458008 C520.93455225 757.24012987 517.22490935 751.06834671 513.4375 744.9375 C508.32245446 736.64723107 503.47896849 728.20625085 498.63012695 719.75830078 C493.30650858 710.49540839 487.84815584 701.32062045 482.31835938 692.1796875 C477.37239679 684.00236269 472.4615129 675.80505095 467.625 667.5625 C461.98188507 657.94544054 456.28510524 648.36030371 450.58886719 638.7746582 C449.75064991 637.36409572 448.91243377 635.95353257 448.07421875 634.54296875 C447.65451813 633.83672867 447.2348175 633.13048859 446.80239868 632.40284729 C443.91203407 627.53809624 441.02705611 622.67018081 438.14453125 617.80078125 C430.18651728 604.36242892 422.18136582 590.95653012 414.05517578 577.61911011 C408.90955664 569.17251935 403.83203817 560.68984424 398.81762695 552.16479492 C394.05332067 544.06956537 389.21749685 536.01817013 384.37670898 527.96850586 C380.86428513 522.12265676 377.37869253 516.2630238 373.9375 510.375 C370.13363458 503.87276755 366.23684989 497.4301624 362.3125 491 C353.2527338 476.15471182 344.29207098 461.25070357 335.42578125 446.2890625 C334.83841438 445.29792198 334.83841438 445.29792198 334.23918152 444.28675842 C331.00485444 438.82864852 331.00485444 438.82864852 329.41366577 436.14291382 C323.35920285 425.92761819 317.23378855 415.75806685 311.05426025 405.61801147 C306.48006485 398.11081347 301.9540564 390.57907422 297.5 383 C290.48056679 371.06000049 283.28060004 359.23115485 276.07373047 347.40380859 C274.11142596 344.18289389 272.15101844 340.9608345 270.19140625 337.73828125 C269.00261651 335.78384666 267.81381476 333.82941938 266.625 331.875 C265.76358398 330.45840088 265.76358398 330.45840088 264.88476562 329.01318359 C262.33975121 324.83093528 259.78951563 320.65234813 257.21484375 316.48828125 C251.84255521 307.78645177 246.65669992 298.9928477 241.5625 290.125 C233.18456295 275.54310074 224.72236575 261.05138657 215.49291992 246.98950195 C210.30866404 239.03701627 205.43134844 230.8963698 200.5402832 222.76171875 C196.34568173 215.80172782 192.06553108 208.90422048 187.71850586 202.03857422 C187.16648247 201.16567245 186.61445908 200.29277069 186.0457077 199.39341736 C184.69766094 197.26194693 183.34908131 195.13081573 182 193 C181.1479973 236.97400224 180.85500186 280.93101876 180.88238947 324.91251631 C180.88778499 333.93964587 180.88704239 342.96677296 180.88625254 351.99390373 C180.88495596 368.63689825 180.88821269 385.27988873 180.89426994 401.92288208 C180.90023247 418.34856181 180.90404494 434.77423985 180.90512276 451.19992065 C180.9051915 452.22973602 180.90526024 453.25955138 180.90533106 454.32057326 C180.9056695 459.55267341 180.90597084 464.78477356 180.90625793 470.01687372 C180.90834598 506.86248726 180.91504835 543.70809862 180.92456055 580.55371094 C180.93377792 616.29915353 180.94084528 652.04459552 180.94506836 687.79003906 C180.94526565 689.44926112 180.94526565 689.44926112 180.94546692 691.14200281 C180.9467857 702.25264348 180.94806147 713.36328416 180.94930578 724.47392484 C180.95184048 747.09793235 180.95466173 769.72193982 180.95765686 792.34594727 C180.95779415 793.38565545 180.95793144 794.42536362 180.95807289 795.49657811 C180.96228729 827.29841887 180.96771359 859.10025926 180.97434998 890.90209961 C180.97453753 891.80316184 180.97472509 892.70422406 180.97491833 893.6325912 C180.98252518 930.08839431 180.99142483 966.54419712 181 1003 C121.27 1003 61.54 1003 0 1003 C0 672.01 0 341.02 0 0 Z " fill="#222222" transform="translate(1414,1343)"/>
<path d="M0 0 C25.33846828 -0.07004463 50.67692208 -0.1229659 76.01546764 -0.15543652 C87.78028281 -0.17091312 99.54503787 -0.19201785 111.30981445 -0.22631836 C121.56258713 -0.25619636 131.81531627 -0.27556923 142.06813127 -0.28226548 C147.49819057 -0.28618044 152.92812533 -0.29539771 158.35814476 -0.31719017 C163.46753634 -0.33753 168.57675189 -0.34383884 173.68618011 -0.33932304 C175.5627189 -0.34014936 177.43926348 -0.34612987 179.31576729 -0.35761642 C181.8759864 -0.37252138 184.43553908 -0.36896099 186.99577332 -0.36076355 C187.73994403 -0.36950207 188.48411474 -0.3782406 189.25083607 -0.38724393 C193.6817517 -0.34884312 196.46869446 0.28970563 200 3 C201.74609375 5.2578125 201.74609375 5.2578125 203.4375 8.125 C203.76186035 8.67067627 204.0862207 9.21635254 204.42041016 9.77856445 C205.63349925 11.84147193 206.81881219 13.91865209 208 16 C208.51804199 16.91281738 209.03608398 17.82563477 209.56982422 18.76611328 C213.74998615 26.15700297 217.88130199 33.57472457 222 41 C222.69295166 42.24885986 222.69295166 42.24885986 223.39990234 43.52294922 C224.22742954 45.01453752 225.05490585 46.50615406 225.88232422 47.99780273 C234.37053456 63.29730142 242.94692179 78.54047205 251.8125 93.625 C257.02720766 102.50342645 262.05373121 111.47067032 267 120.5 C273.54889093 132.45182405 280.33081357 144.2511614 287.23925781 155.99902344 C296.22025189 171.30606438 305.00094548 186.71846081 313.58789062 202.24975586 C317.31714436 208.99023555 321.09488026 215.69857064 324.9375 222.375 C329.67603053 230.61616738 334.29251348 238.92148132 338.875 247.25 C349.02442479 265.68946123 359.23260733 284.08506272 369.88012695 302.24316406 C373.73813453 308.82335221 377.54285612 315.4313345 381.3125 322.0625 C384.70216214 328.02252205 388.13473456 333.94817461 391.6875 339.8125 C399.68905938 353.02173795 407.10314192 366.59084851 414.3046875 380.25 C421.21923197 393.34364342 428.37630044 406.1985841 436.00170898 418.89550781 C440.81278713 426.92785533 445.42345746 435.04886485 449.9375 443.25 C454.14679145 450.89389992 458.39280011 458.48790658 462.94238281 465.93457031 C465.84654422 470.69652077 468.55488421 475.55024071 471.25512695 480.42895508 C475.43751213 487.90726622 479.95690691 495.18268667 484.47924805 502.45898438 C485.06488525 503.40837891 485.65052246 504.35777344 486.25390625 505.3359375 C486.78314697 506.18720215 487.3123877 507.0384668 487.85766602 507.91552734 C489 510 489 510 489 512 C489.99 512 490.98 512 492 512 C492.07089844 511.21367188 492.14179688 510.42734375 492.21484375 509.6171875 C493.2759524 504.72869692 495.36255631 500.59701669 497.5625 496.125 C498.17061523 494.86429688 498.17061523 494.86429688 498.79101562 493.578125 C500.7806701 489.47084439 502.8040099 485.38149551 504.86303711 481.30859375 C509.62054947 471.88758177 514.10389289 462.37265626 518.4375 452.75 C519.10143016 451.28282541 519.7656596 449.81578622 520.43017578 448.34887695 C523.09254698 442.46731235 525.74584976 436.58183857 528.37109375 430.68359375 C533.98059253 418.09002115 539.86776171 405.63322887 545.79833984 393.18823242 C549.17262518 386.09212227 552.47705156 378.98243372 555.5859375 371.765625 C558.25286516 365.57669093 561.17994206 359.56117105 564.23193359 353.55078125 C567.43614356 347.11581442 570.35944923 340.55298754 573.3125 334 C573.97107052 332.54430523 574.62992836 331.08874043 575.2890625 329.63330078 C576.59329124 326.75255295 577.89621277 323.87122091 579.19775391 320.98925781 C581.62514935 315.61480278 584.06095091 310.24417544 586.5 304.875 C587.09989746 303.55363037 587.09989746 303.55363037 587.71191406 302.20556641 C590.51522691 296.04040364 593.37500149 289.90357649 596.25390625 283.7734375 C597.49851591 281.10328685 598.70893052 278.41997581 599.90234375 275.7265625 C604.55659132 265.23095159 609.46172618 254.87789913 614.5 244.5625 C620.03696662 233.22333923 625.20171191 221.79152291 630.08398438 210.15332031 C633.41645021 202.31953868 637.18202638 194.67808858 640.90234375 187.0234375 C647.06588646 174.32379436 653.07303111 161.5881458 658.69018555 148.63574219 C661.25394398 142.76389352 663.96422655 137.0006189 666.85546875 131.28515625 C671.13087995 122.83276013 675.08618836 114.24955218 679 105.625 C679.70675701 104.07388672 680.41370861 102.52286209 681.12084961 100.97192383 C685.19087871 92.03545192 689.22307691 83.08392483 693.12890625 74.07421875 C694.72917508 70.48682364 696.5085084 66.9990511 698.28515625 63.49609375 C701.78252038 56.57460171 704.92824526 49.52636632 707.99838257 42.40686035 C709.20211544 39.61679823 710.41570811 36.83106017 711.62876892 34.04504395 C712.23433779 32.65417516 712.83953679 31.26314527 713.4443512 29.87194824 C716.00250128 23.98774686 718.57676014 18.1110943 721.1875 12.25 C721.53731934 11.45384277 721.88713867 10.65768555 722.24755859 9.83740234 C722.57191895 9.11246582 722.8962793 8.3875293 723.23046875 7.640625 C723.50270264 7.02735352 723.77493652 6.41408203 724.05541992 5.78222656 C724.52298706 4.90002441 724.52298706 4.90002441 725 4 C725.35044026 3.31316257 725.70088053 2.62632515 726.06194019 1.91867447 C728.5003367 -0.49533211 730.27444689 -0.47838399 733.62186688 -0.51632524 C734.39131802 -0.50467387 735.16076915 -0.4930225 735.95353699 -0.48101807 C737.18244761 -0.48614462 737.18244761 -0.48614462 738.4361847 -0.49137473 C741.19112552 -0.4979819 743.9450996 -0.47593123 746.69995117 -0.45410156 C748.67081174 -0.4529737 750.64167398 -0.45360575 752.61253357 -0.45587158 C757.9718355 -0.45702203 763.33078133 -0.43345916 768.6900003 -0.40557575 C774.28739998 -0.38061717 779.88480729 -0.37822448 785.48225403 -0.37347412 C796.0857737 -0.36102803 806.68912895 -0.32818429 817.29257613 -0.28807616 C829.36252589 -0.24340927 841.43248338 -0.2213842 853.50249517 -0.20129442 C878.33508803 -0.15945312 903.16753482 -0.08906931 928 0 C927.54059221 1.57300361 927.07780635 3.14502081 926.61364746 4.71662903 C926.35630577 5.59215329 926.09896408 6.46767756 925.83382416 7.36973286 C924.55072706 11.41721469 922.87958132 15.26061977 921.15625 19.13671875 C920.79081589 19.97021851 920.42538177 20.80371826 920.0488739 21.66247559 C918.87220928 24.34030857 917.68655399 27.0140361 916.5 29.6875 C915.67869673 31.54919286 914.85748964 33.41092815 914.03637695 35.27270508 C909.49574008 45.53864695 904.83700584 55.72446559 899.90551758 65.80908203 C895.9689306 73.91342259 892.42038084 82.17597024 888.87683105 90.45697021 C883.51632116 102.97033742 877.80235724 115.30156182 871.99609375 127.61328125 C869.95317832 131.9475578 867.9599525 136.29665202 866.03051758 140.68237305 C863.78578798 145.73075448 861.4450386 150.73591153 859.125 155.75 C858.62097656 156.84054687 858.11695312 157.93109375 857.59765625 159.0546875 C857.09363281 160.14523437 856.58960937 161.23578125 856.0703125 162.359375 C855.56274414 163.45773682 855.05517578 164.55609863 854.53222656 165.68774414 C853.52030563 167.87524116 852.5066665 170.06194427 851.49121094 172.24780273 C847.38148869 181.110479 843.42389372 190.03614857 839.5 198.98242188 C836.62866176 205.48405885 833.60422813 211.87034591 830.39306641 218.21069336 C828.37281942 222.25579008 826.52042378 226.3674417 824.6875 230.5 C823.91411197 232.23049086 823.14067294 233.96095893 822.3671875 235.69140625 C821.97756836 236.56555176 821.58794922 237.43969727 821.18652344 238.34033203 C819.2371652 242.70994286 817.27535482 247.07393873 815.3125 251.4375 C814.74438599 252.70110352 814.74438599 252.70110352 814.16479492 253.99023438 C811.67060411 259.53069417 809.13680518 265.05149653 806.578125 270.5625 C805.36604237 273.20267999 804.16932405 275.84765595 802.984375 278.5 C798.57236902 288.37556293 794.05686911 298.18865105 789.36230469 307.93359375 C788.96688477 308.75601562 788.57146484 309.5784375 788.1640625 310.42578125 C787.81811035 311.14161377 787.4721582 311.85744629 787.11572266 312.5949707 C785.95890305 315.08858775 784.87849848 317.61034279 783.80203247 320.13948059 C782.45036403 323.27502119 781.02377859 326.37650686 779.6015625 329.48046875 C778.95045399 330.90687053 778.29941455 332.33330384 777.6484375 333.75976562 C776.64014503 335.96693052 775.63126325 338.17382046 774.62109375 340.38012695 C769.8893285 350.71169773 769.8893285 350.71169773 765.4609375 361.17578125 C763.17517114 366.75850885 760.47408427 372.08693312 757.74511719 377.46386719 C754.97083192 383.08540438 752.56209395 388.85135184 750.125 394.625 C745.25685303 406.04364141 740.09489974 417.29733996 734.75 428.5 C726.53541643 445.72949443 718.71266384 463.1188663 710.97070312 480.56494141 C708.26840299 486.6514042 705.54391944 492.72789271 702.81738281 498.80352783 C702.01071614 500.60111994 701.20457328 502.39894709 700.3984375 504.19677734 C696.64513784 512.56668322 692.88508646 520.93353161 689.1171875 529.296875 C687.63979907 532.57659471 686.16641501 535.85808109 684.6953125 539.140625 C681.30465942 546.7009419 677.90401121 554.25309547 674.375 561.75 C671.43692731 567.99848177 668.67277265 574.30708262 665.96875 580.66015625 C664.34153443 584.35374939 662.53440035 587.94453333 660.71484375 591.546875 C656.95239152 599.00081463 653.48091829 606.57085411 650.0625 614.1875 C649.75974152 614.85921234 649.45698303 615.53092468 649.14505005 616.22299194 C645.13225119 625.12626157 641.22861939 634.06476268 637.49560547 643.08959961 C635.5539126 647.76303504 633.47237895 652.31939867 631.10546875 656.796875 C629.95724899 659.0851999 628.96437363 661.42051403 627.96655273 663.77734375 C625.72261729 668.93743173 623.31078198 674.02351093 620.9375 679.125 C620.65231506 679.73894623 620.36713013 680.35289246 620.07330322 680.98544312 C615.82519101 690.13002925 611.53104425 699.25183417 607.15991211 708.33837891 C606.78487549 709.12003418 606.40983887 709.90168945 606.0234375 710.70703125 C605.70294434 711.3719458 605.38245117 712.03686035 605.05224609 712.72192383 C603.6363077 715.78738118 602.32381519 718.89371362 601 722 C599.06592318 726.46171945 597.12254806 730.91935667 595.17675781 735.37597656 C594.56531445 736.77733517 593.95462098 738.17902125 593.34472656 739.58105469 C589.04641962 749.46109355 584.59107449 759.25283689 580 769 C571.03147901 788.1635941 571.03147901 788.1635941 562.67407227 807.59863281 C558.84639155 816.90361241 554.54657631 825.99414472 550.29345703 835.11035156 C545.05226082 846.34740262 539.89791433 857.60835965 535 869 C533.73317593 871.91842182 532.46070368 874.83435699 531.1875 877.75 C530.89697754 878.41870117 530.60645508 879.08740234 530.30712891 879.77636719 C528.94786625 882.89311711 527.56348596 885.97980274 526 889 C521.35676834 887.50599722 519.44260669 883.60389527 517 879.6875 C516.52143555 878.93331787 516.04287109 878.17913574 515.54980469 877.40209961 C510.32650334 869.0809631 505.50778961 860.53125789 500.68457031 851.97460938 C497.52912524 846.40273362 494.32530833 840.85867688 491.125 835.3125 C490.50657227 834.23814697 489.88814453 833.16379395 489.25097656 832.05688477 C486.04836311 826.50340755 482.80215511 820.9810573 479.4921875 815.4909668 C476.7636996 810.93619552 474.10563121 806.34029251 471.4375 801.75 C465.20047492 791.03925385 458.91120972 780.36041232 452.59570312 769.69580078 C450.48817906 766.13532332 448.38439407 762.57264336 446.28051758 759.01000977 C442.26717162 752.21407727 438.25062176 745.42009297 434.22265625 738.6328125 C421.82379893 717.73935342 409.4773968 696.81690002 397.375 675.75 C391.90770851 666.23467831 386.30951291 656.80662193 380.63549805 647.41333008 C376.05428113 639.80993657 371.60022738 632.13971506 367.1875 624.4375 C362.87876582 616.91919853 358.49740019 609.48300672 353.83764648 602.17773438 C349.95476704 596.03861926 346.35923171 589.74027017 342.75 583.4375 C336.26356824 572.11829685 329.56587734 560.94709008 322.73828125 549.83105469 C312.16131598 532.60486237 301.75527301 515.28451864 291.5625 497.828125 C287.47996373 490.84511115 283.33976494 483.90318315 279.12142944 477.00105286 C271.85859095 465.1167583 264.745315 453.17315983 257.87915039 441.05490112 C252.56132564 431.67281815 247.08633864 422.39681343 241.51220703 413.16479492 C233.8735285 400.50396275 226.44118657 387.72234764 219.06640625 374.90625 C214.26802157 366.57194785 209.38304898 358.30891248 204.33740234 350.12182617 C198.59443743 340.76798473 193.1202479 331.25649357 187.60888672 321.76513672 C185.41938581 318.00211892 183.21193851 314.24985876 181 310.5 C177.62351011 304.77419062 174.27183121 299.03435751 170.92944336 293.28857422 C165.50735496 283.97029972 160.03994422 274.68339917 154.47583008 265.44921875 C150.72114733 259.21493428 147.0092682 252.95628301 143.3125 246.6875 C139.72945028 240.61209914 136.13853893 234.54234814 132.5 228.5 C125.17995033 216.33459084 117.97985327 204.09733383 110.80859375 191.84375 C110.45109039 191.23290558 110.09358704 190.62206116 109.72525024 189.9927063 C109.36539032 189.37781342 109.0055304 188.76292053 108.63476562 188.12939453 C107.90235285 186.87792436 107.16993094 185.62645954 106.4375 184.375 C106.07245361 183.75123474 105.70740723 183.12746948 105.33129883 182.48480225 C100.46802826 174.17756737 95.56025831 165.89932958 90.58642578 157.65771484 C85.89186616 149.86085614 81.31322704 141.9970215 76.72515869 134.13729858 C71.36963369 124.96997739 65.91123332 115.87167574 60.375 106.8125 C53.5860743 95.70094787 47.02661454 84.46901833 40.55078125 73.171875 C36.71338058 66.48273238 32.79230696 59.84493734 28.8581543 53.21240234 C24.14574733 45.26280193 19.4874003 37.28227414 14.84350586 29.29248047 C11.71877536 23.92221067 8.55568162 18.58075453 5.3137207 13.28027344 C0 4.05705259 0 4.05705259 0 0 Z " fill="#232323" transform="translate(1840,1343)"/>
<path d="M0 0 C0.66 0.33 1.32 0.66 2 1 C1.67 22.45 1.34 43.9 1 66 C0.01 66 -0.98 66 -2 66 C-2.05034655 59.97584175 -2.08615481 53.95181232 -2.10986328 47.92749023 C-2.11977183 45.88840597 -2.13330247 43.84933532 -2.15087891 41.81030273 C-2.26890368 27.74105552 -1.61171456 13.97939794 0 0 Z " fill="#3D3A3D" transform="translate(1594,1534)"/>
<path d="M0 0 C0.99 0 1.98 0 3 0 C3.86883706 1.57533086 4.71959068 3.16064509 5.5625 4.75 C6.03816406 5.63171875 6.51382813 6.5134375 7.00390625 7.421875 C8.07998186 10.20701188 8.06528748 11.26980214 7 14 C6.34 14 5.68 14 5 14 C4.34 15.32 3.68 16.64 3 18 C0.36 13.71 -2.28 9.42 -5 5 C-4.01 4.34 -3.02 3.68 -2 3 C-1.67 3.66 -1.34 4.32 -1 5 C-0.34 4.34 0.32 3.68 1 3 C0.67 2.01 0.34 1.02 0 0 Z " fill="#333031" transform="translate(2046,1683)"/>
<path d="M0 0 C0.66 0.66 1.32 1.32 2 2 C1.505 2.928125 1.01 3.85625 0.5 4.8125 C-1.21289852 7.86527516 -1.21289852 7.86527516 -1 11 C-1.8125 13.625 -1.8125 13.625 -3 16 C-3.99 16.33 -4.98 16.66 -6 17 C-5.731875 17.556875 -5.46375 18.11375 -5.1875 18.6875 C-5.0946875 19.8321875 -5.0946875 19.8321875 -5 21 C-7.4375 23.75 -7.4375 23.75 -10 26 C-11.28587188 22.14238437 -10.45307071 21.25849212 -8.69140625 17.67578125 C-8.19189453 16.64775391 -7.69238281 15.61972656 -7.17773438 14.56054688 C-6.64470703 13.48869141 -6.11167969 12.41683594 -5.5625 11.3125 C-5.03333984 10.22904297 -4.50417969 9.14558594 -3.95898438 8.02929688 C-2.64806995 5.34841784 -1.32812905 2.67238154 0 0 Z " fill="#413E3F" transform="translate(2489,1513)"/>
<path d="M0 0 C0.66 0.33 1.32 0.66 2 1 C0.06375702 7.20477864 -2.25609141 13.10825719 -5 19 C-5.99 18.67 -6.98 18.34 -8 18 C-6.65150163 13.64029169 -4.95092154 9.68658562 -2.875 5.625 C-2.33617188 4.56539062 -1.79734375 3.50578125 -1.2421875 2.4140625 C-0.83226563 1.61742188 -0.42234375 0.82078125 0 0 Z " fill="#373737" transform="translate(2437,2067)"/>
<path d="M0 0 C0.7425 0.45375 1.485 0.9075 2.25 1.375 C4.46930578 2.68640796 6.67967822 3.88280803 9 5 C8.34 5.66 7.68 6.32 7 7 C7.33 7.99 7.66 8.98 8 10 C7.0625 12.1875 7.0625 12.1875 6 14 C4.80285445 12.04754815 3.61751926 10.08785003 2.4375 8.125 C1.77621094 7.03445313 1.11492187 5.94390625 0.43359375 4.8203125 C-0.03949219 3.88960937 -0.51257812 2.95890625 -1 2 C-0.67 1.34 -0.34 0.68 0 0 Z " fill="#2E2A2B" transform="translate(1672,1657)"/>
<path d="M0 0 C2.27034075 2.94050157 4.30412051 5.96058433 6.25 9.125 C7.06210938 10.42824219 7.06210938 10.42824219 7.890625 11.7578125 C8.25671875 12.49773437 8.6228125 13.23765625 9 14 C8.67 14.66 8.34 15.32 8 16 C2.48309177 11.70907137 -0.97184027 8.19711808 -2 1 C-1.34 0.67 -0.68 0.34 0 0 Z " fill="#3B3B3D" transform="translate(1770,1490)"/>
<path d="M0 0 C1.9375 0.3125 1.9375 0.3125 4 1 C4.33 1.99 4.66 2.98 5 4 C5.66 4 6.32 4 7 4 C8.10844919 7.32534757 7.84454356 9.62182575 7 13 C0 4.55172414 0 4.55172414 0 0 Z " fill="#2E292B" transform="translate(1920,2073)"/>
<path d="M0 0 C0.99 0.33 1.98 0.66 3 1 C2.67 2.65 2.34 4.3 2 6 C0.68 6.33 -0.64 6.66 -2 7 C-2 7.66 -2 8.32 -2 9 C-1.34 9 -0.68 9 0 9 C0 9.66 0 10.32 0 11 C-0.66 11 -1.32 11 -2 11 C-2.33 12.32 -2.66 13.64 -3 15 C-3.99 15 -4.98 15 -6 15 C-4.36041242 9.76727367 -2.61047965 4.84803364 0 0 Z " fill="#413F40" transform="translate(2412,1680)"/>
<path d="M0 0 C3.29967665 2.80472516 5.08459104 6.16918209 7 10 C6.67 10.99 6.34 11.98 6 13 C5.01 12.67 4.02 12.34 3 12 C3 11.34 3 10.68 3 10 C2.34 10 1.68 10 1 10 C0.34 8.02 -0.32 6.04 -1 4 C-0.34 3.34 0.32 2.68 1 2 C0.34 1.67 -0.32 1.34 -1 1 C-0.67 0.67 -0.34 0.34 0 0 Z " fill="#414143" transform="translate(2097,1448)"/>
<path d="M0 0 C0.66 0.33 1.32 0.66 2 1 C0.40109514 6.19644079 -1.74138003 11.06612142 -4 16 C-6.078125 12.359375 -6.078125 12.359375 -5.375 9.125 C-3.90654804 5.78760919 -2.11628032 2.96279245 0 0 Z " fill="#333334" transform="translate(2492,1946)"/>
<path d="M0 0 C3.3502463 3.81234923 5.16974789 7.33285711 7 12 C5.68 12.33 4.36 12.66 3 13 C1.33333333 9.66666667 -0.33333333 6.33333333 -2 3 C-1.34 3 -0.68 3 0 3 C0 2.01 0 1.02 0 0 Z " fill="#3B3B3D" transform="translate(2131,1507)"/>
<path d="M0 0 C3.97497544 3.40712181 5.86793788 7.32760855 8 12 C7.01 12.495 7.01 12.495 6 13 C6 12.01 6 11.02 6 10 C5.401875 9.9175 4.80375 9.835 4.1875 9.75 C1.29313769 8.75764721 0.42012225 7.69075795 -1 5 C-0.6875 2.25 -0.6875 2.25 0 0 Z " fill="#414143" transform="translate(1867,1654)"/>
<path d="M0 0 C1.32 0 2.64 0 4 0 C4.9765625 6.0546875 4.9765625 6.0546875 5 8 C4.34 8.66 3.68 9.32 3 10 C2.30289269 8.71349294 1.61757124 7.42059335 0.9375 6.125 C0.36322266 5.04605469 0.36322266 5.04605469 -0.22265625 3.9453125 C-0.47917969 3.30335937 -0.73570313 2.66140625 -1 2 C-0.67 1.34 -0.34 0.68 0 0 Z " fill="#332F30" transform="translate(2007,1625)"/>
<path d="M0 0 C2.32472205 2.85306797 3.7508258 5.54074837 5 9 C3.68 9 2.36 9 1 9 C-1.25 6.5 -1.25 6.5 -3 4 C-2.67 3.34 -2.34 2.68 -2 2 C-1.34 2 -0.68 2 0 2 C0 1.34 0 0.68 0 0 Z " fill="#373739" transform="translate(2111,1472)"/>
<path d="M0 0 C2.61724095 2.36797991 4.32861729 4.89600354 6 8 C6 8.66 6 9.32 6 10 C5.01 10.33 4.02 10.66 3 11 C-1.06153846 5.70769231 -1.06153846 5.70769231 -0.75 2.125 C-0.5025 1.42375 -0.255 0.7225 0 0 Z " fill="#3B3B3D" transform="translate(1986,1853)"/>
<path d="M0 0 C2.61724095 2.36797991 4.32861729 4.89600354 6 8 C6 8.66 6 9.32 6 10 C5.01 10.33 4.02 10.66 3 11 C-1.06153846 4.6 -1.06153846 4.6 -0.75 1.5625 C-0.5025 1.046875 -0.255 0.53125 0 0 Z " fill="#373639" transform="translate(2010,1893)"/>
<path d="M0 0 C0.99 0.66 1.98 1.32 3 2 C1.35 5.63 -0.3 9.26 -2 13 C-2.66 12.34 -3.32 11.68 -4 11 C-3.70608813 6.59132188 -2.46007056 3.63662604 0 0 Z " fill="#323232" transform="translate(2529,1864)"/>
<path d="M0 0 C0.66 0.99 1.32 1.98 2 3 C1.525625 3.845625 1.05125 4.69125 0.5625 5.5625 C-1.05721513 9.12587329 -1.61256143 12.12561425 -2 16 C-3.32 15.67 -4.64 15.34 -6 15 C-4.40109514 9.80355921 -2.25861997 4.93387858 0 0 Z " fill="#4A4849" transform="translate(2520,1446)"/>
<path d="M0 0 C2.32472205 2.85306797 3.7508258 5.54074837 5 9 C4.01 9.33 3.02 9.66 2 10 C0.4375 8.9375 0.4375 8.9375 -1 7 C-0.6875 3.3125 -0.6875 3.3125 0 0 Z " fill="#3A3A3C" transform="translate(2194,1619)"/>
<path d="M0 0 C4.42857143 5.14285714 4.42857143 5.14285714 5 9 C1.73045798 8.43628586 0.17424117 7.50037734 -2 5 C-1.34 3.35 -0.68 1.7 0 0 Z " fill="#3E3E40" transform="translate(2139,1521)"/>
<path d="M0 0 C0.66 0 1.32 0 2 0 C-0.89066059 9.59453303 -0.89066059 9.59453303 -4 13 C-4.66 12.34 -5.32 11.68 -6 11 C-5.34 10.01 -4.68 9.02 -4 8 C-3.34 8 -2.68 8 -2 8 C-2.226875 7.4225 -2.45375 6.845 -2.6875 6.25 C-3 4 -3 4 -1.6875 1.75 C-1.130625 1.1725 -0.57375 0.595 0 0 Z " fill="#393939" transform="translate(2513,1901)"/>
<path d="M0 0 C1.65 0 3.3 0 5 0 C4.67 1.32 4.34 2.64 4 4 C4.99 4 5.98 4 7 4 C7 5.32 7 6.64 7 8 C6.01 8.33 5.02 8.66 4 9 C0 2.25 0 2.25 0 0 Z " fill="#332F30" transform="translate(2097,1781)"/>
<path d="M0 0 C2.0625 2.1875 2.0625 2.1875 4 5 C3.75 7.8125 3.75 7.8125 3 10 C0.5 7.75 0.5 7.75 -2 5 C-2 3.68 -2 2.36 -2 1 C-1.34 0.67 -0.68 0.34 0 0 Z " fill="#38383A" transform="translate(2202,1633)"/>
<path d="M0 0 C0 2.64 0 5.28 0 8 C-0.99 8.495 -0.99 8.495 -2 9 C-5 4.25 -5 4.25 -5 2 C-1.125 0 -1.125 0 0 0 Z " fill="#352F31" transform="translate(2071,1726)"/>
<path d="M0 0 C2.31 0.33 4.62 0.66 7 1 C4.53846154 4.81538462 4.53846154 4.81538462 1.8125 5.75 C1.214375 5.8325 0.61625 5.915 0 6 C-1 3 -1 3 0 0 Z " fill="#2E2A2B" transform="translate(2239,2016)"/>
<path d="M0 0 C0.99 0.33 1.98 0.66 3 1 C2.49477778 5.37859255 -0.17827222 7.81651224 -3 11 C-3.33 10.34 -3.66 9.68 -4 9 C-3.22265625 6.8359375 -3.22265625 6.8359375 -2.0625 4.375 C-1.68222656 3.55773438 -1.30195313 2.74046875 -0.91015625 1.8984375 C-0.60980469 1.27195312 -0.30945312 0.64546875 0 0 Z " fill="#434142" transform="translate(2405,1695)"/>
<path d="M0 0 C2.74277578 3.19990508 4.6302836 6.00499382 6 10 C2.58119536 8.86039845 1.20034214 7.82901133 -1 5 C-0.75 2.25 -0.75 2.25 0 0 Z " fill="#39393A" transform="translate(2229,1680)"/>
<path d="M0 0 C0.99 0.33 1.98 0.66 3 1 C2.01 3.31 1.02 5.62 0 8 C-0.99 8 -1.98 8 -3 8 C-3 6.68 -3 5.36 -3 4 C-2.34 4 -1.68 4 -1 4 C-0.67 2.68 -0.34 1.36 0 0 Z " fill="#373737" transform="translate(2661,1574)"/>
<path d="M0 0 C2.74277578 3.19990508 4.6302836 6.00499382 6 10 C4.35 9.67 2.7 9.34 1 9 C0.67 6.03 0.34 3.06 0 0 Z " fill="#3A393B" transform="translate(2184,2183)"/>
<path d="M0 0 C0.82638376 2.89234315 1 4.88742431 1 8 C0.34 8 -0.32 8 -1 8 C-1.33 8.99 -1.66 9.98 -2 11 C-2.66 11 -3.32 11 -4 11 C-3.52269162 9.5410574 -3.04308958 8.08286504 -2.5625 6.625 C-2.29566406 5.81289062 -2.02882813 5.00078125 -1.75390625 4.1640625 C-1 2 -1 2 0 0 Z " fill="#434143" transform="translate(2341,1832)"/>
<path d="M0 0 C1.32 1.65 2.64 3.3 4 5 C3.34 6.32 2.68 7.64 2 9 C0.4375 7.875 0.4375 7.875 -1 6 C-0.6875 2.8125 -0.6875 2.8125 0 0 Z " fill="#3B3B3D" transform="translate(1879,1673)"/>
<path d="M0 0 C1.61949011 2.57213134 2.04408751 3.67669159 1.625 6.75 C1.41875 7.4925 1.2125 8.235 1 9 C-1.0625 6.6875 -1.0625 6.6875 -3 4 C-2.67 3.01 -2.34 2.02 -2 1 C-1.34 0.67 -0.68 0.34 0 0 Z " fill="#353031" transform="translate(2023,1648)"/>
<path d="M0 0 C0.99 0.33 1.98 0.66 3 1 C2.8125 3.375 2.8125 3.375 2 6 C-0.5625 7.3125 -0.5625 7.3125 -3 8 C-1.125 2.25 -1.125 2.25 0 0 Z " fill="#3D3B3C" transform="translate(2436,1628)"/>
<path d="M0 0 C3.34998521 1.11666174 3.79340222 1.74694925 5.6875 4.5625 C6.12449219 5.20316406 6.56148437 5.84382813 7.01171875 6.50390625 C7.33785156 6.99761719 7.66398437 7.49132813 8 8 C7.01 9.485 7.01 9.485 6 11 C4.02 7.37 2.04 3.74 0 0 Z " fill="#383435" transform="translate(1993,1605)"/>
<path d="M0 0 C0.625 1.8125 0.625 1.8125 1 4 C0.01 5.485 0.01 5.485 -1 7 C-0.34 7.33 0.32 7.66 1 8 C-1.97 10.475 -1.97 10.475 -5 13 C-4.54554036 11.58208592 -4.08625056 10.16571954 -3.625 8.75 C-3.24214844 7.56664062 -3.24214844 7.56664062 -2.8515625 6.359375 C-2.04826333 4.13372042 -1.10288338 2.09068328 0 0 Z " fill="#413F41" transform="translate(2466,1563)"/>
<path d="M0 0 C0.33 0 0.66 0 1 0 C1.125 2.875 1.125 2.875 1 6 C0.34 6.66 -0.32 7.32 -1 8 C-1.99 8 -2.98 8 -4 8 C-2.25 2.25 -2.25 2.25 0 0 Z " fill="#363435" transform="translate(2515,1460)"/>
<path d="M0 0 C0.66 0.33 1.32 0.66 2 1 C1.01 3.97 0.02 6.94 -1 10 C-1.66 9.34 -2.32 8.68 -3 8 C-2.64700993 4.55834679 -1.95418308 2.93127462 0 0 Z " fill="#3E3E3E" transform="translate(2437,2067)"/>
<path d="M0 0 C0.66 0 1.32 0 2 0 C0.84414715 3.91211733 -0.35534962 6.8745041 -3 10 C-3.2295711 6.63295715 -3.33943529 4.58629732 -1.625 1.625 C-1.08875 1.08875 -0.5525 0.5525 0 0 Z " fill="#3A3A3B" transform="translate(2461,2016)"/>
<path d="M0 0 C2.50037734 2.17424117 3.43628586 3.73045798 4 7 C3.01 7 2.02 7 1 7 C-0.6875 5 -0.6875 5 -2 3 C-1.34 2.01 -0.68 1.02 0 0 Z " fill="#404043" transform="translate(1951,1794)"/>
<path d="M0 0 C0.33 0.99 0.66 1.98 1 3 C1.66 3 2.32 3 3 3 C3 3.99 3 4.98 3 6 C1.02 6.99 -0.96 7.98 -3 9 C-2.01 6.03 -1.02 3.06 0 0 Z " fill="#3E3C3D" transform="translate(2477,1538)"/>
<path d="M0 0 C0.66 0 1.32 0 2 0 C2 0.66 2 1.32 2 2 C2.66 2.33 3.32 2.66 4 3 C4.33 2.67 4.66 2.34 5 2 C5.66 2.33 6.32 2.66 7 3 C7 3.99 7 4.98 7 6 C6.34 6 5.68 6 5 6 C4.67 6.66 4.34 7.32 4 8 C2.68 5.36 1.36 2.72 0 0 Z " fill="#3C3739" transform="translate(2137,1849)"/>
<path d="M0 0 C1.5625 1.8125 1.5625 1.8125 3 4 C2.67 4.99 2.34 5.98 2 7 C1.01 7.33 0.02 7.66 -1 8 C-1.33 6.02 -1.66 4.04 -2 2 C-1.34 2 -0.68 2 0 2 C0 1.34 0 0.68 0 0 Z " fill="#39383C" transform="translate(2123,1493)"/>
<path d="M0 0 C2.2477975 2.05233685 3.0022242 3.00667261 4 6 C2.68 6 1.36 6 0 6 C0 5.34 0 4.68 0 4 C-0.66 4 -1.32 4 -2 4 C-1.34 2.68 -0.68 1.36 0 0 Z " fill="#424245" transform="translate(1915,1734)"/>
<path d="M0 0 C2.13562754 2.13562754 2.63318342 3.06546739 3 6 C2.34 6.66 1.68 7.32 1 8 C-1 7 -1 7 -1.75 5.125 C-2 3 -2 3 0 0 Z " fill="#3E3E40" transform="translate(2243,1704)"/>
<path d="M0 0 C0.99 0.99 1.98 1.98 3 3 C2.67 3.99 2.34 4.98 2 6 C-0.475 5.01 -0.475 5.01 -3 4 C-2.01 2.68 -1.02 1.36 0 0 Z " fill="#373739" transform="translate(2099,2042)"/>
<path d="M0 0 C1.32 1.65 2.64 3.3 4 5 C2.68 5.33 1.36 5.66 0 6 C-0.66 4.68 -1.32 3.36 -2 2 C-1.34 2 -0.68 2 0 2 C0 1.34 0 0.68 0 0 Z " fill="#3A3A3C" transform="translate(2069,1992)"/>
<path d="M0 0 C3.875 0.875 3.875 0.875 5 2 C5.04080783 3.99958364 5.04254356 6.00045254 5 8 C2.74754119 5.31158141 1.11786042 3.35358125 0 0 Z " fill="#3D3839" transform="translate(1858,1970)"/>
<path d="M0 0 C1.98 0.99 1.98 0.99 4 2 C4 2.66 4 3.32 4 4 C4.99 4.33 5.98 4.66 7 5 C7 5.66 7 6.32 7 7 C6.01 7.33 5.02 7.66 4 8 C2.68 5.36 1.36 2.72 0 0 Z " fill="#383335" transform="translate(2187,1933)"/>
<path d="M0 0 C0.66 0.33 1.32 0.66 2 1 C1.01 3.31 0.02 5.62 -1 8 C-1.33 7.34 -1.66 6.68 -2 6 C-2.66 5.67 -3.32 5.34 -4 5 C-3 2 -3 2 0 0 Z " fill="#3A3A3B" transform="translate(2621,1664)"/>
<path d="M0 0 C1.5625 1.1875 1.5625 1.1875 3 3 C2.6875 5.6875 2.6875 5.6875 2 8 C0.68 6.35 -0.64 4.7 -2 3 C-1.34 2.67 -0.68 2.34 0 2 C0 1.34 0 0.68 0 0 Z " fill="#3F3F41" transform="translate(2211,1649)"/>
<path d="M0 0 C1.32 1.65 2.64 3.3 4 5 C3 7 3 7 1 8 C0.01 6.35 -0.98 4.7 -2 3 C-1.34 3 -0.68 3 0 3 C0 2.01 0 1.02 0 0 Z " fill="#464648" transform="translate(2131,1507)"/>
<path d="M0 0 C-0.33 2.31 -0.66 4.62 -1 7 C-2.5 5.6875 -2.5 5.6875 -4 4 C-4 3.01 -4 2.02 -4 1 C-1 0 -1 0 0 0 Z " fill="#2F2A2C" transform="translate(1896,1432)"/>
<path d="M0 0 C0.66 0.33 1.32 0.66 2 1 C2 1.66 2 2.32 2 3 C2.99 3.33 3.98 3.66 5 4 C4.01 4.99 3.02 5.98 2 7 C1.01 5.02 0.02 3.04 -1 1 C-0.67 0.67 -0.34 0.34 0 0 Z " fill="#393435" transform="translate(2167,1896)"/>
<path d="M0 0 C-2.64 1.98 -5.28 3.96 -8 6 C-7.1875 3.0625 -7.1875 3.0625 -6 0 C-3 -1 -3 -1 0 0 Z " fill="#454444" transform="translate(2406,1706)"/>
<path d="M0 0 C2.50037734 2.17424117 3.43628586 3.73045798 4 7 C3.01 7.33 2.02 7.66 1 8 C0.67 5.36 0.34 2.72 0 0 Z " fill="#3F3F41" transform="translate(2237,1694)"/>
<path d="M0 0 C0.99 1.32 1.98 2.64 3 4 C2.34 5.32 1.68 6.64 1 8 C-0.42944945 5.64561267 -1.08661261 4.51967567 -0.625 1.75 C-0.41875 1.1725 -0.2125 0.595 0 0 Z " fill="#39393B" transform="translate(2168,1572)"/>
<path d="M0 0 C0.99 0.33 1.98 0.66 3 1 C2.01 2.98 1.02 4.96 0 7 C-0.66 6.34 -1.32 5.68 -2 5 C-1.34 3.35 -0.68 1.7 0 0 Z " fill="#3B3B3D" transform="translate(2397,2156)"/>
<path d="M0 0 C0.66 0.33 1.32 0.66 2 1 C2 5 2 5 0 8 C-2 5 -2 5 -2 2 C-1.34 2 -0.68 2 0 2 C0 1.34 0 0.68 0 0 Z " fill="#343031" transform="translate(1926,2078)"/>
<path d="M0 0 C0.99 0.99 1.98 1.98 3 3 C2.67 3.99 2.34 4.98 2 6 C1.01 5.67 0.02 5.34 -1 5 C-0.67 3.35 -0.34 1.7 0 0 Z " fill="#3D3C40" transform="translate(1975,1834)"/>
<path d="M0 0 C0.66 0.33 1.32 0.66 2 1 C1.01 2.98 0.02 4.96 -1 7 C-1.66 5.68 -2.32 4.36 -3 3 C-2.01 2.01 -1.02 1.02 0 0 Z " fill="#3C3C3C" transform="translate(2544,1834)"/>
<path d="M0 0 C0.99 1.32 1.98 2.64 3 4 C2.01 4.99 1.02 5.98 0 7 C-0.66 5.35 -1.32 3.7 -2 2 C-1.34 2 -0.68 2 0 2 C0 1.34 0 0.68 0 0 Z " fill="#313033" transform="translate(2290,1788)"/>
<path d="M0 0 C1.32 0.33 2.64 0.66 4 1 C4.33 2.65 4.66 4.3 5 6 C4.01 6.495 4.01 6.495 3 7 C0 2.25 0 2.25 0 0 Z " fill="#322E2F" transform="translate(1680,1672)"/>
<path d="M0 0 C-0.66 1.98 -1.32 3.96 -2 6 C-2.99 5.34 -3.98 4.68 -5 4 C-5 3.34 -5 2.68 -5 2 C-2 0 -2 0 0 0 Z " fill="#363636" transform="translate(2631,1646)"/>
<path d="M0 0 C0.99 0.99 1.98 1.98 3 3 C1.625 4.5 1.625 4.5 0 6 C-0.66 6 -1.32 6 -2 6 C-1.125 1.125 -1.125 1.125 0 0 Z " fill="#424041" transform="translate(2432,1637)"/>
<path d="M0 0 C2.0625 2.3125 2.0625 2.3125 4 5 C3.67 5.99 3.34 6.98 3 8 C2.01 7.67 1.02 7.34 0 7 C0 4.69 0 2.38 0 0 Z " fill="#403F43" transform="translate(2083,1423)"/>
</svg>
