<?xml version="1.0" encoding="UTF-8"?>
<svg version="1.1" xmlns="http://www.w3.org/2000/svg" width="1880" height="1576">
<path d="M0 0 C620.4 0 1240.8 0 1880 0 C1880 520.08 1880 1040.16 1880 1576 C1259.6 1576 639.2 1576 0 1576 C0 1055.92 0 535.84 0 0 Z " fill="#FEFEFE" transform="translate(0,0)"/>
<path d="M0 0 C29.37 0 58.74 0 89 0 C99.13407258 15.7641129 99.13407258 15.7641129 104.0078125 23.75 C105.40582669 26.03068197 106.814858 28.30041018 108.2421875 30.5625 C108.60948975 31.14829834 108.97679199 31.73409668 109.35522461 32.33764648 C110.37818672 33.96797071 111.4057503 35.59540507 112.43359375 37.22265625 C113.76314747 39.58004451 114.55051453 41.36006422 115 44 C115.66 44 116.32 44 117 44 C118.296875 45.8359375 118.296875 45.8359375 119.75 48.375 C120.27464844 49.2825 120.79929687 50.19 121.33984375 51.125 C121.88769531 52.07375 122.43554688 53.0225 123 54 C124.59553011 56.59411823 126.19500451 59.18565031 127.80078125 61.7734375 C128.93263582 63.87492645 129.54747407 65.66816051 130 68 C130.66 68 131.32 68 132 68 C133.00508801 69.78881736 134.00392736 71.58114696 135 73.375 C135.556875 74.37273437 136.11375 75.37046875 136.6875 76.3984375 C138 79 138 79 138 81 C138.66 81 139.32 81 140 81 C141.19140625 82.6953125 141.19140625 82.6953125 142.5625 85.125 C145.08317767 89.47163199 147.7072567 93.72128443 150.4375 97.9375 C150.82204346 98.53344971 151.20658691 99.12939941 151.6027832 99.7434082 C153.38512962 102.50497507 155.17103317 105.26423089 156.95703125 108.0234375 C167 123.64583333 167 123.64583333 167 127 C167.99 127.33 168.98 127.66 170 128 C171.38671875 129.99609375 171.38671875 129.99609375 172.6875 132.4375 C173.12449219 133.24058594 173.56148437 134.04367187 174.01171875 134.87109375 C175 137 175 137 175 139 C175.66 139 176.32 139 177 139 C177.43699219 139.80050781 177.43699219 139.80050781 177.8828125 140.6171875 C182.86749869 149.67740328 188.1911725 158.44487869 194 167 C198.86021111 174.21192616 203.52570575 181.54284292 208 189 C208.33 126.63 208.66 64.26 209 0 C232.1 0 255.2 0 279 0 C279 97.35 279 194.7 279 295 C252.27 295 225.54 295 198 295 C197.34 293.35 196.68 291.7 196 290 C195.12421126 288.57816226 194.20573786 287.18187709 193.25 285.8125 C191.05378244 282.59813304 188.98072157 279.3515894 187 276 C184.64491915 272.03000656 182.15764725 268.18366285 179.57421875 264.359375 C177.22435174 260.83748995 174.97048737 257.25605393 172.7109375 253.67578125 C171.50764361 251.79391751 170.28151017 249.92655901 169.0390625 248.0703125 C166.95915592 244.93849914 164.96860486 241.76532783 163 238.5625 C162.65042236 237.9948291 162.30084473 237.4271582 161.94067383 236.84228516 C160.1270138 233.88540559 158.36432045 230.91140459 156.6875 227.875 C155.21390653 225.08796544 155.21390653 225.08796544 153.5 223.5 C151.02606322 221.02606322 149.62826718 218.08809293 148 215 C148 214.34 148 213.68 148 213 C147.34 213 146.68 213 146 213 C145.16151196 211.54462432 144.32936066 210.08559627 143.5 208.625 C143.0359375 207.81289063 142.571875 207.00078125 142.09375 206.1640625 C141 204 141 204 141 202 C140.34 202 139.68 202 139 202 C137.99491199 200.21118264 136.99607264 198.41885304 136 196.625 C135.443125 195.62726563 134.88625 194.62953125 134.3125 193.6015625 C133 191 133 191 133 189 C132.34 189 131.68 189 131 189 C130.50371094 188.10539063 130.00742187 187.21078125 129.49609375 186.2890625 C125.8682192 179.80981532 122.13032739 173.58409025 117.78125 167.5546875 C114.99800311 163.56292551 112.50851285 159.39854628 109.98046875 155.2421875 C107.56526541 151.28830432 105.07739193 147.38404651 102.58203125 143.48046875 C101.20898287 141.3276645 99.84972139 139.1674679 98.5 137 C93.32220743 128.70203927 88.03364862 120.50261061 82.50390625 112.43359375 C81 110 81 110 81 108 C80.34 108 79.68 108 79 108 C78.16151196 106.54462432 77.32936066 105.08559627 76.5 103.625 C76.0359375 102.81289063 75.571875 102.00078125 75.09375 101.1640625 C74 99 74 99 74 97 C73.34 97 72.68 97 72 97 C71.67 162.34 71.34 227.68 71 295 C47.57 295 24.14 295 0 295 C0 197.65 0 100.3 0 0 Z " fill="#020202" transform="translate(325,584)"/>
<path d="M0 0 C1.24172974 0.00507568 1.24172974 0.00507568 2.50854492 0.01025391 C10.90814665 0.08092857 18.6418864 0.35534834 26.625 3.125 C28.31075844 3.36664455 29.99862971 3.59366047 31.6875 3.8125 C37.78368552 4.76741628 43.47640523 6.5505428 49.3125 8.5 C50.63036499 8.93832153 50.63036499 8.93832153 51.97485352 9.38549805 C58.37478629 11.57170594 64.57395273 14.09947637 70.625 17.125 C70.625 17.785 70.625 18.445 70.625 19.125 C71.470625 19.33125 72.31625 19.5375 73.1875 19.75 C77.50610244 21.47744098 80.22579328 24.02972235 83.625 27.125 C84.49125 27.805625 85.3575 28.48625 86.25 29.1875 C97.98028847 38.75694586 108.08223263 52.03053439 113.625 66.125 C114.34042969 67.90003906 114.34042969 67.90003906 115.0703125 69.7109375 C124.33993031 94.73803628 125.97688705 126.90262507 116.625 152.125 C115.42370906 154.57170701 114.06136799 156.79459362 112.625 159.125 C111.93588918 160.38622152 111.2551145 161.65202761 110.58203125 162.921875 C106.0107585 171.40060882 101.1519376 178.96937314 94.625 186.125 C93.94050781 186.89070312 93.25601562 187.65640625 92.55078125 188.4453125 C86.32613795 195.04964754 79.12696306 200.09623604 71.625 205.125 C70.74585938 205.72699219 69.86671875 206.32898438 68.9609375 206.94921875 C62.60014662 211.06197767 54.34916367 215.125 46.625 215.125 C46.625 215.785 46.625 216.445 46.625 217.125 C25.3096321 225.22836301 -1.24538964 223.25960522 -23.4375 220.875 C-24.4891333 220.76591309 -25.5407666 220.65682617 -26.62426758 220.54443359 C-32.5331564 219.81930578 -37.59527654 218.49692122 -43.05541992 216.12792969 C-46.46505936 214.653685 -49.96939041 213.52064679 -53.5 212.375 C-54.50546875 212.04435547 -54.50546875 212.04435547 -55.53125 211.70703125 C-57.14489809 211.17683259 -58.75980779 210.65047587 -60.375 210.125 C-60.375 209.465 -60.375 208.805 -60.375 208.125 C-61.6125 207.7846875 -61.6125 207.7846875 -62.875 207.4375 C-67.14707061 205.83547352 -70.62542909 203.69850623 -74.375 201.125 C-75.05304688 200.66609375 -75.73109375 200.2071875 -76.4296875 199.734375 C-81.56126625 196.01257063 -85.87616115 191.68062693 -90.1875 187.0625 C-91.01447388 186.17800171 -91.01447388 186.17800171 -91.8581543 185.27563477 C-100.375 175.9628951 -100.375 175.9628951 -100.375 172.125 C-101.365 171.795 -102.355 171.465 -103.375 171.125 C-104.4892301 168.76877474 -105.42655178 166.50271272 -106.3125 164.0625 C-106.83579701 162.68124871 -107.36181702 161.30102583 -107.890625 159.921875 C-108.14392578 159.25994141 -108.39722656 158.59800781 -108.65820312 157.91601562 C-109.50191424 155.80788731 -110.48827661 153.81220815 -111.5625 151.8125 C-117.98639596 139.36620158 -117.54645762 125.54029089 -117.50537109 111.87744141 C-117.49995462 109.73202626 -117.50538148 107.58681556 -117.51171875 105.44140625 C-117.51105874 104.05729121 -117.50977919 102.6731763 -117.5078125 101.2890625 C-117.50668457 100.05623535 -117.50555664 98.8234082 -117.50439453 97.55322266 C-117.38240687 94.32124016 -116.98613696 91.29720746 -116.375 88.125 C-115.715 88.125 -115.055 88.125 -114.375 88.125 C-114.34921875 87.44695312 -114.3234375 86.76890625 -114.296875 86.0703125 C-113.86748498 79.02441262 -112.30339625 73.51139607 -109.375 67.125 C-109.05273438 66.36316406 -108.73046875 65.60132813 -108.3984375 64.81640625 C-100.51930156 46.33566869 -86.8179181 29.42872666 -69.375 19.125 C-68.8063623 18.78742676 -68.23772461 18.44985352 -67.65185547 18.10205078 C-60.15577143 13.71062254 -53.18296671 9.9539851 -44.375 9.125 C-44.375 8.465 -44.375 7.805 -44.375 7.125 C-40.23118154 6.13717427 -36.08462824 5.16132861 -31.9375 4.1875 C-30.77283203 3.90970703 -29.60816406 3.63191406 -28.40820312 3.34570312 C-18.81770583 1.10341784 -9.83538007 -0.05838216 0 0 Z " fill="#020202" transform="translate(1467.375,660.875)"/>
<path d="M0 0 C0.77001343 -0.00367584 1.54002686 -0.00735168 2.33337402 -0.01113892 C29.9537805 -0.03223794 54.8741112 6.7727969 75.75 25.5 C80.50540068 30.48254617 83.79802012 34.84596021 85.75 41.5 C86.41 41.5 87.07 41.5 87.75 41.5 C90.11315262 46.99490343 92.13757411 52.3122517 93.2578125 58.19921875 C93.75076466 60.67852454 93.75076466 60.67852454 94.7657299 63.73527622 C95.71453835 67.36436314 95.99676948 70.30200739 95.99050903 74.03636169 C95.99463303 75.94398033 95.99463303 75.94398033 95.99884033 77.89013672 C95.99176391 79.2814951 95.98449432 80.67285252 95.97705078 82.06420898 C95.97648607 83.54305514 95.9768044 85.02190185 95.97793579 86.50074768 C95.97850796 90.50025518 95.96677566 94.49964191 95.95278788 98.49912143 C95.94025787 102.68447168 95.93910823 106.86982492 95.93673706 111.05519104 C95.93052895 118.97399481 95.91412721 126.89274315 95.89403808 134.81152254 C95.87165823 143.82964334 95.86068041 152.84776683 95.85064721 161.8659085 C95.82976037 180.41064345 95.79309251 198.95530244 95.75 217.5 C76.28 217.5 56.81 217.5 36.75 217.5 C36.14681451 209.05540312 35.59537988 200.91820659 35.75 192.5 C35.09 192.5 34.43 192.5 33.75 192.5 C33.49089844 193.24507812 33.23179687 193.99015625 32.96484375 194.7578125 C29.3192676 202.98673359 20.40310302 208.37711622 12.75 212.5 C12.09 212.5 11.43 212.5 10.75 212.5 C10.75 213.49 10.75 214.48 10.75 215.5 C-9.41716797 221.72854063 -30.55465766 224.35634728 -51.4375 219.75 C-52.14865967 219.59321777 -52.85981934 219.43643555 -53.5925293 219.27490234 C-58.15108795 218.12157871 -61.42937865 216.17656343 -65.25 213.5 C-66.79310615 212.8862933 -68.35624707 212.31989695 -69.9375 211.8125 C-83.93032992 206.40474468 -93.06376079 193.99126796 -99.0234375 180.7734375 C-101.90864567 173.07342334 -102.58934842 166.35479081 -102.5625 158.1875 C-102.58666992 156.7344043 -102.58666992 156.7344043 -102.61132812 155.25195312 C-102.62163431 139.80298756 -96.63399083 127.84543849 -86.0625 116.6875 C-69.41260352 100.93078916 -47.174245 94.60352416 -24.9453125 91.89453125 C-22.2873266 91.64906132 -22.2873266 91.64906132 -20.25 90.5 C-18.68674372 90.24555451 -17.11594496 90.03665314 -15.54296875 89.8515625 C-14.57351318 89.73466064 -13.60405762 89.61775879 -12.60522461 89.49731445 C-11.55987549 89.37445068 -10.51452637 89.25158691 -9.4375 89.125 C-0.30737592 88.02630298 8.79590795 86.82095391 17.8840332 85.41455078 C22.56830829 84.71400176 27.0131674 84.36647854 31.75 84.5 C31.27618079 73.78188279 30.49451178 65.42890491 22.75 57.5 C15.41218635 52.14537923 8.00599746 51.01170025 -0.8125 51.125 C-1.71935547 51.11339844 -2.62621094 51.10179687 -3.56054688 51.08984375 C-9.26625431 51.11466916 -13.17158847 51.90323038 -18.25 54.5 C-18.98347656 54.80421875 -19.71695313 55.1084375 -20.47265625 55.421875 C-27.81734716 58.7277656 -31.60242107 63.44827868 -34.5625 70.875 C-34.86800781 71.72835937 -35.17351562 72.58171875 -35.48828125 73.4609375 C-36.25 75.5 -36.25 75.5 -37.25 76.5 C-43.98110933 76.4413411 -50.56984387 74.8613431 -57.1015625 73.390625 C-60.29330313 72.68560283 -63.49565328 72.07260442 -66.7109375 71.484375 C-67.65670654 71.31075439 -68.60247559 71.13713379 -69.5769043 70.95825195 C-71.46019966 70.61541087 -73.34446823 70.27786661 -75.22973633 69.94604492 C-76.52947388 69.70785034 -76.52947388 69.70785034 -77.85546875 69.46484375 C-78.63043701 69.3268335 -79.40540527 69.18882324 -80.20385742 69.04663086 C-82.25 68.5 -82.25 68.5 -85.25 66.5 C-86.96444889 66.06261304 -88.69667784 65.69151312 -90.4375 65.375 C-91.33855469 65.20742188 -92.23960937 65.03984375 -93.16796875 64.8671875 C-94.19857422 64.68542969 -94.19857422 64.68542969 -95.25 64.5 C-94.09941444 59.10204011 -92.82578241 53.79012667 -91.25 48.5 C-90.59 48.5 -89.93 48.5 -89.25 48.5 C-89.04375 47.695625 -88.8375 46.89125 -88.625 46.0625 C-85.65525478 38.36816012 -80.23650258 31.16249084 -74.25 25.5 C-73.59 25.5 -72.93 25.5 -72.25 25.5 C-71.92 24.51 -71.59 23.52 -71.25 22.5 C-69.27828063 20.90678033 -67.34530455 19.47352188 -65.25 18.0625 C-64.66057617 17.66071533 -64.07115234 17.25893066 -63.46386719 16.8449707 C-59.56900121 14.24432518 -55.69429163 12.05574489 -51.328125 10.328125 C-49.23995587 9.53618986 -49.23995587 9.53618986 -47.296875 8.484375 C-41.55736299 5.54889939 -35.76595855 4.51597346 -29.453125 3.53881836 C-28.75445313 3.43061768 -28.05578125 3.32241699 -27.3359375 3.2109375 C-26.7176709 3.12118652 -26.0994043 3.03143555 -25.46240234 2.93896484 C-23.04552561 2.49929401 -23.04552561 2.49929401 -19.95654297 1.48095703 C-13.4272474 -0.24705704 -6.71494024 0.01610489 0 0 Z " fill="#020202" transform="translate(724.25,661.5)"/>
<path d="M0 0 C23.43 0 46.86 0 71 0 C76.65449011 14.70167428 76.65449011 14.70167428 78.6875 20.875 C79.08324219 22.06867187 79.47898437 23.26234375 79.88671875 24.4921875 C80.64201754 26.87204123 81.3570006 29.26499456 82.03515625 31.66796875 C82.81441466 34.35909192 83.67147631 36.85944995 84.75 39.4375 C93.29329225 60.44243657 93.29329225 60.44243657 95 70 C95.66 70 96.32 70 97 70 C97.17015625 70.53367187 97.3403125 71.06734375 97.515625 71.6171875 C98.84245772 75.69649236 100.26105853 79.67575448 101.9375 83.625 C104.83735858 90.73469189 108 99.31394546 108 107 C108.66 107 109.32 107 110 107 C110.96023825 109.85353821 111.91824013 112.70779555 112.875 115.5625 C113.14441406 116.36236328 113.41382813 117.16222656 113.69140625 117.98632812 C114.91721824 121.64881518 116.09416005 125.28988335 117.0703125 129.02734375 C117.37710938 130.00832031 117.68390625 130.98929688 118 132 C118.66 132.33 119.32 132.66 120 133 C120.12955078 132.14341797 120.12955078 132.14341797 120.26171875 131.26953125 C121.37111004 124.86763107 123.35874754 119.12807265 125.7734375 113.10546875 C126.80120753 110.50331214 127.71612619 107.91468239 128.5625 105.25 C129.51823248 102.27481017 130.66165658 99.51064706 132 96.6875 C134.07849614 92.19067756 135.16202673 87.63048316 136.19140625 82.796875 C137 80 137 80 138.421875 77.69140625 C140.56559593 74.03540694 141.55958411 70.25276785 142.6875 66.1875 C143.02491211 65.00510742 143.02491211 65.00510742 143.36914062 63.79882812 C143.91921595 61.86771261 144.46050006 59.93409664 145 58 C145.66 58 146.32 58 147 58 C147.09796875 57.40574219 147.1959375 56.81148437 147.296875 56.19921875 C148.99483502 46.78725071 152.48158199 38.23655963 156.0625 29.41015625 C157.25877244 26.33473918 158.27157604 23.21357798 159.28515625 20.07421875 C159.92400727 18.2205035 160.70367951 16.41672111 161.5 14.625 C163.45020499 9.91200461 164.65795614 4.9208275 166 0 C189.76 0 213.52 0 238 0 C234.63716814 11.20943953 234.63716814 11.20943953 233 15.125 C231.75329231 18.14933271 230.55400465 21.17522804 229.4375 24.25 C228.18661177 27.630779 226.61254518 30.77490964 225 34 C224.24529438 35.91427936 223.53501773 37.83932528 222.84375 39.77734375 C222.15100878 41.60220373 221.38243367 43.39810155 220.59375 45.18359375 C218.44077446 50.16268194 216.87949139 55.33536324 215.25 60.50390625 C213.88543018 64.718437 212.34003465 68.21652006 210 72 C208.9175997 75.02833318 207.99394742 78.08249873 207.0625 81.16015625 C206 84 206 84 204.5 85.96875 C202.52681617 88.64076977 201.88554687 91.24584149 201 94.4375 C199.78730227 98.79815893 198.31897476 102.14103426 196 106 C195.21104661 108.25076001 194.48297134 110.52364958 193.8125 112.8125 C193.29623047 114.55466797 193.29623047 114.55466797 192.76953125 116.33203125 C192.51558594 117.21246094 192.26164063 118.09289062 192 119 C191.34 119 190.68 119 190 119 C189.87753906 119.52078125 189.75507812 120.0415625 189.62890625 120.578125 C188.82683683 123.66683954 187.8823707 126.70202998 186.9375 129.75 C186.57527344 130.92046875 186.21304688 132.0909375 185.83984375 133.296875 C185.56269531 134.18890625 185.28554688 135.0809375 185 136 C184.34 136 183.68 136 183 136 C182.87496094 136.52207031 182.74992188 137.04414062 182.62109375 137.58203125 C181.83586411 140.63899443 180.96041893 143.66168264 180.0625 146.6875 C179.55396484 148.42580078 179.55396484 148.42580078 179.03515625 150.19921875 C178 153 178 153 176 154 C175.09363861 156.19917751 175.09363861 156.19917751 174.34375 158.875 C174.04339844 159.85984375 173.74304688 160.8446875 173.43359375 161.859375 C173.12550781 162.89578125 172.81742188 163.9321875 172.5 165 C171.8924603 167.04377371 171.27822212 169.08557211 170.65625 171.125 C170.38619141 172.03507813 170.11613281 172.94515625 169.83789062 173.8828125 C169 176 169 176 167 177 C166.03830784 179.68399539 165.17729112 182.33144506 164.375 185.0625 C164.14554688 185.82111328 163.91609375 186.57972656 163.6796875 187.36132812 C163.11289807 189.23881812 162.55555923 191.11915633 162 193 C161.34 193 160.68 193 160 193 C159.86722656 193.61488281 159.73445312 194.22976563 159.59765625 194.86328125 C159.42105469 195.67152344 159.24445313 196.47976563 159.0625 197.3125 C158.88847656 198.11300781 158.71445312 198.91351562 158.53515625 199.73828125 C158 202 158 202 157 205 C156.34 205.33 155.68 205.66 155 206 C154.34 208.31 153.68 210.62 153 213 C130.23 213 107.46 213 84 213 C82.515 209.04 82.515 209.04 81 205 C80.35108812 203.49223416 79.68787407 201.99039381 79 200.5 C77.44006847 197.05391551 76.06045406 193.58849946 74.80859375 190.01953125 C73.97653024 187.84206847 73.97653024 187.84206847 72.5625 185.2578125 C70.50584929 180.96969576 69.27256845 176.57523381 67.98242188 172.00976562 C66.75554955 167.86857522 65.18972257 164.43578485 62.96118164 160.74389648 C61.34497797 157.81157673 60.43462447 154.68553297 59.4375 151.5 C57.37310358 144.94807957 55.02578592 138.76120901 51.6875 132.75 C48.71996388 126.95837361 46.94899159 120.8303964 45.14331055 114.60058594 C43.9152339 110.46134163 42.81801042 107.35136268 40 104 C39.32215008 101.66989091 38.65583207 99.33640176 38 97 C37.525625 96.236875 37.05125 95.47375 36.5625 94.6875 C34.65949332 91.41432851 33.77825602 88.16139609 32.7421875 84.53515625 C29.80327007 74.49643302 25.30981837 64.86701508 21.03125 55.34375 C19.36367928 51.55381656 17.79787391 47.72198098 16.21875 43.89453125 C15.19516822 41.46352451 14.11587179 39.07672549 13 36.6875 C10.62106399 31.43843066 8.96879633 25.94318043 7.24609375 20.453125 C6.1091783 17.30255052 4.75885912 14.82741332 3 12 C2.3857271 10.47822105 1.819371 8.93584085 1.3125 7.375 C1.06113281 6.61960937 0.80976562 5.86421875 0.55078125 5.0859375 C0 3 0 3 0 0 Z " fill="#020202" transform="translate(820,666)"/>
<path d="M0 0 C22.77 0 45.54 0 69 0 C69 97.35 69 194.7 69 295 C46.23 295 23.46 295 0 295 C0 197.65 0 100.3 0 0 Z " fill="#030303" transform="translate(1166,584)"/>
<path d="M0 0 C22.44 0 44.88 0 68 0 C68 97.35 68 194.7 68 295 C45.56 295 23.12 295 0 295 C0 197.65 0 100.3 0 0 Z " fill="#020202" transform="translate(1264,584)"/>
<path d="M0 0 C22.44 0 44.88 0 68 0 C68 70.29 68 140.58 68 213 C45.56 213 23.12 213 0 213 C0 142.71 0 72.42 0 0 Z " fill="#030303" transform="translate(1070,666)"/>
<path d="M0 0 C16.26736253 -0.78438016 28.60486979 5.77186769 40.6953125 16.17578125 C44.35710273 19.57494308 46.4369069 22.29938143 47.5390625 27.3203125 C48.1990625 27.3203125 48.8590625 27.3203125 49.5390625 27.3203125 C50.33153914 29.52835809 51.1230638 31.73673747 51.9140625 33.9453125 C52.35492187 35.17507813 52.79578125 36.40484375 53.25 37.671875 C53.67539063 38.87585938 54.10078125 40.07984375 54.5390625 41.3203125 C54.920625 42.2071875 55.3021875 43.0940625 55.6953125 44.0078125 C57.01864785 49.20312907 56.7457602 54.35982457 56.6640625 59.6953125 C56.65503906 60.81292969 56.64601563 61.93054688 56.63671875 63.08203125 C56.61324596 65.82834712 56.58040978 68.57421722 56.5390625 71.3203125 C55.8790625 71.3203125 55.2190625 71.3203125 54.5390625 71.3203125 C54.50167969 71.93777344 54.46429687 72.55523438 54.42578125 73.19140625 C53.295721 87.74924124 47.04478408 98.19615831 36.84765625 108.54296875 C34.19252579 110.58710472 31.75024356 111.43113324 28.5390625 112.3203125 C28.5390625 112.9803125 28.5390625 113.6403125 28.5390625 114.3203125 C14.90165762 120.93811729 -1.23956267 121.76034286 -15.8359375 117.6953125 C-25.61679133 114.00660678 -31.88919064 108.29922156 -38.4609375 100.3203125 C-39.2034375 99.5365625 -39.9459375 98.7528125 -40.7109375 97.9453125 C-43.90895903 93.1482802 -46.4609375 87.12939844 -46.4609375 81.3203125 C-47.1209375 81.3203125 -47.7809375 81.3203125 -48.4609375 81.3203125 C-50.1830372 74.60343758 -50.81497372 68.43232131 -50.7734375 61.5078125 C-50.76852295 60.53658447 -50.7636084 59.56535645 -50.75854492 58.56469727 C-50.64206167 51.42935155 -49.85835756 45.07579576 -47.4609375 38.3203125 C-47.13222656 37.258125 -46.80351563 36.1959375 -46.46484375 35.1015625 C-41.9747248 21.80210983 -32.9954281 11.66314722 -20.7109375 5.0703125 C-13.77921126 1.78912362 -7.5707682 0.70068058 0 0 Z " fill="#FCFCFC" transform="translate(1466.4609375,712.6796875)"/>
<path d="M0 0 C0 0.66 0 1.32 0 2 C1.051875 2.226875 2.10375 2.45375 3.1875 2.6875 C7.2077258 3.83613594 9.22167296 5.85610361 12 9 C12.845625 9.721875 13.69125 10.44375 14.5625 11.1875 C21.48556065 19.17564691 21.83457044 28.33242049 21.44921875 38.484375 C21.03145004 44.16228478 19.38301622 48.42087778 16 53 C15.54238281 53.65097656 15.08476563 54.30195312 14.61328125 54.97265625 C11.12056314 59.47969797 7.05763888 62.43132176 2 65 C0.84951172 65.59167969 0.84951172 65.59167969 -0.32421875 66.1953125 C-10.56311254 70.67972846 -23.16777047 70.07508975 -34 68 C-39.56092577 65.71949417 -44.02573647 62.51132616 -48 58 C-48.515625 57.41734375 -49.03125 56.8346875 -49.5625 56.234375 C-57.29364856 47.38815694 -58.70384758 39.59102178 -58 28 C-56.93340945 17.57445293 -52.78756413 11.14800129 -44.96484375 4.34765625 C-42.93565387 2.95586597 -41.36079958 2.56354571 -39 2 C-38.67 1.34 -38.34 0.68 -38 0 C-25.11428701 -4.41680099 -12.87642368 -3.89772825 0 0 Z " fill="#030303" transform="translate(1122,580)"/>
<path d="M0 0 C0.05878077 3.64576392 0.0938558 7.29140352 0.125 10.9375 C0.14175781 11.95908203 0.15851563 12.98066406 0.17578125 14.03320312 C0.21603105 20.33229621 -0.12877495 25.9587933 -2 32 C-3.485 32.495 -3.485 32.495 -5 33 C-5.29777344 33.76183594 -5.59554687 34.52367187 -5.90234375 35.30859375 C-8.46076397 41.58173088 -15.84960172 45.69616757 -21.8125 48.4375 C-28.05522084 51.04937007 -34.13160133 51.2387594 -40.8125 51.3125 C-41.67681641 51.34150391 -42.54113281 51.37050781 -43.43164062 51.40039062 C-51.63651812 51.48089131 -58.07497327 48.76044265 -64 43 C-68.36735293 37.21620828 -68.98026643 32.15078565 -68 25 C-66.41700338 18.99299959 -62.75567826 15.13214321 -57.76171875 11.59375 C-41.5500116 2.23819623 -18.44283681 0 0 0 Z " fill="#F9F9F9" transform="translate(756,784)"/>
<path d="M0 0 C0.99 0.33 1.98 0.66 3 1 C3.6875 3.0625 3.6875 3.0625 4 5 C3.01 4.67 2.02 4.34 1 4 C1 68.35 1 132.7 1 199 C0.67 199 0.34 199 0 199 C0 133.33 0 67.66 0 0 Z " fill="#D8D8D8" transform="translate(396,680)"/>
<path d="M0 0 C0.33 0 0.66 0 1 0 C1 62.7 1 125.4 1 190 C0.01 189.01 -0.98 188.02 -2 187 C-1.67 186.01 -1.34 185.02 -1 184 C-0.89490119 181.54222331 -0.84518148 179.11207501 -0.84178162 176.65388489 C-0.83684364 175.89994798 -0.83190566 175.14601107 -0.82681805 174.36922759 C-0.81142525 171.83575359 -0.80307761 169.30230496 -0.79467773 166.76879883 C-0.78510061 164.95556921 -0.77509063 163.14234184 -0.76467896 161.32911682 C-0.73760587 156.39971393 -0.71660931 151.47030143 -0.69667697 146.54086518 C-0.67483225 141.39186488 -0.64743616 136.24289423 -0.62062073 131.09391785 C-0.57067336 121.34047658 -0.52574211 111.58701886 -0.48259836 101.83354539 C-0.43324346 90.73088634 -0.37831885 79.62825705 -0.32291877 68.52562678 C-0.20906734 45.68377894 -0.10223518 22.84190257 0 0 Z " fill="#C2C2C2" transform="translate(533,584)"/>
<path d="M0 0 C0.33 0 0.66 0 1 0 C1 20.79 1 41.58 1 63 C0.01 62.01 -0.98 61.02 -2 60 C-1.67 59.01 -1.34 58.02 -1 57 C-0.88373271 55.14471321 -0.82339944 53.2857064 -0.79467773 51.42700195 C-0.77473251 50.28604568 -0.75478729 49.14508942 -0.73423767 47.96955872 C-0.71752518 46.73823715 -0.70081268 45.50691559 -0.68359375 44.23828125 C-0.66281265 42.97735153 -0.64203156 41.71642181 -0.62062073 40.4172821 C-0.56627878 37.06854542 -0.51603834 33.71979795 -0.46777344 30.37097168 C-0.41749643 26.95233771 -0.36184276 23.53379174 -0.30664062 20.11523438 C-0.199465 13.41022638 -0.09769488 6.70515247 0 0 Z " fill="#C5C5C5" transform="translate(533,711)"/>
<path d="M0 0 C0.33 0 0.66 0 1 0 C1 8.58 1 17.16 1 26 C0.01 25.01 -0.98 24.02 -2 23 C-1.505 21.515 -1.505 21.515 -1 20 C-0.8535286 18.44733347 -0.75305926 16.89004338 -0.68359375 15.33203125 C-0.64169922 14.43935547 -0.59980469 13.54667969 -0.55664062 12.62695312 C-0.51732422 11.69818359 -0.47800781 10.76941406 -0.4375 9.8125 C-0.37272461 8.40194336 -0.37272461 8.40194336 -0.30664062 6.96289062 C-0.20061335 4.64207146 -0.09854971 2.32114675 0 0 Z " fill="#D0D0D0" transform="translate(533,748)"/>
<path d="M0 0 C0.66 0.33 1.32 0.66 2 1 C0.38405168 3.04119788 -1.2856382 5.04072937 -3 7 C-3.66 7 -4.32 7 -5 7 C-5.2165625 8.175625 -5.2165625 8.175625 -5.4375 9.375 C-6 12 -6 12 -7 14 C-7.66 14 -8.32 14 -9 14 C-7.64002446 7.95566426 -4.14348206 4.36505864 0 0 Z " fill="#BCBCBC" transform="translate(698,719)"/>
<path d="M0 0 C0.66 0.33 1.32 0.66 2 1 C0.89718873 2.27200971 -0.20730769 3.54255853 -1.3125 4.8125 C-1.92738281 5.52019531 -2.54226563 6.22789062 -3.17578125 6.95703125 C-4.73334335 8.70136739 -6.32658875 10.36778041 -8 12 C-8.66 11.67 -9.32 11.34 -10 11 C-8.88200014 9.66079162 -7.75538103 8.32877444 -6.625 7 C-5.99851562 6.2575 -5.37203125 5.515 -4.7265625 4.75 C-4.15679688 4.1725 -3.58703125 3.595 -3 3 C-2.34 3 -1.68 3 -1 3 C-0.67 2.01 -0.34 1.02 0 0 Z " fill="#363636" transform="translate(653,684)"/>
<path d="M0 0 C0.66 0.33 1.32 0.66 2 1 C1.07038578 2.15224028 0.1309875 3.29659176 -0.8125 4.4375 C-1.59560547 5.39462891 -1.59560547 5.39462891 -2.39453125 6.37109375 C-4 8 -4 8 -7 9 C-5.44499019 5.18315774 -2.96404505 2.80804268 0 0 Z " fill="#454545" transform="translate(1076,585)"/>
<path d="M0 0 C0.66 0.33 1.32 0.66 2 1 C0.90220176 2.15193623 -0.20349446 3.29634937 -1.3125 4.4375 C-1.92738281 5.07558594 -2.54226563 5.71367188 -3.17578125 6.37109375 C-5 8 -5 8 -8 9 C-6.4169423 4.7257442 -3.49431596 2.73468206 0 0 Z " fill="#BFBFBF" transform="translate(699,795)"/>
</svg>
